<?xml version="1.0" encoding="UTF-8"?>
<svg width="80px" height="78px" viewBox="0 0 80 78" version="1.1" xmlns="http://www.w3.org/2000/svg" xmlns:xlink="http://www.w3.org/1999/xlink">
    <!-- Generator: Sketch 52.6 (67491) - http://www.bohemiancoding.com/sketch -->
    <title>consulting</title>
    <desc>Created with Sketch.</desc>
    <g id="Page-1" stroke="none" stroke-width="1" fill="none" fill-rule="evenodd">
        <g id="Pricing_2560" transform="translate(-1439.000000, -673.000000)" fill="#FF7300">
            <g id="consulting" transform="translate(1439.000000, 673.000000)">
                <rect id="Rectangle" x="38.6666667" y="64" width="2.66666667" height="2.66666667"></rect>
                <path d="M78.6666667,66.6666667 L77.3333333,66.6666667 L77.3333333,18.6666667 C77.3333333,15.7211667 74.9455,13.3333333 72,13.3333333 L66.6666667,13.3333333 L66.6666667,5.33333333 C66.6666667,2.38783333 64.2788333,0 61.3333333,0 L29.3333333,0 C26.3878333,0 24,2.38783333 24,5.33333333 L24,6.66666667 L21.3333333,6.66666667 C18.3878333,6.66666667 16,9.0545 16,12 L16,13.3333333 L8,13.3333333 C5.0545,13.3333333 2.66666667,15.7211667 2.66666667,18.6666667 L2.66666667,66.6666667 L1.33333333,66.6666667 C0.597,66.6666667 0,67.2636667 0,68 L0,72 C0,74.9455 2.38783333,77.3333333 5.33333333,77.3333333 L74.6666667,77.3333333 C77.6121667,77.3333333 80,74.9455 80,72 L80,68 C80,67.2636667 79.403,66.6666667 78.6666667,66.6666667 Z M26.6666667,5.33333333 C26.6666667,3.8605 27.8605,2.66666667 29.3333333,2.66666667 L61.3333333,2.66666667 C62.8061667,2.66666667 64,3.8605 64,5.33333333 L64,26.6666667 C64,28.1395 62.8061667,29.3333333 61.3333333,29.3333333 L58.6666667,29.3333333 C58.247,29.3333333 57.8518333,29.531 57.6,29.8666667 L54.6666667,33.7773333 L51.7333333,29.8666667 C51.4815,29.531 51.0863333,29.3333333 50.6666667,29.3333333 L29.3333333,29.3333333 C27.8605,29.3333333 26.6666667,28.1395 26.6666667,26.6666667 L26.6666667,5.33333333 Z M18.6666667,12 C18.6666667,10.5271667 19.8605,9.33333333 21.3333333,9.33333333 L24,9.33333333 L24,26.6666667 C24,29.6121667 26.3878333,32 29.3333333,32 L46.6666667,32 L46.6666667,33.3333333 C46.6666667,34.8061667 45.4728333,36 44,36 L34.6666667,36 C34.247,36 33.8518333,36.1976667 33.6,36.5333333 L30.6666667,40.444 L27.7333333,36.5333333 C27.4815,36.1976667 27.0863333,36 26.6666667,36 L21.3333333,36 C19.8605,36 18.6666667,34.8061667 18.6666667,33.3333333 L18.6666667,12 Z M21.3333333,38.6666667 L26,38.6666667 L29.6,43.4666667 C30.0418333,44.0558333 30.8775,44.1751667 31.4666667,43.7333333 C31.5676667,43.6575 31.6575,43.5676667 31.7333333,43.4666667 L35.3333333,38.6666667 L44,38.6666667 C46.9455,38.6666667 49.3333333,36.2788333 49.3333333,33.3333333 L49.3333333,32 L50,32 L53.6,36.8 C54.0418333,37.3891667 54.8775,37.5085 55.4666667,37.0666667 C55.5676667,36.9908333 55.6575,36.901 55.7333333,36.8 L59.3333333,32 L61.3333333,32 C64.2788333,32 66.6666667,29.6121667 66.6666667,26.6666667 L66.6666667,21.3333333 L69.3333333,21.3333333 L69.3333333,58.6666667 L64,58.6666667 L64,57.3333333 C63.9993333,55.1166667 62.897,53.0453333 61.0586667,51.8066667 C63.1665,49.7491667 63.2073333,46.3726667 61.15,44.2646667 C59.0925,42.1568333 55.716,42.116 53.608,44.1735 C51.5001667,46.231 51.4593333,49.6075 53.5166667,51.7155 C53.5466667,51.7463333 53.5771667,51.7766667 53.608,51.8066667 C51.7696667,53.0453333 50.6673333,55.1166667 50.6666667,57.3333333 L50.6666667,58.6666667 L29.3333333,58.6666667 L29.3333333,57.3333333 C29.3326667,55.1166667 28.2303333,53.0453333 26.392,51.8066667 C28.4998333,49.7491667 28.5406667,46.3726667 26.4833333,44.2646667 C24.4258333,42.1568333 21.0493333,42.116 18.9413333,44.1735 C16.8335,46.231 16.7926667,49.6075 18.85,51.7155 C18.88,51.7463333 18.9105,51.7766667 18.9413333,51.8066667 C17.103,53.0453333 16.0006667,55.1166667 16,57.3333333 L16,58.6666667 L10.6666667,58.6666667 L10.6666667,21.3333333 L16,21.3333333 L16,33.3333333 C16,36.2788333 18.3878333,38.6666667 21.3333333,38.6666667 Z M57.3333333,53.3333333 C59.5425,53.3333333 61.3333333,55.1241667 61.3333333,57.3333333 L61.3333333,58.6666667 L53.3333333,58.6666667 L53.3333333,57.3333333 C53.3333333,55.1241667 55.1241667,53.3333333 57.3333333,53.3333333 Z M54.6666667,48 C54.6666667,46.5271667 55.8605,45.3333333 57.3333333,45.3333333 C58.8061667,45.3333333 60,46.5271667 60,48 C60,49.4728333 58.8061667,50.6666667 57.3333333,50.6666667 C55.8605,50.6666667 54.6666667,49.4728333 54.6666667,48 Z M22.6666667,53.3333333 C24.8758333,53.3333333 26.6666667,55.1241667 26.6666667,57.3333333 L26.6666667,58.6666667 L18.6666667,58.6666667 L18.6666667,57.3333333 C18.6666667,55.1241667 20.4575,53.3333333 22.6666667,53.3333333 Z M20,48 C20,46.5271667 21.1938333,45.3333333 22.6666667,45.3333333 C24.1395,45.3333333 25.3333333,46.5271667 25.3333333,48 C25.3333333,49.4728333 24.1395,50.6666667 22.6666667,50.6666667 C21.1938333,50.6666667 20,49.4728333 20,48 Z M5.33333333,18.6666667 C5.33333333,17.1938333 6.52716667,16 8,16 L16,16 L16,18.6666667 L9.33333333,18.6666667 C8.597,18.6666667 8,19.2636667 8,20 L8,60 C8,60.7363333 8.597,61.3333333 9.33333333,61.3333333 L70.6666667,61.3333333 C71.403,61.3333333 72,60.7363333 72,60 L72,20 C72,19.2636667 71.403,18.6666667 70.6666667,18.6666667 L66.6666667,18.6666667 L66.6666667,16 L72,16 C73.4728333,16 74.6666667,17.1938333 74.6666667,18.6666667 L74.6666667,66.6666667 L52,66.6666667 C51.6463333,66.6666667 51.3073333,66.8073333 51.0573333,67.0573333 L48.7813333,69.3333333 L31.2186667,69.3333333 L28.9426667,67.0573333 C28.6926667,66.8073333 28.3536667,66.6666667 28,66.6666667 L5.33333333,66.6666667 L5.33333333,18.6666667 Z M77.3333333,72 C77.3333333,73.4728333 76.1395,74.6666667 74.6666667,74.6666667 L5.33333333,74.6666667 C3.8605,74.6666667 2.66666667,73.4728333 2.66666667,72 L2.66666667,69.3333333 L27.448,69.3333333 L29.724,71.6093333 C29.974,71.8593333 30.313,72 30.6666667,72 L49.3333333,72 C49.687,72 50.026,71.8593333 50.276,71.6093333 L52.552,69.3333333 L77.3333333,69.3333333 L77.3333333,72 Z" id="Shape" fill-rule="nonzero"></path>
                <rect id="Rectangle" x="38.6666667" y="6.66666667" width="21.3333333" height="2.66666667"></rect>
                <rect id="Rectangle" x="30.6666667" y="12" width="29.3333333" height="2.66666667"></rect>
                <rect id="Rectangle" x="30.6666667" y="17.3333333" width="29.3333333" height="2.66666667"></rect>
                <rect id="Rectangle" x="30.6666667" y="22.6666667" width="24" height="2.66666667"></rect>
                <rect id="Rectangle" x="33.3333333" y="6.66666667" width="2.66666667" height="2.66666667"></rect>
            </g>
        </g>
    </g>
</svg>