<?xml version="1.0" encoding="UTF-8"?>
<svg width="62px" height="62px" viewBox="0 0 62 62" version="1.1" xmlns="http://www.w3.org/2000/svg" xmlns:xlink="http://www.w3.org/1999/xlink">
    <!-- Generator: Sketch 52.6 (67491) - http://www.bohemiancoding.com/sketch -->
    <title>Group 2</title>
    <desc>Created with Sketch.</desc>
    <g id="Page-1" stroke="none" stroke-width="1" fill="none" fill-rule="evenodd">
        <g id="How-we-work_2560" transform="translate(-521.000000, -490.000000)" fill="#FF7300" fill-rule="nonzero">
            <g id="Group-2" transform="translate(521.000000, 490.000000)">
                <path d="M25.6548857,4 C13.6952017,4 4,13.6952017 4,25.6548857 C4,37.6145696 13.6952017,47.3097713 25.6548857,47.3097713 C37.6145696,47.3097713 47.3097713,37.6145696 47.3097713,25.6548857 C47.2967526,13.7006154 37.6091559,4.01301871 25.6548857,4 Z M25.6548857,6.06237006 C32.0245156,6.06739709 37.9934012,9.17177963 41.6547526,14.3840333 L39.07679,16.9619958 C38.4494428,16.5823909 37.7312225,16.3792474 36.997921,16.3742204 C34.7199044,16.3742204 32.8731809,18.2209439 32.8731809,20.4989605 C32.87679,21.2330353 33.0787734,21.9524158 33.4578628,22.5809231 L26.7056632,29.3331227 C25.4271227,28.5535468 23.8202786,28.5535468 22.541738,29.3331227 L17.8519085,24.6432931 C18.2309979,24.0147859 18.4329813,23.2954054 18.4365904,22.5613306 C18.4394262,20.2878254 16.5987609,18.4425198 14.3252557,18.439684 C12.4450187,18.4373638 10.8022121,19.7092017 10.3335385,21.5301455 L6.507842,21.5301455 C8.46026195,12.5141081 16.4299044,6.07590437 25.6548857,6.06237006 Z M39.0602911,20.4989605 C39.0602911,21.6380333 38.1369938,22.5613306 36.997921,22.5613306 C35.8588482,22.5613306 34.9355509,21.6380333 34.9355509,20.4989605 C34.9355509,19.3598877 35.8588482,18.4365904 36.997921,18.4365904 C38.1369938,18.4365904 39.0602911,19.3598877 39.0602911,20.4989605 Z M26.6860707,32.8731809 C26.6860707,34.0122536 25.7627734,34.9355509 24.6237006,34.9355509 C23.4846279,34.9355509 22.5613306,34.0122536 22.5613306,32.8731809 C22.5613306,31.7341081 23.4846279,30.8108108 24.6237006,30.8108108 C25.7627734,30.8108108 26.6860707,31.7341081 26.6860707,32.8731809 Z M16.3742204,22.5613306 C16.3742204,23.7004033 15.4509231,24.6237006 14.3118503,24.6237006 C13.1727775,24.6237006 12.2494802,23.7004033 12.2494802,22.5613306 C12.2494802,21.4222578 13.1727775,20.4989605 14.3118503,20.4989605 C15.4509231,20.4989605 16.3742204,21.4222578 16.3742204,22.5613306 Z M35.1745281,42.7862204 C32.2624615,44.4031185 28.9858711,45.250237 25.6548857,45.2472723 C14.8416216,45.2546195 6.06971726,36.4948316 6.06237006,25.6815676 C6.06185447,24.9837131 6.09871933,24.2862453 6.17270686,23.5923867 L10.3335385,23.5923867 C10.802341,25.4079168 12.4367692,26.6788524 14.3118503,26.6859418 C15.0459252,26.6823326 15.7653056,26.4803493 16.3938129,26.1012599 L21.0836424,30.7910894 C20.704553,31.4195967 20.5025696,32.1389771 20.4989605,32.873052 C20.4989605,35.1510686 22.345684,36.9977921 24.6237006,36.9977921 C26.9017173,36.9977921 28.7484407,35.1510686 28.7484407,32.873052 C28.7448316,32.1389771 28.5428482,31.4195967 28.1637588,30.7910894 L34.9159584,24.0388898 C35.5444657,24.4179792 36.2638462,24.6199626 36.997921,24.6235717 C39.2759376,24.6235717 41.1226611,22.7768482 41.1226611,20.4988316 C41.119052,19.7647568 40.9170686,19.0453763 40.5379792,18.416869 L42.7859626,16.1699168 C48.0340499,25.6217588 44.6262412,37.538262 35.1745281,42.7862204 Z" id="Shape"></path>
                <path d="M51.5826719,10.3151625 C53.4577529,10.3080731 55.0921812,9.03726645 55.5609837,7.2216074 L61.8945222,7.2216074 L61.8945222,5.15923734 L55.5609837,5.15923734 C55.0921812,3.3435783 53.4577529,2.07277164 51.5826719,2.06568225 C49.3046552,2.06568225 47.4579317,3.91240574 47.4579317,6.19042237 C47.4615409,6.92449722 47.6635242,7.64387767 48.0426136,8.27238495 L46.2308215,10.084177 C37.5617779,-1.2100059 21.37836,-3.33811401 10.084177,5.33092965 C-1.2100059,13.9999733 -3.33811401,30.1835201 5.33092965,41.477703 C13.5138985,52.1384806 28.5139026,54.7245637 39.7941646,47.4192623 L42.906281,50.5313787 L44.3643766,51.9894743 L52.6654161,60.2905138 C54.7766386,62.4017363 58.1993995,62.4017363 60.310622,60.2905138 C62.4218444,58.1792914 62.4218444,54.7565305 60.310622,52.645308 L52.0095825,44.3442685 L50.5514868,42.8861729 L47.4393704,39.7740565 C52.9638153,31.2647176 52.9638153,20.3012872 47.4393704,11.7918195 L49.5017405,9.7294494 C50.129861,10.1086677 50.8489837,10.3110378 51.5826719,10.3151625 Z M51.5826719,4.12805231 C52.7217446,4.12805231 53.6450419,5.05134961 53.6450419,6.19042237 C53.6450419,7.32949514 52.7217446,8.25279243 51.5826719,8.25279243 C50.4435991,8.25279243 49.5203018,7.32949514 49.5203018,6.19042237 C49.5203018,5.05134961 50.443728,4.12805231 51.5826719,4.12805231 Z M58.8525263,54.1034037 C60.1732166,55.3944473 60.1973205,57.511728 58.9062768,58.8324182 C57.6152332,60.1531084 55.4979525,60.1772124 54.1772623,58.8861687 C54.1590877,58.8685097 54.1412997,58.8505929 54.1235118,58.8324182 L45.8224723,50.5313787 L50.5514868,45.8023642 L58.8525263,54.1034037 Z M49.0933912,44.3442685 L44.3643766,49.0732831 L41.5100565,46.2189629 C41.6554536,46.1075949 41.79157,45.9848839 41.9349047,45.8704224 C42.0782394,45.7559608 42.2442602,45.6188132 42.3979068,45.4899151 C42.6237363,45.300177 42.8464723,45.1083766 43.0650835,44.9114203 C43.1774827,44.8083018 43.2847259,44.7051833 43.3950627,44.6020648 C43.8178486,44.2060897 44.227229,43.7967093 44.6232041,43.3739234 C44.7263226,43.2635866 44.8294411,43.1563434 44.9325596,43.0439442 C45.1295159,42.825333 45.3213163,42.602597 45.5110544,42.3767675 C45.6403392,42.2241521 45.767175,42.069861 45.8915617,41.9137654 C46.004992,41.7714619 46.127703,41.6353454 46.239071,41.4899484 L49.0933912,44.3442685 Z M45.0944556,39.5544141 C44.7696324,40.0081355 44.4344972,40.4525762 44.0808008,40.880518 C43.9776822,41.0052914 43.8673454,41.12594 43.7611334,41.2486511 C43.4455908,41.6157529 43.1197363,41.9718985 42.78357,42.3169588 C42.6371417,42.4681563 42.4882644,42.6170336 42.3370669,42.7634619 C41.9932956,43.0996282 41.6372789,43.4254827 41.2687592,43.7410253 C41.1460482,43.8441438 41.0253995,43.956543 40.9006261,44.0606926 C40.4726843,44.4143891 40.0282436,44.7495242 39.5745222,45.0743475 C28.8996947,52.7006053 14.063649,50.2292415 6.43739119,39.5544141 C-1.18886661,28.8795866 1.28249722,14.0435409 11.9573247,6.41728308 C22.6321521,-1.20897472 37.4681978,1.26226021 45.0944556,11.9372166 C50.9955409,20.1972664 50.9955409,31.2943642 45.0944556,39.5544141 Z" id="Shape"></path>
            </g>
        </g>
    </g>
</svg>