<?xml version="1.0" encoding="UTF-8"?>
<svg width="62px" height="62px" viewBox="0 0 62 62" version="1.1" xmlns="http://www.w3.org/2000/svg" xmlns:xlink="http://www.w3.org/1999/xlink">
    <!-- Generator: Sketch 52.6 (67491) - http://www.bohemiancoding.com/sketch -->
    <title>Group 3</title>
    <desc>Created with Sketch.</desc>
    <g id="Page-1" stroke="none" stroke-width="1" fill="none" fill-rule="evenodd">
        <g id="How-we-work_2560" transform="translate(-522.000000, -689.000000)" fill="#FF7300" fill-rule="nonzero">
            <g id="Group-3" transform="translate(522.000000, 689.000000)">
                <rect id="Rectangle-path" x="30" y="52" width="2.06666667" height="2.06666667"></rect>
                <path d="M60.9666667,53.7333333 L59.9333333,53.7333333 L59.9333333,16.5333333 C59.9333333,14.2505708 58.0827625,12.4 55.8,12.4 L49.6,12.4 L49.6,4.13333333 C49.6,1.85057083 47.7494292,0 45.4666667,0 L16.5333333,0 C14.2505708,0 12.4,1.85057083 12.4,4.13333333 L12.4,12.4 L6.2,12.4 C3.9172375,12.4 2.06666667,14.2505708 2.06666667,16.5333333 L2.06666667,53.7333333 L1.03333333,53.7333333 C0.462675,53.7333333 0,54.1960083 0,54.7666667 L0,57.8666667 C0,60.1494292 1.85057083,62 4.13333333,62 L57.8666667,62 C60.1494292,62 62,60.1494292 62,57.8666667 L62,54.7666667 C62,54.1960083 61.537325,53.7333333 60.9666667,53.7333333 Z M14.4666667,4.13333333 C14.4666667,2.9918875 15.3918875,2.06666667 16.5333333,2.06666667 L45.4666667,2.06666667 C46.6081125,2.06666667 47.5333333,2.9918875 47.5333333,4.13333333 L47.5333333,8.26666667 L14.4666667,8.26666667 L14.4666667,4.13333333 Z M14.4666667,10.3333333 L47.5333333,10.3333333 L47.5333333,40.3 C47.5333333,41.4414458 46.6081125,42.3666667 45.4666667,42.3666667 L16.5333333,42.3666667 C15.3918875,42.3666667 14.4666667,41.4414458 14.4666667,40.3 L14.4666667,10.3333333 Z M16.5333333,44.4333333 L45.4666667,44.4333333 C47.7494292,44.4333333 49.6,42.5827625 49.6,40.3 L49.6,18.6 L53.7333333,18.6 L53.7333333,47.5333333 L8.26666667,47.5333333 L8.26666667,18.6 L12.4,18.6 L12.4,40.3 C12.4,42.5827625 14.2505708,44.4333333 16.5333333,44.4333333 Z M4.13333333,16.5333333 C4.13333333,15.3918875 5.05855417,14.4666667 6.2,14.4666667 L12.4,14.4666667 L12.4,16.5333333 L7.23333333,16.5333333 C6.662675,16.5333333 6.2,16.9960083 6.2,17.5666667 L6.2,48.5666667 C6.2,49.137325 6.662675,49.6 7.23333333,49.6 L54.7666667,49.6 C55.337325,49.6 55.8,49.137325 55.8,48.5666667 L55.8,17.5666667 C55.8,16.9960083 55.337325,16.5333333 54.7666667,16.5333333 L49.6,16.5333333 L49.6,14.4666667 L55.8,14.4666667 C56.9414458,14.4666667 57.8666667,15.3918875 57.8666667,16.5333333 L57.8666667,53.7333333 L40.3,53.7333333 C40.0261667,53.733075 39.7633125,53.8417042 39.5694333,54.0350667 L37.8055333,55.8 L24.1944667,55.8 L22.4305667,54.0350667 C22.2366875,53.8417042 21.9738333,53.733075 21.7,53.7333333 L4.13333333,53.7333333 L4.13333333,16.5333333 Z M59.9333333,57.8666667 C59.9333333,59.0081125 59.0081125,59.9333333 57.8666667,59.9333333 L4.13333333,59.9333333 C2.9918875,59.9333333 2.06666667,59.0081125 2.06666667,57.8666667 L2.06666667,55.8 L21.2722,55.8 L23.0361,57.5639 C23.22985,57.75765 23.492575,57.8666667 23.7666667,57.8666667 L38.2333333,57.8666667 C38.507425,57.8666667 38.77015,57.75765 38.9639,57.5639 L40.7278,55.8 L59.9333333,55.8 L59.9333333,57.8666667 Z" id="Shape"></path>
                <rect id="Rectangle-path" x="18" y="33" width="26.8666667" height="2.06666667"></rect>
                <rect id="Rectangle-path" x="18" y="37" width="24.8" height="2.06666667"></rect>
                <rect id="Rectangle-path" x="24" y="29" width="20.6666667" height="2.06666667"></rect>
                <rect id="Rectangle-path" x="17" y="4" width="2.06666667" height="2.06666667"></rect>
                <rect id="Rectangle-path" x="21" y="4" width="2.06666667" height="2.06666667"></rect>
                <rect id="Rectangle-path" x="25" y="4" width="2.06666667" height="2.06666667"></rect>
                <rect id="Rectangle-path" x="20" y="29" width="2.06666667" height="2.06666667"></rect>
                <path d="M27.7867437,17.6533333 L26.5467437,16 L22.4134104,19.1 C21.9568062,19.4424208 21.8643229,20.0900625 22.2067437,20.5466667 C22.2655145,20.6249417 22.3351354,20.6945625 22.4134104,20.7533333 L26.5467437,23.8533333 L27.7867437,22.2 L24.755977,19.9266667 L27.7867437,17.6533333 Z" id="Shape"></path>
                <path d="M40.58,19.3066667 C40.5212292,19.2283917 40.4516083,19.1587708 40.3733333,19.1 L36.24,16 L35,17.6533333 L38.0307667,19.9266667 L35,22.2 L36.24,23.8533333 L40.3733333,20.7533333 C40.8299375,20.4109125 40.9224208,19.7632708 40.58,19.3066667 Z" id="Shape"></path>
                <rect id="Rectangle-path" transform="translate(31.026558, 19.549965) rotate(-68.191143) translate(-31.026558, -19.549965) " x="25.4622287" y="18.5166634" width="11.1286595" height="2.06660344"></rect>
            </g>
        </g>
    </g>
</svg>