<?xml version="1.0" encoding="UTF-8"?>
<svg width="34px" height="34px" viewBox="0 0 34 34" version="1.1" xmlns="http://www.w3.org/2000/svg" xmlns:xlink="http://www.w3.org/1999/xlink">
    <!-- Generator: Sketch 52.6 (67491) - http://www.bohemiancoding.com/sketch -->
    <title>help</title>
    <desc>Created with Sketch.</desc>
    <g id="Page-1" stroke="none" stroke-width="1" fill="none" fill-rule="evenodd">
        <g id="Novator_2560" transform="translate(-525.000000, -562.000000)" fill="#FF7300" fill-rule="nonzero">
            <g id="help" transform="translate(525.000000, 562.000000)">
                <path d="M10.3506758,23.6861797 L10.3311523,23.6667227 C10.0712383,23.4080703 9.65082031,23.409 9.39203516,23.6689805 C9.13331641,23.9289609 9.1343125,24.3493789 9.39429297,24.6080977 L9.41600781,24.6296797 C9.5455,24.7579766 9.7144375,24.8219922 9.88330859,24.8219922 C10.0543047,24.8219922 10.2253008,24.7563164 10.355125,24.6252969 C10.6132461,24.3647187 10.6112539,23.9443008 10.3506758,23.6861797 Z" id="Shape"></path>
                <path d="M24.6070352,9.39309766 C20.4125508,5.19861328 13.587582,5.19861328 9.39309766,9.39309766 C5.95936328,12.826832 5.25167187,18.1607148 7.67204688,22.3640977 C7.8550625,22.681918 8.26113672,22.7911563 8.57889062,22.608207 C8.89671094,22.4251914 9.00601562,22.0191836 8.823,21.7013633 C6.70165234,18.0173438 7.32228516,13.3422109 10.3322148,10.3322148 C14.0088633,6.65556641 19.9912695,6.65556641 23.6678516,10.3322148 C27.3445,14.0088633 27.3445,19.9912031 23.6678516,23.6678516 C20.6395937,26.6961094 15.9449375,27.3053867 12.2513555,25.1495742 C11.9345312,24.9646328 11.5279258,25.0715469 11.3430508,25.3883711 C11.1581758,25.7051289 11.2650898,26.1118008 11.5818477,26.2966758 C13.2671719,27.2803516 15.1347812,27.7594063 16.9907031,27.7594063 C19.7756484,27.7594063 22.5338984,26.6801055 24.6070352,24.6069688 C28.8014531,20.4124844 28.8014531,13.587582 24.6070352,9.39309766 Z" id="Shape"></path>
                <path d="M33.9976758,14.0822422 C33.997543,13.7557227 33.7600078,13.4776797 33.4375391,13.4266133 L30.9862852,13.0382031 L29.6858516,9.90203516 L31.1430039,7.89298047 C31.3347187,7.62868359 31.305832,7.26417969 31.0748711,7.03341797 L26.9562891,2.917625 C26.7252617,2.68679688 26.3607578,2.65810937 26.0965937,2.85008984 L24.0894648,4.30817188 L20.9511055,3.00959766 L20.5610352,0.559605469 C20.5096367,0.237269531 20.2316602,0 19.905207,0 C19.9051406,0 19.9050078,0 19.9049414,0 L14.0822422,0.002390625 C13.7557227,0.0025234375 13.4777461,0.240058594 13.4266133,0.562527344 L13.0382695,3.01378125 L9.90210156,4.31421484 L7.89304687,2.8570625 C7.62881641,2.66534766 7.2643125,2.69423438 7.03348437,2.92519531 L2.91769141,7.04377734 C2.68686328,7.27480469 2.65824219,7.63930859 2.85015625,7.90347266 L4.30823828,9.91060156 L3.00966406,13.0489609 L0.559671875,13.4390312 C0.237203125,13.4903633 -0.0001328125,13.7685391 -2.35922406e-16,14.0950586 L0.002390625,19.9176914 C0.0025234375,20.2442109 0.240058594,20.5222539 0.562527344,20.5733203 L3.01378125,20.9617305 L4.31421484,24.0978984 L2.8570625,26.1069531 C2.66534766,26.37125 2.69423437,26.7357539 2.92519531,26.9665156 L7.04377734,31.0823086 C7.27480469,31.3131367 7.639375,31.3418242 7.90347266,31.1498437 L9.91060156,29.6917617 L13.0489609,30.9903359 L13.4390312,33.4403281 C13.4903633,33.7627305 13.7683398,34 14.094793,34 C14.0948594,34 14.0949922,34 14.0950586,34 L19.9176914,33.997543 C20.2442109,33.9974102 20.5221875,33.759875 20.5733203,33.4374063 L20.9617305,30.9861523 L24.0978984,29.6857188 L26.1069531,31.1428711 C26.37125,31.3346523 26.7357539,31.3056992 26.9665156,31.0747383 L31.0823086,26.9561562 C31.3131367,26.7251289 31.3417578,26.360625 31.1498437,26.0964609 L29.6917617,24.089332 L30.9903359,20.9509727 L33.4403281,20.5609023 C33.7627969,20.5095703 34.0001328,20.2313945 34,19.904875 L33.9976758,14.0822422 Z M30.4145273,19.6978203 C30.1864219,19.7341445 29.9936445,19.8862812 29.9053242,20.0997109 L28.3225312,23.9249766 C28.2342109,24.1383398 28.2631641,24.3823164 28.3988984,24.5691836 L29.7422305,26.418332 L26.4278945,29.7349258 L24.5768203,28.3923906 C24.3899531,28.2567891 24.1459766,28.228168 23.9325469,28.3164883 L20.1096719,29.9017383 C19.896375,29.9901914 19.7443047,30.1831016 19.7081797,30.411207 L19.3503164,32.6696172 L14.6615703,32.6716094 L14.3021797,30.4144609 C14.2658555,30.1863555 14.1137187,29.9935781 13.9002891,29.9052578 L10.0750234,28.3224648 C9.99327734,28.2885977 9.90701562,28.2719961 9.82121875,28.2719961 C9.68309375,28.2719961 9.54609766,28.3150938 9.43088281,28.398832 L7.58173437,29.7421641 L4.26514062,26.4278281 L5.60767578,24.5767539 C5.74327734,24.3898203 5.77196484,24.1458438 5.68351172,23.9324805 L4.09832812,20.1096055 C4.009875,19.8963086 3.81696484,19.7442383 3.58885937,19.7081133 L1.33038281,19.35025 L1.32845703,14.6615039 L3.58560547,14.3021133 C3.81371094,14.2657891 4.00648828,14.1136523 4.09480859,13.9002227 L5.67760156,10.074957 C5.76592187,9.86159375 5.73696875,9.61761719 5.60123437,9.43075 L4.25790234,7.58160156 L7.57223828,4.26500781 L9.4233125,5.60754297 C9.6103125,5.74314453 9.85422266,5.77196484 10.0675859,5.68344531 L13.8904609,4.09819531 C14.1037578,4.00974219 14.2558281,3.81676562 14.2919531,3.58872656 L14.64975,1.33025 L19.3385625,1.32832422 L19.6979531,3.58547266 C19.7342773,3.81357812 19.8864141,4.00635547 20.0998437,4.09467578 L23.9251094,5.67746875 C24.1384727,5.76565625 24.3824492,5.73683594 24.5693164,5.60110156 L26.4184648,4.25776953 L29.7350586,7.57210547 L28.3925234,9.42317969 C28.2569219,9.61011328 28.2282344,9.85408984 28.3166875,10.0674531 L29.9018711,13.8903281 C29.9903242,14.103625 30.1832344,14.2556953 30.4113398,14.2918203 L32.6698164,14.6496836 L32.6717422,19.3384297 L30.4145273,19.6978203 Z" id="Shape"></path>
                <path d="M23.0497422,17.8272891 C22.2191992,17.0727148 21.103043,16.745 20.0012305,16.9164609 L17.0848672,14.0000977 C17.2622383,12.8448945 16.8812656,11.6560898 16.046207,10.8209648 C14.9992461,9.77400391 13.433918,9.45332813 12.0583789,10.0039023 C11.851125,10.0868437 11.6994531,10.268332 11.6546289,10.4869414 C11.6097383,10.7055508 11.6777383,10.9321289 11.8355859,11.0899766 L12.7984766,12.0528672 C13.0022773,12.256668 13.0022773,12.5883008 12.7984766,12.792168 C12.5946758,12.9960352 12.263043,12.9960352 12.0591758,12.792168 L11.0929648,11.8258906 C10.9354492,11.668375 10.709668,11.6002422 10.4912578,11.644668 C10.2729805,11.6889609 10.0914258,11.8397695 10.0078867,12.0462266 C9.42889063,13.4760859 9.80773828,15.1343164 10.9505234,16.1725781 C11.7819297,16.928082 12.8989492,17.2557305 14.001957,17.0830742 L16.9156641,19.9968477 C16.7371641,21.1529805 17.1179375,22.3429141 17.9539258,23.1789688 C18.6613516,23.8863945 19.6039219,24.2621211 20.5652188,24.2620547 C21.031457,24.2620547 21.5022773,24.1736016 21.9525117,23.9917148 C22.1591016,23.9083086 22.3101094,23.7267539 22.3545352,23.5084102 C22.3989609,23.2900664 22.3309609,23.0640195 22.1733789,22.9064375 L21.2148711,21.9478633 C21.0110703,21.7440625 21.0110703,21.4124297 21.2148711,21.2085625 C21.4186719,21.0046953 21.7503047,21.0046953 21.9541719,21.2085625 L22.9107539,22.1651445 C23.0684688,22.3228594 23.2949141,22.3909922 23.5135234,22.346168 C23.7321328,22.3014102 23.9135547,22.1499375 23.9966289,21.9428828 C24.5691836,20.5159453 24.1886758,18.8620313 23.0497422,17.8272891 Z M22.8932227,20.2695117 C22.1715195,19.547875 20.9972578,19.5478086 20.2756211,20.2695117 C19.5539844,20.9912148 19.5539844,22.1654102 20.2756211,22.8870469 L20.3080273,22.9195195 C19.7836836,22.8620117 19.282582,22.629457 18.8929766,22.2398516 C18.2972461,21.6441211 18.0623672,20.7674922 18.2801133,19.9520234 C18.3412734,19.7229883 18.2757305,19.4788125 18.1081211,19.3112031 L14.6874023,15.8904844 C14.5612305,15.7643125 14.3916289,15.6959805 14.2177773,15.6959805 C14.1610664,15.6959805 14.1038242,15.7032188 14.0475781,15.7181602 C13.2611289,15.9270078 12.4371602,15.72925 11.8434219,15.1897656 C11.407332,14.7933867 11.1446953,14.256293 11.0818086,13.693168 L11.1199922,13.7313516 C11.8416953,14.4529883 13.0158906,14.4530547 13.7375938,13.7313516 C14.4592305,13.0096484 14.4592305,11.8354531 13.7375938,11.1138164 L13.7061836,11.0824063 C14.2254805,11.1425703 14.7213359,11.3743945 15.1070234,11.7602148 C15.7020898,12.3552813 15.9371016,13.2311133 15.720418,14.045918 C15.6595234,14.2747539 15.7251328,14.5187305 15.8926094,14.686207 L19.3153203,18.108918 C19.4825312,18.2760625 19.7258437,18.3418047 19.9545469,18.281375 C20.7401992,18.0737891 21.5634375,18.2715469 22.1565781,18.8103672 C22.5886836,19.2029609 22.8505898,19.734543 22.916332,20.2926211 L22.8932227,20.2695117 Z" id="Shape"></path>
                <path d="M23.0657461,12.2578633 C21.9713047,10.8598125 20.4197891,9.87640234 18.6968789,9.48872266 C18.3392148,9.40817187 17.9837422,9.63295703 17.9032578,9.99082031 C17.8227734,10.3486836 18.0474922,10.703957 18.4053555,10.7844414 C19.8302344,11.1050508 21.1139336,11.9190586 22.0199805,13.0765859 C22.151,13.2439297 22.346168,13.3313203 22.5433281,13.3313203 C22.6865,13.3313203 22.8307344,13.2852344 22.9521914,13.1901406 C23.2409922,12.9640937 23.2918594,12.5466641 23.0657461,12.2578633 Z" id="Shape"></path>
                <path d="M24.3344375,14.6524727 L24.3247422,14.622457 C24.2120508,14.2734258 23.8378516,14.082043 23.4887539,14.1946016 C23.1397227,14.307293 22.9481406,14.6815586 23.0608984,15.0305898 L23.069332,15.0566211 C23.1594453,15.3387812 23.4206211,15.5188086 23.7017187,15.5188086 C23.7686562,15.5188086 23.8367891,15.508582 23.9039258,15.4871328 C24.2532891,15.3755039 24.4460664,15.0018359 24.3344375,14.6524727 Z" id="Shape"></path>
            </g>
        </g>
    </g>
</svg>