<?xml version="1.0" encoding="UTF-8"?>
<svg width="64px" height="55px" viewBox="0 0 64 55" version="1.1" xmlns="http://www.w3.org/2000/svg" xmlns:xlink="http://www.w3.org/1999/xlink">
    <!-- Generator: Sketch 52.6 (67491) - http://www.bohemiancoding.com/sketch -->
    <title>Group</title>
    <desc>Created with Sketch.</desc>
    <g id="Page-1" stroke="none" stroke-width="1" fill="none" fill-rule="evenodd">
        <g id="How-we-work_2560" transform="translate(-521.000000, -334.000000)" fill="#FF7300" fill-rule="nonzero">
            <g id="Group" transform="translate(521.000000, 334.000000)">
                <path d="M55.25,23 C54.5600586,23 54,23.5600586 54,24.25 C54,24.9399414 54.5600586,25.5 55.25,25.5 C55.9399414,25.5 56.5,24.9399414 56.5,24.25 C56.5,23.5600586 55.9399414,23 55.25,23 Z" id="Shape"></path>
                <path d="M34.25,10.5 C34.9399414,10.5 35.5,9.93994138 35.5,9.25 C35.5,8.56005862 34.9399414,8 34.25,8 C33.5600586,8 33,8.56005862 33,9.25 C33,9.93994138 33.5600586,10.5 34.25,10.5 Z" id="Shape"></path>
                <path d="M60.25,15 L43.25,15 L43.25,3.75 C43.25,1.68212887 41.5678711,-2.13162821e-14 39.5,-2.13162821e-14 L3.75,-2.13162821e-14 C1.68212888,-2.13162821e-14 0,1.68212887 0,3.75 L0,28.75 C0,30.8178711 1.68212888,32.5 3.75,32.5 L7.5,32.5 L7.5,38.75 C7.5,39.8696289 8.85302737,40.4145507 9.633789,39.633789 L16.7675781,32.5 L20.75,32.5 L20.75,43.75 C20.75,45.8178711 22.4321289,47.5 24.5,47.5 L47.2324219,47.5 L54.366211,54.633789 C55.1479492,55.4155274 56.5,54.8671875 56.5,53.75 L56.5,47.5 L60.25,47.5 C62.3178711,47.5 64,45.8178711 64,43.75 L64,18.75 C64,16.6821289 62.3178711,15 60.25,15 Z M8.75,17.4985351 L20.9648438,17.4985351 C20.8261719,17.8901368 20.75,18.3105469 20.75,18.7485351 L20.75,22.5 L8.75,22.5 C8.05957025,22.5 7.5,23.0595703 7.5,23.75 C7.5,24.4404298 8.05957025,25 8.75,25 L20.75,25 L20.75,30 L16.25,30 C15.918457,30 15.600586,30.131836 15.366211,30.366211 L10,35.7319336 L10,31.25 C10,30.5595703 9.44042975,30 8.75,30 L3.75,30 C3.06054688,30 2.5,29.4394531 2.5,28.75 L2.5,3.75 C2.5,3.06054687 3.06054688,2.5 3.75,2.5 L39.5,2.5 C40.1894531,2.5 40.75,3.06054687 40.75,3.75 L40.75,15 C38.991211,15 10.5112305,15 8.75,15 C8.05957025,15 7.5,15.5595702 7.5,16.25 C7.5,16.9404297 8.05957025,17.4985351 8.75,17.4985351 Z M61.5,43.75 C61.5,44.4394531 60.9394531,45 60.25,45 L55.25,45 C54.5595703,45 54,45.5595702 54,46.25 L54,50.7319336 L48.633789,45.366211 C48.399414,45.131836 48.081543,45 47.75,45 L24.5,45 C23.8105469,45 23.25,44.4389649 23.25,43.75 L23.25,18.75 C23.25,18.0605469 23.8105469,17.5 24.5,17.5 L60.25,17.5 C60.9394531,17.5 61.5,18.0605469 61.5,18.75 L61.5,43.75 Z" id="Shape"></path>
                <path d="M9.25,10.5 L30,10.5 C30.6904297,10.5 31.25,9.94042975 31.25,9.25 C31.25,8.55957025 30.6904297,8 30,8 L9.25,8 C8.55957025,8 8,8.55957025 8,9.25 C8,9.94042975 8.55957025,10.5 9.25,10.5 Z" id="Shape"></path>
                <path d="M29.25,25.5 L50,25.5 C50.6904297,25.5 51.25,24.9404297 51.25,24.25 C51.25,23.5595703 50.6904297,23 50,23 L29.25,23 C28.5595703,23 28,23.5595703 28,24.25 C28,24.9404297 28.5595703,25.5 29.25,25.5 Z" id="Shape"></path>
                <path d="M55,30 L29.25,30 C28.5595702,30 28,30.5595703 28,31.25 C28,31.9404297 28.5595702,32.5 29.25,32.5 L55,32.5 C55.6904298,32.5 56.25,31.9404297 56.25,31.25 C56.25,30.5595703 55.6904298,30 55,30 Z" id="Shape"></path>
                <path d="M55,38 L29.25,38 C28.5595702,38 28,38.5595703 28,39.25 C28,39.9404297 28.5595702,40.5 29.25,40.5 L55,40.5 C55.6904298,40.5 56.25,39.9404297 56.25,39.25 C56.25,38.5595703 55.6904298,38 55,38 Z" id="Shape"></path>
            </g>
        </g>
    </g>
</svg>