<?xml version="1.0" encoding="UTF-8"?>
<svg width="80px" height="82px" viewBox="0 0 80 82" version="1.1" xmlns="http://www.w3.org/2000/svg" xmlns:xlink="http://www.w3.org/1999/xlink">
    <!-- Generator: Sketch 52.6 (67491) - http://www.bohemiancoding.com/sketch -->
    <title>meeting</title>
    <desc>Created with Sketch.</desc>
    <g id="Page-1" stroke="none" stroke-width="1" fill="none" fill-rule="evenodd">
        <g id="Pricing_2560" transform="translate(-1832.000000, -669.000000)" fill="#FF7300">
            <g id="meeting" transform="translate(1832.000000, 669.000000)">
                <path d="M74.4013333,28.108 C76.2013333,26.4053333 77.3333333,24.0013333 77.3333333,21.3333333 C77.3333333,16.1866667 73.1466667,12 68,12 C62.8533333,12 58.6666667,16.1866667 58.6666667,21.3333333 C58.6666667,24.608 60.3653333,27.4893333 62.924,29.1546667 C61.1613333,30.356 60,32.3773333 60,34.6666667 L60,44 L54.6666667,44 L54.6666667,37.3333333 C54.6666667,32.5626667 51.0666667,28.6213333 46.44,28.072 C48.2186667,26.372 49.3333333,23.9826667 49.3333333,21.3333333 C49.3333333,16.1866667 45.1466667,12 40,12 C34.8533333,12 30.6666667,16.1866667 30.6666667,21.3333333 C30.6666667,23.9826667 31.7813333,26.372 33.56,28.072 C28.9333333,28.6213333 25.3333333,32.5626667 25.3333333,37.3333333 L25.3333333,44 L20,44 L20,34.6666667 C20,32.3773333 18.8386667,30.356 17.076,29.1546667 C19.6346667,27.4893333 21.3333333,24.608 21.3333333,21.3333333 C21.3333333,16.1866667 17.1466667,12 12,12 C6.85333333,12 2.66666667,16.1866667 2.66666667,21.3333333 C2.66666667,24.0013333 3.79866667,26.4053333 5.59866667,28.108 C2.432,28.6226667 0,31.356 0,34.6666667 L0,54.6666667 C0,57.8853333 2.29466667,60.5786667 5.33333333,61.1986667 L5.33333333,81.3333333 L8,81.3333333 L8,61.3333333 L20,61.3333333 L20,80 C20,80.736 20.5973333,81.3333333 21.3333333,81.3333333 L29.3333333,81.3333333 C30.0693333,81.3333333 30.6666667,80.736 30.6666667,80 L30.6666667,58.6666667 L38.6666667,58.6666667 L38.6666667,78.6666667 L33.3333333,78.6666667 L33.3333333,81.3333333 L46.6666667,81.3333333 L46.6666667,78.6666667 L41.3333333,78.6666667 L41.3333333,58.6666667 L49.3333333,58.6666667 L49.3333333,80 C49.3333333,80.736 49.9306667,81.3333333 50.6666667,81.3333333 L58.6666667,81.3333333 C59.4026667,81.3333333 60,80.736 60,80 L60,61.3333333 L72,61.3333333 L72,81.3333333 L74.6666667,81.3333333 L74.6666667,61.1986667 C77.7053333,60.5786667 80,57.8866667 80,54.6666667 L80,34.6666667 C80,31.356 77.568,28.6226667 74.4013333,28.108 Z M61.3333333,21.3333333 C61.3333333,17.6573333 64.324,14.6666667 68,14.6666667 C71.676,14.6666667 74.6666667,17.6573333 74.6666667,21.3333333 C74.6666667,25.0093333 71.676,28 68,28 C64.324,28 61.3333333,25.0093333 61.3333333,21.3333333 Z M33.3333333,21.3333333 C33.3333333,17.6573333 36.324,14.6666667 40,14.6666667 C43.676,14.6666667 46.6666667,17.6573333 46.6666667,21.3333333 C46.6666667,25.0093333 43.676,28 40,28 C36.324,28 33.3333333,25.0093333 33.3333333,21.3333333 Z M42.076,30.6666667 L40,36.2026667 L37.924,30.6666667 L42.076,30.6666667 Z M28,37.3333333 C28,33.6573333 30.9906667,30.6666667 34.6666667,30.6666667 L35.076,30.6666667 L38.752,40.468 C38.9466667,40.988 39.444,41.3333333 40,41.3333333 C40.556,41.3333333 41.0533333,40.988 41.2493333,40.468 L44.924,30.6666667 L45.3333333,30.6666667 C49.0093333,30.6666667 52,33.6573333 52,37.3333333 L52,44 L46.6666667,44 C45.9306667,44 45.3333333,44.5973333 45.3333333,45.3333333 L45.3333333,50.6666667 L34.6666667,50.6666667 L34.6666667,45.3333333 C34.6666667,44.5973333 34.0693333,44 33.3333333,44 L28,44 L28,37.3333333 Z M5.33333333,21.3333333 C5.33333333,17.6573333 8.324,14.6666667 12,14.6666667 C15.676,14.6666667 18.6666667,17.6573333 18.6666667,21.3333333 C18.6666667,25.0093333 15.676,28 12,28 C8.324,28 5.33333333,25.0093333 5.33333333,21.3333333 Z M28,78.6666667 L22.6666667,78.6666667 L22.6666667,60 C22.6666667,59.264 22.0693333,58.6666667 21.3333333,58.6666667 L6.66666667,58.6666667 C4.46133333,58.6666667 2.66666667,56.872 2.66666667,54.6666667 L2.66666667,34.6666667 C2.66666667,32.4613333 4.46133333,30.6666667 6.66666667,30.6666667 L13.3333333,30.6666667 C15.5386667,30.6666667 17.3333333,32.4613333 17.3333333,34.6666667 L17.3333333,45.3333333 C17.3333333,46.0693333 17.9306667,46.6666667 18.6666667,46.6666667 L32,46.6666667 L32,50.6666667 L13.3333333,50.6666667 L13.3333333,38.6666667 L10.6666667,38.6666667 L10.6666667,52 C10.6666667,52.736 11.264,53.3333333 12,53.3333333 L24,53.3333333 C26.2053333,53.3333333 28,55.128 28,57.3333333 L28,78.6666667 Z M49.4826667,56 L30.5173333,56 C30.316,55.0173333 29.912,54.108 29.3306667,53.3333333 L33.3333333,53.3333333 L46.6666667,53.3333333 L50.6693333,53.3333333 C50.088,54.108 49.684,55.0173333 49.4826667,56 Z M77.3333333,54.6666667 C77.3333333,56.872 75.5386667,58.6666667 73.3333333,58.6666667 L58.6666667,58.6666667 C57.9306667,58.6666667 57.3333333,59.264 57.3333333,60 L57.3333333,78.6666667 L52,78.6666667 L52,57.3333333 C52,55.128 53.7946667,53.3333333 56,53.3333333 L68,53.3333333 C68.736,53.3333333 69.3333333,52.736 69.3333333,52 L69.3333333,38.6666667 L66.6666667,38.6666667 L66.6666667,50.6666667 L48,50.6666667 L48,46.6666667 L61.3333333,46.6666667 C62.0693333,46.6666667 62.6666667,46.0693333 62.6666667,45.3333333 L62.6666667,34.6666667 C62.6666667,32.4613333 64.4613333,30.6666667 66.6666667,30.6666667 L73.3333333,30.6666667 C75.5386667,30.6666667 77.3333333,32.4613333 77.3333333,34.6666667 L77.3333333,54.6666667 Z" id="Shape" fill-rule="nonzero"></path>
                <rect id="Rectangle" x="38.6666667" y="44" width="2.66666667" height="2.66666667"></rect>
                <path d="M33.3333333,0 L14.6666667,0 C13.9306667,0 13.3333333,0.597333333 13.3333333,1.33333333 L13.3333333,8 C13.3333333,8.736 13.9306667,9.33333333 14.6666667,9.33333333 L20,9.33333333 L20,12 C20,12.5053333 20.2853333,12.9666667 20.7373333,13.1933333 C20.9253333,13.2866667 21.1306667,13.3333333 21.3333333,13.3333333 C21.616,13.3333333 21.8973333,13.2426667 22.1333333,13.0666667 L27.1106667,9.33333333 L33.3333333,9.33333333 C34.0693333,9.33333333 34.6666667,8.736 34.6666667,8 L34.6666667,1.33333333 C34.6666667,0.597333333 34.0693333,0 33.3333333,0 Z M32,6.66666667 L26.6666667,6.66666667 C26.3786667,6.66666667 26.0973333,6.76 25.8666667,6.93333333 L22.6666667,9.33333333 L22.6666667,8 C22.6666667,7.264 22.0693333,6.66666667 21.3333333,6.66666667 L16,6.66666667 L16,2.66666667 L32,2.66666667 L32,6.66666667 Z" id="Shape" fill-rule="nonzero"></path>
                <rect id="Rectangle" x="46.6666667" y="4" width="2.66666667" height="2.66666667"></rect>
                <rect id="Rectangle" x="52" y="4" width="2.66666667" height="2.66666667"></rect>
                <rect id="Rectangle" x="57.3333333" y="4" width="2.66666667" height="2.66666667"></rect>
            </g>
        </g>
    </g>
</svg>