<?xml version="1.0" encoding="UTF-8"?>
<svg width="75px" height="92px" viewBox="0 0 75 92" version="1.1" xmlns="http://www.w3.org/2000/svg" xmlns:xlink="http://www.w3.org/1999/xlink">
    <!-- Generator: Sketch 52.6 (67491) - http://www.bohemiancoding.com/sketch -->
    <title>productivity</title>
    <desc>Created with Sketch.</desc>
    <g id="Page-1" stroke="none" stroke-width="1" fill="none" fill-rule="evenodd">
        <g id="Pricing_2560" transform="translate(-1047.000000, -668.000000)" fill="#FF7300">
            <g id="productivity" transform="translate(1047.806452, 668.000000)">
                <path d="M74.1935484,46 C74.1935484,37.9097151 71.5837325,30.4237022 67.1719695,24.3208481 L73.8211316,17.6716861 L65.4265373,9.27709173 L58.7773753,15.9262537 C53.8113344,12.3354019 47.9272933,9.94657258 41.5483871,9.17927793 L41.5483871,2.96774194 L44.516129,2.96774194 L44.516129,0 L29.6774194,0 L29.6774194,2.96774194 L32.6451613,2.96774194 L32.6451613,9.17927793 C26.266255,9.94657258 20.382214,12.3354019 15.4176223,15.9248047 L8.76846027,9.27564255 L0.373865927,17.6702369 L7.02302793,24.3193989 C2.60981594,30.4237022 8.52651283e-14,37.9097151 8.52651283e-14,46 C8.52651283e-14,60.3373236 8.32431321,73.413212 21.2538433,79.5327305 C22.9927546,86.6745841 29.4267264,92 37.0967742,92 C40.8520981,92 44.5204764,90.6900202 47.4259073,88.3127836 L45.5442604,86.0166962 C43.169922,87.9606539 40.1681263,89.0322581 37.0967742,89.0322581 C29.7324849,89.0322581 23.7419355,83.0417087 23.7419355,75.6774194 C23.7419355,72.6060672 24.8135396,69.6042716 26.7574974,67.2299332 L24.46141,65.3482863 C23.3753151,66.6763797 22.5239731,68.1689453 21.9066596,69.75063 C20.5988534,68.9137789 19.38234,67.9704197 18.2469758,66.9480847 L21.3574533,63.8376072 L19.259167,61.7393209 L16.1414441,64.8570438 C11.8782131,60.1134388 9.29665453,53.9982674 8.95394415,47.483871 L13.3548387,47.483871 L13.3548387,44.516129 L8.97857863,44.516129 C9.32780989,37.8626197 11.9825478,31.8242503 16.1711505,27.1726626 L19.2606162,30.2621283 L21.3589025,28.163842 L18.2694368,25.0743763 C22.9210245,20.8843246 28.9593939,18.2310357 35.6129032,17.8818044 L35.6129032,22.2580645 L38.5806452,22.2580645 L38.5806452,17.8818044 C45.2341545,18.2310357 51.2725239,20.8857736 55.9241116,25.0743763 L52.8346459,28.163842 L54.9329322,30.2621283 L58.0223979,27.1726626 C62.2124496,31.8242503 64.8657385,37.8626197 65.2149698,44.516129 L60.8387097,44.516129 L60.8387097,47.483871 L65.2396042,47.483871 C64.8968939,53.9982674 62.3153353,60.1134388 58.0521042,64.8570438 L54.9343813,61.7393209 L52.8360951,63.8376072 L55.9465726,66.9480847 C54.8112084,67.9704197 53.5961442,68.9137789 52.288338,69.75063 C49.9096522,63.6760333 44.0038747,59.3548387 37.0967742,59.3548387 C33.3414503,59.3548387 29.673072,60.6648185 26.7676411,63.0420551 L28.649288,65.3381425 C31.0236264,63.3941848 34.0254221,62.3225806 37.0967742,62.3225806 C44.4610635,62.3225806 50.4516129,68.31313 50.4516129,75.6774194 C50.4516129,78.7487715 49.3800088,81.7505671 47.436051,84.1249055 L49.7321384,86.0065524 C51.2841166,84.1104146 52.3716607,81.8875063 52.9462261,79.5283834 C65.8721334,73.4059664 74.1935484,60.3387728 74.1935484,46 Z M65.4265373,13.4722151 L69.6245591,17.6702369 L65.3243763,21.9704197 C64.037582,20.4626385 62.6341357,19.0591922 61.1263545,17.7723979 L65.4265373,13.4722151 Z M35.6129032,2.96774194 L38.5806452,2.96774194 L38.5806452,8.94017772 C38.0879536,8.92133942 37.5938131,8.90322581 37.0967742,8.90322581 C36.5997353,8.90322581 36.1055948,8.92133942 35.6129032,8.94017772 L35.6129032,2.96774194 Z M4.56898932,17.6702369 L8.76701109,13.4722151 L13.0671938,17.7723979 C11.5594127,19.0591922 10.1559664,20.4626385 8.86917208,21.9704197 L4.56898932,17.6702369 Z M53.4063131,75.984627 C53.4077621,75.882466 53.4193548,75.7795803 53.4193548,75.6774194 C53.4193548,74.6608807 53.3142957,73.6682523 53.1346082,72.703881 C62.4841545,67.0756048 68.2580645,56.9536921 68.2580645,46 C68.2580645,28.8181075 54.2786667,14.8387097 37.0967742,14.8387097 C19.9148816,14.8387097 5.93548387,28.8181075 5.93548387,46 C5.93548387,56.9551411 11.7079449,67.0741558 21.0574912,72.6995337 C20.8749055,73.6783959 20.7741935,74.6746472 20.7741935,75.6774194 C20.7741935,75.7810295 20.7872353,75.882466 20.7886845,75.986076 C9.88571069,70.0476941 2.96774194,58.5418978 2.96774194,46 C2.96774194,27.179908 18.2766822,11.8709677 37.0967742,11.8709677 C55.9168662,11.8709677 71.2258065,27.179908 71.2258065,46 C71.2258065,58.5447958 64.3092869,70.0433468 53.4063131,75.984627 Z" id="Shape" fill-rule="nonzero"></path>
                <path d="M35.6129032,25.2258065 L35.6129032,41.821541 C33.889932,42.4359564 32.6451613,44.0683595 32.6451613,46 C32.6451613,48.4540386 34.6427356,50.4516129 37.0967742,50.4516129 C39.0284147,50.4516129 40.6608178,49.2068421 41.2752332,47.483871 L51.9354839,47.483871 L51.9354839,44.516129 L41.2752332,44.516129 C40.8274634,43.259041 39.8377332,42.2693108 38.5806452,41.821541 L38.5806452,25.2258065 L35.6129032,25.2258065 Z M37.0967742,47.483871 C36.2780369,47.483871 35.6129032,46.8187373 35.6129032,46 C35.6129032,45.1812627 36.2780369,44.516129 37.0967742,44.516129 C37.9155115,44.516129 38.5806452,45.1812627 38.5806452,46 C38.5806452,46.8187373 37.9155115,47.483871 37.0967742,47.483871 Z" id="Shape" fill-rule="nonzero"></path>
                <path d="M34.1290323,69.7419355 L40.0645161,69.7419355 C40.8832534,69.7419355 41.5483871,70.4070691 41.5483871,71.2258065 L44.516129,71.2258065 C44.516129,68.7717678 42.5185547,66.7741935 40.0645161,66.7741935 L38.5806452,66.7741935 L38.5806452,65.2903226 L35.6129032,65.2903226 L35.6129032,66.7741935 L34.1290323,66.7741935 C31.6749937,66.7741935 29.6774194,68.7717678 29.6774194,71.2258065 L29.6774194,72.7096774 C29.6774194,75.163716 31.6749937,77.1612903 34.1290323,77.1612903 L40.0645161,77.1612903 C40.8832534,77.1612903 41.5483871,77.826424 41.5483871,78.6451613 L41.5483871,80.1290323 C41.5483871,80.9477696 40.8832534,81.6129032 40.0645161,81.6129032 L34.1290323,81.6129032 C33.310295,81.6129032 32.6451613,80.9477696 32.6451613,80.1290323 L29.6774194,80.1290323 C29.6774194,82.5830709 31.6749937,84.5806452 34.1290323,84.5806452 L35.6129032,84.5806452 L35.6129032,86.0645161 L38.5806452,86.0645161 L38.5806452,84.5806452 L40.0645161,84.5806452 C42.5185547,84.5806452 44.516129,82.5830709 44.516129,80.1290323 L44.516129,78.6451613 C44.516129,76.1911227 42.5185547,74.1935484 40.0645161,74.1935484 L34.1290323,74.1935484 C33.310295,74.1935484 32.6451613,73.5284147 32.6451613,72.7096774 L32.6451613,71.2258065 C32.6451613,70.4070691 33.310295,69.7419355 34.1290323,69.7419355 Z" id="Path"></path>
            </g>
        </g>
    </g>
</svg>