<?xml version="1.0" encoding="UTF-8"?>
<svg width="32px" height="28px" viewBox="0 0 32 28" version="1.1" xmlns="http://www.w3.org/2000/svg" xmlns:xlink="http://www.w3.org/1999/xlink">
    <!-- Generator: Sketch 52.6 (67491) - http://www.bohemiancoding.com/sketch -->
    <title>XMLID_497_</title>
    <desc>Created with Sketch.</desc>
    <g id="Page-1" stroke="none" stroke-width="1" fill="none" fill-rule="evenodd">
        <g id="Novator_2560" transform="translate(-2498.000000, -1381.000000)" fill="#FF7300" fill-rule="nonzero">
            <g id="Footer" transform="translate(0.000000, 1350.000000)">
                <path d="M2498.56521,44.3594094 L2505.93865,47.1114094 L2508.79263,56.2897561 C2508.97524,56.8775961 2509.69407,57.0948761 2510.17119,56.7047961 L2514.28127,53.3541828 C2514.71209,53.0031428 2515.32575,52.9856494 2515.77599,53.3124761 L2523.18911,58.6945561 C2523.69951,59.0655428 2524.4226,58.7858628 2524.5506,58.1691161 L2529.98111,32.0474094 C2530.12084,31.3737028 2529.45887,30.8116761 2528.81737,31.0597828 L2498.55657,42.7334894 C2497.8098,43.0214894 2497.81631,44.0787694 2498.56521,44.3594094 Z M2508.33268,45.6464494 L2522.74313,36.7710361 C2523.00212,36.6119961 2523.26857,36.9621828 2523.04617,37.1684761 L2511.15337,48.2234094 C2510.73535,48.6125294 2510.46569,49.1332761 2510.38932,49.6985028 L2509.9842,52.7007428 C2509.93055,53.1015961 2509.36745,53.1413828 2509.25684,52.7534361 L2507.69876,47.2787694 C2507.52031,46.6543428 2507.78036,45.9873561 2508.33268,45.6464494 Z" id="XMLID_497_"></path>
            </g>
        </g>
    </g>
</svg>