<?xml version="1.0" encoding="UTF-8"?>
<svg width="197px" height="32px" viewBox="0 0 197 32" version="1.1" xmlns="http://www.w3.org/2000/svg" xmlns:xlink="http://www.w3.org/1999/xlink">
    <!-- Generator: Sketch 52.6 (67491) - http://www.bohemiancoding.com/sketch -->
    <title>Group 51</title>
    <desc>Created with Sketch.</desc>
    <g id="Page-1" stroke="none" stroke-width="1" fill="none" fill-rule="evenodd">
        <g id="Portfolio-Eaist" transform="translate(-29.000000, -29.000000)" fill="#000000" fill-rule="nonzero">
            <g id="Menu">
                <g id="Group-51" transform="translate(30.000000, 30.000000)">
                    <path d="M111.753514,2.22491429 C111.25701,2.22491429 110.854514,1.82241828 110.854514,1.32591429 C110.854514,0.829410296 111.25701,0.426914286 111.753514,0.426914286 L121.906371,0.426914286 C123.413216,0.426914286 124.634514,1.64860792 124.634514,3.15505714 L124.634514,28.8102 C124.634514,29.306704 124.232018,29.7092 123.735514,29.7092 C123.23901,29.7092 122.836514,29.306704 122.836514,28.8102 L122.836514,3.15505714 C122.836514,2.64148565 122.420078,2.22491429 121.906371,2.22491429 L111.753514,2.22491429 Z" id="Stroke-1"></path>
                    <path d="M98.6201143,29.7091143 C98.1236103,29.7091143 97.7211143,29.3066183 97.7211143,28.8101143 C97.7211143,28.3136103 98.1236103,27.9111143 98.6201143,27.9111143 L115.285543,27.9111143 C115.782047,27.9111143 116.184543,28.3136103 116.184543,28.8101143 C116.184543,29.3066183 115.782047,29.7091143 115.285543,29.7091143 L98.6201143,29.7091143 Z" id="Stroke-3"></path>
                    <path d="M135.718714,0.426914286 C136.215218,0.426914286 136.617714,0.829410296 136.617714,1.32591429 C136.617714,1.82241828 136.215218,2.22491429 135.718714,2.22491429 L125.565857,2.22491429 C125.051857,2.22491429 124.634857,2.64177943 124.634857,3.15505714 L124.634857,28.8102 C124.634857,29.306704 124.232361,29.7092 123.735857,29.7092 C123.239353,29.7092 122.836857,29.306704 122.836857,28.8102 L122.836857,3.15505714 C122.836857,1.64864119 124.058979,0.426914286 125.565857,0.426914286 L135.718714,0.426914286 Z" id="Stroke-5"></path>
                    <path d="M152.180229,28.4134 C152.676733,28.4134 153.079229,28.815896 153.079229,29.3124 C153.079229,29.808904 152.676733,30.2114 152.180229,30.2114 C143.268963,30.2114 137.539514,24.909994 137.539514,15.0418286 C137.539514,5.1729487 143.26885,-0.1286 152.180229,-0.1286 C152.676733,-0.1286 153.079229,0.27389601 153.079229,0.7704 C153.079229,1.26690399 152.676733,1.6694 152.180229,1.6694 C144.232032,1.6694 139.337514,6.19846284 139.337514,15.0418286 C139.337514,23.8844596 144.232127,28.4134 152.180229,28.4134 Z" id="Stroke-7"></path>
                    <path d="M152.174829,30.2114 C151.678325,30.2114 151.275829,29.808904 151.275829,29.3124 C151.275829,28.815896 151.678325,28.4134 152.174829,28.4134 C160.12293,28.4134 165.017543,23.8844596 165.017543,15.0418286 C165.017543,6.19846284 160.123026,1.6694 152.174829,1.6694 C151.678325,1.6694 151.275829,1.26690399 151.275829,0.7704 C151.275829,0.27389601 151.678325,-0.1286 152.174829,-0.1286 C161.086207,-0.1286 166.815543,5.1729487 166.815543,15.0418286 C166.815543,24.909994 161.086094,30.2114 152.174829,30.2114 Z" id="Stroke-9"></path>
                    <path d="M193.663771,10.2601714 C193.663771,9.76366744 194.066267,9.36117143 194.562771,9.36117143 C195.059275,9.36117143 195.461771,9.76366744 195.461771,10.2601714 C195.461771,16.1533689 191.919906,19.9808857 185.400771,19.9808857 L172.583914,19.9808857 C172.08741,19.9808857 171.684914,19.5783897 171.684914,19.0818857 C171.684914,18.5853817 172.08741,18.1828857 172.583914,18.1828857 L185.400771,18.1828857 C190.894408,18.1828857 193.663771,15.1901735 193.663771,10.2601714 Z" id="Stroke-11"></path>
                    <path d="M173.482914,2.3408 L173.482914,28.8103714 C173.482914,29.3068754 173.080418,29.7093714 172.583914,29.7093714 C172.08741,29.7093714 171.684914,29.3068754 171.684914,28.8103714 L171.684914,1.4418 C171.684914,0.94529601 172.08741,0.5428 172.583914,0.5428 L185.400771,0.5428 C191.920165,0.5428 195.461771,4.36977964 195.461771,10.2635143 C195.461771,10.7600183 195.059275,11.1625143 194.562771,11.1625143 C194.066267,11.1625143 193.663771,10.7600183 193.663771,10.2635143 C193.663771,5.33299958 190.894696,2.3408 185.400771,2.3408 L173.482914,2.3408 Z" id="Stroke-13"></path>
                    <path d="M48.5316857,28.4134 C49.0281897,28.4134 49.4306857,28.815896 49.4306857,29.3124 C49.4306857,29.808904 49.0281897,30.2114 48.5316857,30.2114 C39.6204198,30.2114 33.8909714,24.909994 33.8909714,15.0418286 C33.8909714,5.1729487 39.6203072,-0.1286 48.5316857,-0.1286 C49.0281897,-0.1286 49.4306857,0.27389601 49.4306857,0.7704 C49.4306857,1.26690399 49.0281897,1.6694 48.5316857,1.6694 C40.5834887,1.6694 35.6889714,6.19846284 35.6889714,15.0418286 C35.6889714,23.8844596 40.5835843,28.4134 48.5316857,28.4134 Z" id="Stroke-15"></path>
                    <path d="M48.5262,30.2114 C48.029696,30.2114 47.6272,29.808904 47.6272,29.3124 C47.6272,28.815896 48.029696,28.4134 48.5262,28.4134 C56.4743014,28.4134 61.3689143,23.8844596 61.3689143,15.0418286 C61.3689143,6.19846284 56.474397,1.6694 48.5262,1.6694 C48.029696,1.6694 47.6272,1.26690399 47.6272,0.7704 C47.6272,0.27389601 48.029696,-0.1286 48.5262,-0.1286 C57.4375785,-0.1286 63.1669143,5.1729487 63.1669143,15.0418286 C63.1669143,24.909994 57.4374659,30.2114 48.5262,30.2114 Z" id="Stroke-17"></path>
                    <path d="M104.673958,2.33257418 C104.866657,2.79015859 104.651925,3.31731706 104.19434,3.51001558 C103.736756,3.7027141 103.209597,3.48798166 103.016899,3.03039725 C102.873155,2.68906041 102.537057,2.46191429 102.159429,2.46191429 C101.662925,2.46191429 101.260429,2.05941828 101.260429,1.56291429 C101.260429,1.0664103 101.662925,0.663914286 102.159429,0.663914286 C103.266326,0.663914286 104.251694,1.32985992 104.673958,2.33257418 Z" id="Stroke-19"></path>
                    <path d="M101.301057,3.03131411 C101.107853,3.48868495 100.580457,3.70283376 100.123086,3.50962887 C99.665715,3.31642398 99.4515662,2.78902815 99.6447711,2.33165731 C100.068172,1.32934685 101.05242,0.663914286 102.158914,0.663914286 C102.655418,0.663914286 103.057914,1.0664103 103.057914,1.56291429 C103.057914,2.05941828 102.655418,2.46191429 102.158914,2.46191429 C101.781489,2.46191429 101.445681,2.6889481 101.301057,3.03131411 Z" id="Stroke-21"></path>
                    <path d="M103.021909,3.04206417 C102.822767,2.58724698 103.030033,2.05710832 103.48485,1.85796633 C103.939667,1.65882435 104.469806,1.86609006 104.668948,2.32090725 L116.109234,28.449193 C116.308376,28.9040102 116.10111,29.4341488 115.646293,29.6332908 C115.191476,29.8324328 114.661337,29.6251671 114.462195,29.1703499 L103.021909,3.04206417 Z" id="Stroke-23"></path>
                    <path d="M99.6493949,2.32090725 C99.8485369,1.86609006 100.378676,1.65882435 100.833493,1.85796633 C101.28831,2.05710832 101.495576,2.58724698 101.296434,3.04206417 L89.856148,29.1703499 C89.657006,29.6251671 89.1268673,29.8324328 88.6720501,29.6332908 C88.2172329,29.4341488 88.0099672,28.9040102 88.2091092,28.449193 L99.6493949,2.32090725 Z" id="Stroke-25"></path>
                    <path d="M75.6341508,28.0404703 C75.4411594,27.5830093 75.6555544,27.0557135 76.1130154,26.8627222 C76.5704764,26.6697308 77.0977722,26.8841258 77.2907635,27.3415868 C77.4354043,27.684439 77.771007,27.9114571 78.1484571,27.9114571 C78.6449611,27.9114571 79.0474571,28.3139532 79.0474571,28.8104571 C79.0474571,29.3069611 78.6449611,29.7094571 78.1484571,29.7094571 C77.0416185,29.7094571 76.0573739,29.0436659 75.6341508,28.0404703 Z" id="Stroke-27"></path>
                    <path d="M79.006665,27.3415868 C79.1996564,26.8841258 79.7269522,26.6697308 80.1844132,26.8627222 C80.6418742,27.0557135 80.8562692,27.5830093 80.6632778,28.0404703 C80.2400547,29.0436659 79.2558101,29.7094571 78.1489714,29.7094571 C77.6524674,29.7094571 77.2499714,29.3069611 77.2499714,28.8104571 C77.2499714,28.3139532 77.6524674,27.9114571 78.1489714,27.9114571 C78.5264216,27.9114571 78.8620243,27.684439 79.006665,27.3415868 Z" id="Stroke-29"></path>
                    <path d="M77.2859722,27.3304402 C77.4851196,27.785255 77.2778603,28.3153961 76.8230455,28.5145436 C76.3682307,28.7136911 75.8380896,28.5064318 75.6389421,28.051617 L64.1986564,1.92418839 C63.9995089,1.46937359 64.2067682,0.93923243 64.661583,0.740084963 C65.1163978,0.540937497 65.646539,0.748196818 65.8456865,1.20301161 L77.2859722,27.3304402 Z" id="Stroke-31"></path>
                    <path d="M80.6584865,28.051617 C80.459339,28.5064318 79.9291978,28.7136911 79.474383,28.5145436 C79.0195682,28.3153961 78.8123089,27.785255 79.0114564,27.3304402 L90.4517421,1.20301161 C90.6508896,0.748196818 91.1810307,0.540937497 91.6358455,0.740084963 C92.0906603,0.93923243 92.2979196,1.46937359 92.0987722,1.92418839 L80.6584865,28.051617 Z" id="Stroke-33"></path>
                    <path d="M1.66965714,28.8101143 C1.66965714,29.3066183 1.26716113,29.7091143 0.770657143,29.7091143 C0.274153153,29.7091143 -0.128342857,29.3066183 -0.128342857,28.8101143 L-0.128342857,3.3924 C-0.128342857,2.89589601 0.274153153,2.4934 0.770657143,2.4934 C1.26716113,2.4934 1.66965714,2.89589601 1.66965714,3.3924 L1.66965714,28.8101143 Z" id="Stroke-35"></path>
                    <path d="M1.66965714,3.39257143 C1.66965714,3.88907542 1.26716113,4.29157143 0.770657143,4.29157143 C0.274153153,4.29157143 -0.128342857,3.88907542 -0.128342857,3.39257143 C-0.128342857,1.88572684 1.09335078,0.664428571 2.5998,0.664428571 C3.09630399,0.664428571 3.4988,1.06692458 3.4988,1.56342857 C3.4988,2.05993256 3.09630399,2.46242857 2.5998,2.46242857 C2.0862285,2.46242857 1.66965714,2.87886512 1.66965714,3.39257143 Z" id="Stroke-37"></path>
                    <path d="M2.60005714,2.46217143 C2.10355315,2.46217143 1.70105714,2.05967542 1.70105714,1.56317143 C1.70105714,1.06666744 2.10355315,0.664171429 2.60005714,0.664171429 C3.42417554,0.664171429 4.1895864,1.03268992 4.70455392,1.65538024 C5.02097666,2.03799345 4.96731868,2.60467404 4.58470547,2.92109678 C4.20209227,3.23751951 3.63541167,3.18386154 3.31898894,2.80124833 C3.14196511,2.58719401 2.8822939,2.46217143 2.60005714,2.46217143 Z" id="Stroke-39"></path>
                    <path d="M27.4174,1.56317143 C27.4174,1.06666744 27.819896,0.664171429 28.3164,0.664171429 C28.812904,0.664171429 29.2154,1.06666744 29.2154,1.56317143 L29.2154,26.9800286 C29.2154,27.4765326 28.812904,27.8790286 28.3164,27.8790286 C27.819896,27.8790286 27.4174,27.4765326 27.4174,26.9800286 L27.4174,1.56317143 Z" id="Stroke-41"></path>
                    <path d="M27.4174,26.9803714 C27.4174,26.4838674 27.819896,26.0813714 28.3164,26.0813714 C28.812904,26.0813714 29.2154,26.4838674 29.2154,26.9803714 C29.2154,28.4874468 27.9934754,29.7093714 26.4864,29.7093714 C25.989896,29.7093714 25.5874,29.3068754 25.5874,28.8103714 C25.5874,28.3138674 25.989896,27.9113714 26.4864,27.9113714 C27.0004674,27.9113714 27.4174,27.4944389 27.4174,26.9803714 Z" id="Stroke-43"></path>
                    <path d="M26.4865714,27.9111143 C26.9830754,27.9111143 27.3855714,28.3136103 27.3855714,28.8101143 C27.3855714,29.3066183 26.9830754,29.7091143 26.4865714,29.7091143 C25.6625956,29.7091143 24.8971862,29.3399128 24.3820747,28.7170483 C24.0656519,28.3344351 24.1193099,27.7677545 24.5019231,27.4513318 C24.8845363,27.1349091 25.4512169,27.188567 25.7676396,27.5711802 C25.9450997,27.7857621 26.2049734,27.9111143 26.4865714,27.9111143 Z" id="Stroke-45"></path>
                    <path d="M3.31405946,2.79568326 C3.00089959,2.41039492 3.05937126,1.84419077 3.4446596,1.53103089 C3.82994794,1.21787102 4.39615209,1.27634269 4.70931197,1.66163103 L25.7727405,27.5764882 C26.0859004,27.9617765 26.0274287,28.5279807 25.6421404,28.8411405 C25.2568521,29.1543004 24.6906479,29.0958287 24.377488,28.7105404 L3.31405946,2.79568326 Z" id="Stroke-47"></path>
                    <path d="M193.404318,28.3326346 C193.668023,28.7533198 193.540765,29.3081275 193.12008,29.5718322 C192.699394,29.8355369 192.144587,29.7082791 191.880882,29.2875939 L185.840596,19.6515939 C185.576892,19.2309087 185.704149,18.6761011 186.124835,18.4123964 C186.54552,18.1486916 187.100327,18.2759494 187.364032,18.6966346 L193.404318,28.3326346 Z" id="Stroke-49"></path>
                </g>
            </g>
        </g>
    </g>
</svg>