<?xml version="1.0" encoding="UTF-8"?>
<svg width="30px" height="31px" viewBox="0 0 30 31" version="1.1" xmlns="http://www.w3.org/2000/svg" xmlns:xlink="http://www.w3.org/1999/xlink">
    <!-- Generator: Sketch 52.6 (67491) - http://www.bohemiancoding.com/sketch -->
    <title>email-2</title>
    <desc>Created with Sketch.</desc>
    <g id="Page-1" stroke="none" stroke-width="1" fill="none" fill-rule="evenodd">
        <g id="Contacts_mob" transform="translate(-29.000000, -569.000000)" fill="#FF7300" fill-rule="nonzero">
            <g id="email-2" transform="translate(29.000000, 569.000000)">
                <path d="M29.9497908,29.9372385 C29.9497908,29.9372385 29.9497908,15.7656904 29.9497908,11.0460251 C29.9497908,10.8514644 29.7050209,10.6066946 29.4665272,10.4246862 L24.5271967,6.84100418 L24.5271967,2.88075314 C24.5271967,2.4916318 24.2008368,2.22803347 23.874477,2.22803347 L18.2447699,2.22803347 L15.376569,0.138075314 C15.1820084,0.00627615063 14.8556485,0.00627615063 14.6548117,0.138075314 L11.7866109,2.22803347 L6.15690377,2.22803347 C5.76778243,2.22803347 5.5041841,2.55439331 5.5041841,2.88075314 L5.5041841,6.79707113 L0.50209205,10.4309623 C0.207112971,10.6129707 0.0188284519,10.8514644 0.0188284519,11.0523013 C0.0188284519,15.8033473 0.0188284519,30.0690377 0.0188284519,30.0690377 C0.0188284519,30.4393305 0.313807531,30.6966527 0.621338912,30.7217573 C0.640167364,30.7217573 0.652719665,30.7217573 0.671548117,30.7217573 L29.290795,30.7217573 C29.7112971,30.7154812 29.9497908,30.3891213 29.9497908,29.9372385 Z M28.707113,12.2196653 L28.707113,28.7635983 L17.9058577,20.1150628 L28.707113,12.2196653 Z M28.2238494,11.0711297 L24.5271967,13.7635983 L24.5271967,8.35355649 L28.2238494,11.0711297 Z M14.9874477,1.37447699 L16.1359833,2.22175732 L13.832636,2.22175732 L14.9874477,1.37447699 Z M23.2217573,3.5334728 L23.2217573,14.7175732 L14.9874477,20.7175732 L6.75313808,14.7175732 L6.75313808,3.5334728 L23.2217573,3.5334728 Z M1.26778243,12.2196653 L12.0690377,20.1150628 L1.26778243,28.8138075 L1.26778243,12.2196653 Z M5.51046025,13.8138075 L1.71966527,11.0523013 L5.51046025,8.29707113 L5.51046025,13.8138075 Z M2.44142259,29.4728033 L13.1171548,20.8807531 L14.5920502,21.960251 C14.874477,22.1736402 15.0878661,22.1736402 15.376569,21.960251 L16.8514644,20.8807531 L27.5899582,29.4728033 L2.44142259,29.4728033 Z" id="Shape"></path>
                <rect id="Rectangle-path" x="10.6129707" y="6.73430962" width="8.81799163" height="1.24267782"></rect>
                <rect id="Rectangle-path" x="10.6129707" y="10.7196653" width="8.81799163" height="1.24267782"></rect>
                <polygon id="Rectangle-path" points="10.6129707 14.7050209 19.4309623 14.7050209 19.4309623 15.9476987 10.6129707 15.9476987"></polygon>
            </g>
        </g>
    </g>
</svg>