<?xml version="1.0" encoding="UTF-8"?>
<svg width="81px" height="80px" viewBox="0 0 81 80" version="1.1" xmlns="http://www.w3.org/2000/svg" xmlns:xlink="http://www.w3.org/1999/xlink">
    <!-- Generator: Sketch 52.6 (67491) - http://www.bohemiancoding.com/sketch -->
    <title>debt</title>
    <desc>Created with Sketch.</desc>
    <g id="Page-1" stroke="none" stroke-width="1" fill="none" fill-rule="evenodd">
        <g id="Pricing_2560" transform="translate(-650.000000, -679.000000)" fill="#FF7300">
            <g id="debt" transform="translate(650.806452, 679.000000)">
                <path d="M76,34.6666667 L49.3333333,34.6666667 C47.1241667,34.6666667 45.3333333,36.4575 45.3333333,38.6666667 L45.3333333,76 C45.3333333,78.2091667 47.1241667,80 49.3333333,80 L76,80 C78.2091667,80 80,78.2091667 80,76 L80,38.6666667 C80,36.4575 78.2091667,34.6666667 76,34.6666667 Z M61.3333333,77.3333333 L49.3333333,77.3333333 C48.597,77.3333333 48,76.7363333 48,76 L48,66.6666667 L61.3333333,66.6666667 L61.3333333,77.3333333 Z M61.3333333,64 L48,64 L48,53.3333333 L61.3333333,53.3333333 L61.3333333,64 Z M77.3333333,76 C77.3333333,76.7363333 76.7363333,77.3333333 76,77.3333333 L64,77.3333333 L64,66.6666667 L77.3333333,66.6666667 L77.3333333,76 Z M77.3333333,64 L64,64 L64,53.3333333 L77.3333333,53.3333333 L77.3333333,64 Z M77.3333333,50.6666667 L48,50.6666667 L48,38.6666667 C48,37.9303333 48.597,37.3333333 49.3333333,37.3333333 L76,37.3333333 C76.7363333,37.3333333 77.3333333,37.9303333 77.3333333,38.6666667 L77.3333333,50.6666667 Z" id="Shape" fill-rule="nonzero"></path>
                <path d="M73.3333333,40 L52,40 C51.2636667,40 50.6666667,40.597 50.6666667,41.3333333 L50.6666667,46.6666667 C50.6666667,47.403 51.2636667,48 52,48 L73.3333333,48 C74.0696667,48 74.6666667,47.403 74.6666667,46.6666667 L74.6666667,41.3333333 C74.6666667,40.597 74.0696667,40 73.3333333,40 Z M72,45.3333333 L53.3333333,45.3333333 L53.3333333,42.6666667 L72,42.6666667 L72,45.3333333 Z" id="Shape" fill-rule="nonzero"></path>
                <polygon id="Path" points="56 57.3333333 56 54.6666667 53.3333333 54.6666667 53.3333333 57.3333333 50.6666667 57.3333333 50.6666667 60 53.3333333 60 53.3333333 62.6666667 56 62.6666667 56 60 58.6666667 60 58.6666667 57.3333333"></polygon>
                <rect id="Rectangle" x="66.6666667" y="57.3333333" width="8" height="2.66666667"></rect>
                <polygon id="Path" points="58.4373333 70.276 56.552 68.3906667 54.6666667 70.276 52.7813333 68.3906667 50.896 70.276 52.7813333 72.1613333 50.896 74.0466667 52.7813333 75.932 54.6666667 74.0466667 56.552 75.932 58.4373333 74.0466667 56.552 72.1613333"></polygon>
                <rect id="Rectangle" x="66.6666667" y="70.6666667" width="8" height="2.66666667"></rect>
                <rect id="Rectangle" x="69.3333333" y="74" width="2.66666667" height="1.33333333"></rect>
                <rect id="Rectangle" x="69.3333333" y="68.6666667" width="2.66666667" height="1.33333333"></rect>
                <path d="M53.3333333,0 L14.6666667,0 L14.6666667,0.012 C14.3146667,0.00783333333 13.9753333,0.144166667 13.724,0.390666667 L0.390666667,13.724 C0.143833333,13.9751667 0.0075,14.3145 0.012,14.6666667 L0,14.6666667 L0,77.3333333 C0,78.8061667 1.19383333,80 2.66666667,80 L42.6666667,80 L42.6666667,77.3333333 L34.6666667,77.3333333 L34.6666667,73.3333333 L37.3333333,73.3333333 C38.0696667,73.3333333 38.6666667,72.7363333 38.6666667,72 L38.6666667,65.3333333 C38.6666667,64.597 38.0696667,64 37.3333333,64 L34.6666667,64 L34.6666667,60 L37.3333333,60 C38.0696667,60 38.6666667,59.403 38.6666667,58.6666667 L38.6666667,52 C38.6666667,51.2636667 38.0696667,50.6666667 37.3333333,50.6666667 L37.2986667,50.6666667 C40.6725,48.1586667 42.6626667,44.2038333 42.6666667,40 C42.681,32.6361667 36.723,26.6551667 29.3593333,26.6408333 C21.9956667,26.6265 16.0143333,32.5845 16,39.9481667 C15.9918333,44.1693333 17.9828333,48.145 21.368,50.6666667 L10.6666667,50.6666667 C9.93033333,50.6666667 9.33333333,51.2636667 9.33333333,52 L9.33333333,57.3333333 L6.66666667,57.3333333 C5.93033333,57.3333333 5.33333333,57.9303333 5.33333333,58.6666667 L5.33333333,65.3333333 C5.33333333,66.0696667 5.93033333,66.6666667 6.66666667,66.6666667 L9.33333333,66.6666667 L9.33333333,70.6666667 L6.66666667,70.6666667 C5.93033333,70.6666667 5.33333333,71.2636667 5.33333333,72 L5.33333333,77.3333333 L2.66666667,77.3333333 L2.66666667,16 L13.3333333,16 C14.8061667,16 16,14.8061667 16,13.3333333 L16,2.66666667 L53.3333333,2.66666667 L53.3333333,32 L56,32 L56,2.66666667 C56,1.19383333 54.8061667,0 53.3333333,0 Z M36,66.6666667 L36,70.6666667 L12,70.6666667 L12,66.6666667 L36,66.6666667 Z M18.6666667,40 C18.6666667,34.109 23.4423333,29.3333333 29.3333333,29.3333333 C35.2243333,29.3333333 40,34.109 40,40 C40,45.891 35.2243333,50.6666667 29.3333333,50.6666667 C23.445,50.66 18.6733333,45.8883333 18.6666667,40 Z M12,53.3333333 L36,53.3333333 L36,57.3333333 L12,57.3333333 L12,53.3333333 Z M8,64 L8,60 L32,60 L32,64 L10.6666667,64 L8,64 Z M8,73.3333333 L32,73.3333333 L32,77.3333333 L8,77.3333333 L8,73.3333333 Z M13.3333333,13.3333333 L4.552,13.3333333 L13.3333333,4.552 L13.3333333,13.3333333 Z" id="Shape" fill-rule="nonzero"></path>
                <path d="M29.3333333,36 L33.3333333,36 L33.3333333,33.3333333 L30.6666667,33.3333333 L30.6666667,32 L28,32 L28,33.5786667 C25.9211667,34.3108333 24.8295,36.5896667 25.5618333,38.6685 C26.1251667,40.2678333 27.6376667,41.3366667 29.3333333,41.3333333 C30.0696667,41.3333333 30.6666667,41.9303333 30.6666667,42.6666667 C30.6666667,43.403 30.0696667,44 29.3333333,44 L25.3333333,44 L25.3333333,46.6666667 L28,46.6666667 L28,48 L30.6666667,48 L30.6666667,46.4213333 C32.7455,45.6891667 33.8371667,43.4103333 33.1048333,41.3315 C32.5415,39.7321667 31.029,38.6633333 29.3333333,38.6666667 C28.597,38.6666667 28,38.0696667 28,37.3333333 C28,36.597 28.597,36 29.3333333,36 Z" id="Path"></path>
                <path d="M74.6666667,6.66666667 L72,6.66666667 C72,5.93033333 71.403,5.33333333 70.6666667,5.33333333 L69.3333333,5.33333333 L69.3333333,1.33333333 C69.3333333,0.597 68.7363333,0 68,0 L62.6666667,0 C61.9303333,0 61.3333333,0.597 61.3333333,1.33333333 L61.3333333,5.33333333 L60,5.33333333 C59.2636667,5.33333333 58.6666667,5.93033333 58.6666667,6.66666667 L58.6666667,32 L61.3333333,32 L61.3333333,8 L69.3333333,8 L69.3333333,32 L72,32 L72,9.33333333 L74.6666667,9.33333333 L74.6666667,26.6666667 L77.3333333,26.6666667 L77.3333333,9.33333333 C77.3333333,7.8605 76.1395,6.66666667 74.6666667,6.66666667 Z M66.6666667,5.33333333 L64,5.33333333 L64,2.66666667 L66.6666667,2.66666667 L66.6666667,5.33333333 Z" id="Shape" fill-rule="nonzero"></path>
                <rect id="Rectangle" x="20" y="10.6666667" width="22.6666667" height="2.66666667"></rect>
                <rect id="Rectangle" x="5.33333333" y="18.6666667" width="45.3333333" height="2.66666667"></rect>
                <rect id="Rectangle" x="5.33333333" y="24" width="16" height="2.66666667"></rect>
                <rect id="Rectangle" x="38.6666667" y="24" width="12" height="2.66666667"></rect>
            </g>
        </g>
    </g>
</svg>