<?xml version="1.0" encoding="UTF-8"?>
<svg width="64px" height="64px" viewBox="0 0 64 64" version="1.1" xmlns="http://www.w3.org/2000/svg" xmlns:xlink="http://www.w3.org/1999/xlink">
    <!-- Generator: Sketch 52.6 (67491) - http://www.bohemiancoding.com/sketch -->
    <title>Group 4</title>
    <desc>Created with Sketch.</desc>
    <g id="Page-1" stroke="none" stroke-width="1" fill="none" fill-rule="evenodd">
        <g id="How-we-work_2560" transform="translate(-520.000000, -889.000000)" fill="#FF7300" fill-rule="nonzero">
            <g id="Group-4" transform="translate(520.000000, 889.000000)">
                <path d="M33.134375,30.3665625 C32.645625,29.8778125 31.854375,29.8778125 31.365625,30.3665625 C30.878125,30.8540625 30.878125,31.6453125 31.365625,32.1340625 C31.854375,32.6215625 32.645625,32.6215625 33.134375,32.1340625 C33.621875,31.6453125 33.621875,30.8540625 33.134375,30.3665625 Z" id="Shape"></path>
                <path d="M49.6662188,14.8318281 C47.2237188,12.3894531 43.2697188,12.3893281 40.8270938,14.8318281 C38.3909688,17.2679531 38.3908438,21.2329531 40.8274688,23.6710781 C43.2644688,26.1065781 47.2294688,26.1075781 49.6662188,23.6708281 C52.1084688,21.2285781 52.1089688,17.2744531 49.6662188,14.8318281 Z M47.8984688,21.9029531 C46.4368438,23.3647031 44.0575938,23.3647031 42.5952188,21.9032031 C41.1333438,20.4404531 41.1332188,18.0612031 42.5949688,16.5995781 C44.0603438,15.1342031 46.4328438,15.1339531 47.8984688,16.5995781 C49.3638438,18.0648281 49.3640938,20.4374531 47.8984688,21.9029531 Z" id="Shape"></path>
                <path d="M63.6315,0.36613725 C63.386,0.12076225 63.051,-0.0122377497 62.70275,0.000887250284 C62.420125,0.0110122503 55.69075,0.28151225 47.691375,3.10888725 C41.281375,5.37213725 35.9385,8.61251225 31.811125,12.7400123 C30.88625,13.6648873 29.98625,14.6456373 29.125125,15.6645123 C25.044125,13.2622623 21.773875,14.0155123 19.7065,15.1218873 C14.946375,17.6693873 12,24.5863873 12,29.5338873 C12.000375,30.0393873 12.305,30.4952623 12.772,30.6886373 C12.926625,30.7527623 13.089125,30.7838873 13.250125,30.7838873 C13.5755,30.7838873 13.895125,30.6567623 14.13425,30.4177623 C16.644625,27.9073873 19.741,28.0643873 20.7525,28.1973873 L21.19025,28.6351373 C20.32875,30.6851373 19.63475,32.7236373 19.12575,34.7062623 C18.942,35.4237623 19.004,36.1830123 19.277125,36.8775123 C18.073625,37.4321373 16.9125,38.2465123 15.9015,39.2575123 C12.683875,42.4752623 12.0305,50.3170123 12.00425,50.6492623 C11.9755,51.0138873 12.10775,51.3728873 12.366375,51.6315123 C12.60175,51.8667623 12.920125,51.9976373 13.250125,51.9976373 C13.282875,51.9976373 13.31575,51.9963873 13.348625,51.9937623 C13.680875,51.9676373 21.522875,51.3142623 24.7405,48.0966373 C25.751125,47.0860123 26.565375,45.9250123 27.12,44.7217623 C27.85525,45.0108873 28.612,45.0465123 29.2925,44.8721373 C31.27425,44.3632623 33.3125,43.6695123 35.36275,42.8078873 L35.8005,43.2456373 C35.933375,44.2572623 36.090375,47.3536373 33.580125,49.8637623 C33.22275,50.2212623 33.11575,50.7588873 33.30925,51.2258873 C33.502625,51.6930123 33.958375,51.9975123 34.464,51.9975123 C39.4115,51.9975123 46.328375,49.0511373 48.875875,44.2910123 C49.98225,42.2238873 50.7355,38.9536373 48.33325,34.8725123 C49.351625,34.0117623 50.3325,33.1117623 51.25775,32.1865123 C55.38525,28.0590123 58.6255,22.7161373 60.88875,16.3066373 C63.71625,8.30688725 63.986625,1.57738725 63.99675,1.29488725 C64.00925,0.94801225 63.876875,0.61163725 63.6315,0.36613725 Z M14.79475,26.8452623 C15.57125,23.0873873 17.826625,18.9637623 20.886625,17.3260123 C22.9315,16.2317623 25.166625,16.3390123 27.543125,17.6398873 C25.5185,20.3026373 23.758375,23.1713873 22.29125,26.2007623 C22.272625,26.1892623 22.047625,25.9063873 21.629625,25.8121373 C21.45775,25.7732623 18.150375,25.0618873 14.79475,26.8452623 Z M22.97275,46.3287623 C21.254,48.0475123 17.222125,48.9540123 14.67375,49.3241373 C15.044,46.7756373 15.950625,42.7438873 17.66925,41.0252623 C18.63175,40.0627623 19.74775,39.3330123 20.8695,38.9220123 L25.076,43.1285123 C24.665,44.2502623 23.935375,45.3662623 22.97275,46.3287623 Z M28.6715,42.4503873 C28.30975,42.5430123 27.89075,42.4070123 27.57925,42.0960123 C25.962125,40.4788873 25.3295,39.8462623 25.131,39.6478873 C24.767,39.2838873 23.874375,38.3912623 21.90275,36.4195123 C21.591,36.1071373 21.455,35.6882623 21.547375,35.3271373 C21.94775,33.7678873 22.471375,32.1681373 23.108125,30.5530123 L33.445,40.8898873 C31.829625,41.5267623 30.230125,42.0502623 28.6715,42.4503873 Z M46.672,43.1113873 C45.03425,46.1712623 40.91075,48.4267623 37.153,49.2031373 C38.351125,46.9485123 38.61525,44.0783873 38.1775,42.3380123 C38.075875,41.9337623 37.812125,41.7305123 37.797375,41.7066373 C40.8265,40.2395123 43.695125,38.4793873 46.358125,36.4547623 C47.659,38.8315123 47.766125,41.0668873 46.672,43.1113873 Z M49.49025,30.4187623 C48.363875,31.5450123 47.151,32.6331373 45.88525,33.6527623 C42.8425,36.1027623 39.4935,38.1780123 35.9205,39.8300123 L24.168,28.0777623 C25.82,24.5045123 27.89525,21.1555123 30.345,18.1131373 C31.3655,16.8465123 32.4535,15.6335123 33.579375,14.5077623 C37.2825,10.8045123 42.06175,7.85726225 47.78825,5.73576225 L58.26225,16.2097623 C56.141,21.9361373 53.19375,26.7153873 49.49025,30.4187623 Z M59.161625,13.5733873 L50.424625,4.83638725 C55.18475,3.35788725 59.325875,2.80426225 61.392875,2.60526225 C61.19375,4.67263725 60.64,8.81376225 59.161625,13.5733873 Z" id="Shape"></path>
                <path d="M29.6687969,51.3659688 C29.1804219,50.8778438 28.3889219,50.8780938 27.9009219,51.3662188 L24.3659219,54.9024688 C23.8779219,55.3907188 23.8780469,56.1822188 24.3661719,56.6702188 C24.8545469,57.1582188 25.6460469,57.1582188 26.1340469,56.6699688 L29.6690469,53.1337188 C30.1570469,52.6454688 30.1569219,51.8539688 29.6687969,51.3659688 Z" id="Shape"></path>
                <path d="M12.6702813,34.3662188 C12.1822813,33.8779688 11.3909063,33.8779688 10.9025313,34.3659688 L7.36628127,37.9009688 C6.87803127,38.3889688 6.87790627,39.1804688 7.36590627,39.6687188 C7.85378127,40.1567188 8.64515627,40.1572188 9.13365627,39.6689688 L12.6699063,36.1339688 C13.1581563,35.6459688 13.1582813,34.8544688 12.6702813,34.3662188 Z" id="Shape"></path>
                <path d="M21.6014531,53.3661094 C21.1135781,52.8779844 20.3219531,52.8779844 19.8337031,53.3659844 L11.3662031,61.8322344 C10.8779531,62.3203594 10.8779531,63.1118594 11.3660781,63.5999844 C11.8539531,64.0881094 12.6455781,64.0883594 13.1338281,63.6001094 L21.6013281,55.1338594 C22.0895781,54.6457344 22.0895781,53.8542344 21.6014531,53.3661094 Z" id="Shape"></path>
                <path d="M11.6014531,53.3661094 C11.1134531,52.8779844 10.3218281,52.8779844 9.83370313,53.3659844 L1.36620313,61.8322344 C0.877953127,62.3203594 0.877953127,63.1118594 1.36607813,63.5999844 C1.85395313,64.0881094 2.64557813,64.0883594 3.13382813,63.6001094 L11.6013281,55.1338594 C12.0895781,54.6457344 12.0895781,53.8542344 11.6014531,53.3661094 Z" id="Shape"></path>
                <path d="M10.6000781,42.3659844 C10.1120781,41.8779844 9.32045313,41.8779844 8.83232813,42.3661094 L0.366078127,50.8336094 C-0.122046873,51.3218594 -0.122046873,52.1132344 0.366203127,52.6014844 C0.854328127,53.0896094 1.64582813,53.0896094 2.13395313,52.6013594 L10.6002031,44.1338594 C11.0883281,43.6456094 11.0883281,42.8542344 10.6000781,42.3659844 Z" id="Shape"></path>
                <path d="M38.9014688,25.3660937 C38.4132188,24.8779687 37.6219688,24.8779687 37.1335938,25.3660937 L35.3660938,27.1335937 C34.8779688,27.6217187 34.8779688,28.4132187 35.3660938,28.9014687 C35.8543438,29.3895937 36.6457188,29.3895937 37.1339688,28.9014687 L38.9014688,27.1339687 C39.3895938,26.6458437 39.3895938,25.8543437 38.9014688,25.3660937 Z" id="Shape"></path>
            </g>
        </g>
    </g>
</svg>