<?xml version="1.0" encoding="UTF-8"?>
<svg width="32px" height="32px" viewBox="0 0 32 32" version="1.1" xmlns="http://www.w3.org/2000/svg" xmlns:xlink="http://www.w3.org/1999/xlink">
    <!-- Generator: Sketch 52.6 (67491) - http://www.bohemiancoding.com/sketch -->
    <title>applications</title>
    <desc>Created with Sketch.</desc>
    <g id="Page-1" stroke="none" stroke-width="1" fill="none" fill-rule="evenodd">
        <g id="Novator_2560" transform="translate(-1308.000000, -758.000000)" fill="#FF7300" fill-rule="nonzero">
            <g id="applications" transform="translate(1308.000000, 758.000000)">
                <polygon id="Shape" points="2.07419519 2.06036217 3.10437627 2.06036217 3.10437627 3.09054326 2.07419519 3.09054326"></polygon>
                <polygon id="Shape" points="4.13455736 2.06036217 5.16473845 2.06036217 5.16473845 3.09054326 4.13455736 3.09054326"></polygon>
                <polygon id="Shape" points="6.19491953 2.06036217 7.22510062 2.06036217 7.22510062 3.09054326 6.19491953 3.09054326"></polygon>
                <path d="M16.2537726,11.8435613 L15.9816399,11.6740443 L15.7097586,11.8435613 C13.6003521,13.1554326 11.1800805,14.0057847 8.70925553,14.3025654 L8.25528171,14.3571429 L8.25528171,18.5570926 C8.25528171,23.4932092 11.2130282,27.8689638 15.7894869,29.7052314 L15.9816399,29.7819416 L16.1737928,29.7052314 C20.750503,27.8684607 23.707998,23.4927063 23.707998,18.5565895 L23.707998,14.3566398 L23.2542757,14.3025654 C20.7839537,14.0057847 18.3629276,13.1554326 16.2537726,11.8435613 Z M22.6778169,18.5565895 C22.6778169,22.9997485 20.0565895,26.9469316 15.9816399,28.6695171 C11.9069417,26.9464286 9.28546279,22.9997485 9.28546279,18.5565895 L9.28546279,15.2645875 C11.6415996,14.9200201 13.9413984,14.1026157 15.9816399,12.8840543 C18.0218813,14.1026157 20.3219316,14.9200201 22.6778169,15.2645875 L22.6778169,18.5565895 Z" id="Shape"></path>
                <path d="M31.9494467,0 L0.0138330141,0 L0.0138330141,28.8450704 L10.6747988,28.8450704 C12.1199698,30.192656 13.8558853,31.2547787 15.8189135,31.9094567 L15.9816399,31.9635312 L16.1443662,31.9094567 C18.1073944,31.2552817 19.8433098,30.192656 21.2887324,28.8450704 L31.9494467,28.8450704 L31.9494467,0 Z M30.9192656,1.03018109 L30.9192656,4.12072435 L1.0440141,4.12072435 L1.0440141,1.03018109 L30.9192656,1.03018109 Z M15.9816399,30.876509 C10.73667,29.0520624 7.22510062,24.1232394 7.22510062,18.5570926 L7.22510062,13.3835513 C10.3538733,13.2806841 13.4315895,12.2411972 15.9816399,10.4242958 C18.5319417,12.2411972 21.6096579,13.2801811 24.7381791,13.3835513 L24.7381791,18.5565895 C24.7381791,24.1232394 21.2268612,29.0520624 15.9816399,30.876509 Z M22.290996,27.8148893 C24.4796278,25.3101106 25.7683602,22.0520624 25.7683602,18.5565895 L25.7683602,12.362173 L25.2532696,12.362173 C22.0427565,12.362173 18.8594064,11.3010563 16.2907445,9.37474846 L15.9816399,9.14285714 L15.6725352,9.37474846 C13.1038732,11.3010563 9.92052314,12.362173 6.71001008,12.362173 L6.19491953,12.362173 L6.19491953,18.5565895 C6.19491953,22.0520624 7.48365193,25.3101106 9.67228369,27.8148893 L1.0440141,27.8148893 L1.0440141,5.15090543 L30.9192656,5.15090543 L30.9192656,27.8148893 L22.290996,27.8148893 Z" id="Shape"></path>
                <path d="M13.4061871,17.5130785 L13.4061871,19.153169 C12.8083501,19.3664487 12.3760061,19.9330986 12.3760061,20.6036217 L12.3760061,24.7243461 C12.3760061,25.5762073 13.0694165,26.2696177 13.9212777,26.2696177 L18.042002,26.2696177 C18.8941147,26.2696177 19.5872737,25.5762073 19.5872737,24.7243461 L19.5872737,20.6036217 C19.5872737,19.9330986 19.1551811,19.3664487 18.5570926,19.153169 L18.5570926,17.5130785 C18.5570926,16.0930583 17.4019115,14.9376258 15.9816399,14.9376258 C14.5616197,14.9376258 13.4061871,16.0930583 13.4061871,17.5130785 Z M18.5570926,24.7243461 C18.5570926,25.0080483 18.3259557,25.2394366 18.042002,25.2394366 L13.9212777,25.2394366 C13.6375755,25.2394366 13.4061871,25.0080483 13.4061871,24.7243461 L13.4061871,20.6036217 C13.4061871,20.3199195 13.6375755,20.0885312 13.9212777,20.0885312 L18.042002,20.0885312 C18.3259557,20.0885312 18.5570926,20.3199195 18.5570926,20.6036217 L18.5570926,24.7243461 Z M17.5269115,17.5130785 L17.5269115,19.0583501 L14.4363682,19.0583501 L14.4363682,17.5130785 C14.4363682,16.6612173 15.1297787,15.9678068 15.9816399,15.9678068 C16.8337525,15.9678068 17.5269115,16.6612173 17.5269115,17.5130785 Z" id="Shape"></path>
                <path d="M15.9816399,20.6036217 C15.1297787,20.6036217 14.4363682,21.2970322 14.4363682,22.1488934 C14.4363682,22.8194165 14.8687123,23.3860664 15.4665493,23.5993461 L15.4665493,24.7243461 L16.4967304,24.7243461 L16.4967304,23.5993461 C17.0948189,23.3860664 17.5269115,22.8194165 17.5269115,22.1488934 C17.5269115,21.2970322 16.8337525,20.6036217 15.9816399,20.6036217 Z M15.9816399,22.6639839 C15.6979376,22.6639839 15.4665493,22.4325956 15.4665493,22.1488934 C15.4665493,21.8651911 15.6979376,21.6338028 15.9816399,21.6338028 C16.2655936,21.6338028 16.4967304,21.8651911 16.4967304,22.1488934 C16.4967304,22.4325956 16.2655936,22.6639839 15.9816399,22.6639839 Z" id="Shape"></path>
                <polygon id="Shape" points="2.07419519 6.18108652 16.4967304 6.18108652 16.4967304 7.21126761 2.07419519 7.21126761"></polygon>
                <polygon id="Shape" points="2.07419519 8.24144869 12.3760061 8.24144869 12.3760061 9.27162978 2.07419519 9.27162978"></polygon>
                <polygon id="Shape" points="2.07419519 10.3018109 8.25528171 10.3018109 8.25528171 11.331992 2.07419519 11.331992"></polygon>
            </g>
        </g>
    </g>
</svg>