<?xml version="1.0" encoding="UTF-8"?>
<svg width="32px" height="32px" viewBox="0 0 32 32" version="1.1" xmlns="http://www.w3.org/2000/svg" xmlns:xlink="http://www.w3.org/1999/xlink">
    <!-- Generator: Sketch 52.6 (67491) - http://www.bohemiancoding.com/sketch -->
    <title>internet</title>
    <desc>Created with Sketch.</desc>
    <g id="Page-1" stroke="none" stroke-width="1" fill="none" fill-rule="evenodd">
        <g id="Novator_2560" transform="translate(-1308.000000, -325.000000)" fill="#FF7300" fill-rule="nonzero">
            <g id="internet" transform="translate(1308.000000, 325.000000)">
                <path d="M27.2631579,4.70687133 C25.4797758,2.9117934 23.291423,1.5711501 20.8823099,0.797270955 L20.6413255,0.72344053 C20.3287037,0.62816761 19.9980507,0.804337216 19.9027778,1.11720271 C19.8075048,1.42982456 19.9836744,1.76047757 20.2965399,1.85575049 L20.5170565,1.92495127 C28.2860624,4.4393275 32.545809,12.7753412 30.0314327,20.5443469 C29.541423,22.0587232 28.8099415,23.4841618 27.8654971,24.7653509 C26.9617447,24.3442982 25.8925439,24.5190058 25.1698343,25.205653 C24.2414718,26.1284113 24.2368421,27.6288986 25.1593568,28.5575049 C26.082115,29.4858674 27.582846,29.4904971 28.5112085,28.5677388 C29.330653,27.753655 29.4437134,26.467349 28.7789961,25.5226608 C33.5095029,19.169347 32.8640351,10.3077486 27.2631579,4.70687133 Z M27.6820176,27.7171053 C27.2139377,28.16423 26.4768518,28.16423 26.0087719,27.7171053 C25.54654,27.255117 25.54654,26.505848 26.0085283,26.043616 C26.4705166,25.581384 27.2197856,25.581384 27.6820176,26.0433723 C28.1442495,26.5053606 28.1442495,27.2546296 27.6822612,27.7168616 C27.6820176,27.7168616 27.6820176,27.7168616 27.6820176,27.7171053 Z" id="Shape"></path>
                <path d="M10.0409357,2.39473684 C10.1189084,2.39498049 10.1961501,2.37938595 10.2680312,2.34917152 C10.6172027,2.20419106 10.9780702,2.07041909 11.3330897,1.95272908 C11.6435185,1.85063354 11.8123782,1.51632555 11.7102827,1.20589667 C11.6081871,0.895467852 11.2736355,0.726608218 10.9632066,0.828703688 C10.576267,0.955896702 10.1888402,1.10014621 9.81262185,1.25706629 C9.5109649,1.38279729 9.36842105,1.72928848 9.49415205,2.03070179 C9.58625734,2.25146199 9.8019006,2.39498049 10.0409357,2.39473684 Z" id="Shape"></path>
                <path d="M16.9442008,1.24390837 C17.3194445,1.2687622 17.7002924,1.3079922 18.0765107,1.36232945 C18.4003411,1.40838207 18.7000487,1.18347952 18.7461014,0.859649123 C18.792154,0.536062378 18.5672515,0.236354745 18.2434211,0.190302129 C17.8377193,0.131091587 17.4264133,0.0903996257 17.0224172,0.0635964881 C16.6956628,0.0421539805 16.4132554,0.289473684 16.3915692,0.616228055 C16.3701267,0.942982487 16.6174464,1.22538985 16.9442008,1.24707605 L16.9442008,1.24390837 Z" id="Shape"></path>
                <path d="M13.4451755,1.41910331 C13.4778265,1.41934696 13.5102339,1.41642299 13.542154,1.41081874 C13.9125244,1.3516082 14.2923977,1.3019006 14.6717836,1.2687622 C14.9980507,1.24000973 15.2392788,0.952241715 15.2102827,0.625974643 C15.1815302,0.299707634 14.8937622,0.0584795322 14.5674951,0.087232 C14.1588694,0.123538027 13.749269,0.175438596 13.3499025,0.241228101 C13.0275341,0.293615969 12.8087232,0.597709536 12.8611111,0.920321622 C12.9076511,1.20662768 13.1552144,1.41691035 13.4451755,1.4166667 L13.4451755,1.41910331 Z" id="Shape"></path>
                <path d="M18.3825536,30.5964912 C18.0092593,30.6557018 17.629386,30.7054094 17.2531677,30.7380604 C16.9264132,30.7519493 16.6727583,31.0282651 16.6868909,31.3550195 C16.7007797,31.6817739 16.9770955,31.9351852 17.3038499,31.9212963 C17.3211501,31.9220273 17.3382066,31.9220273 17.3555068,31.9212963 C17.7619396,31.8864523 18.1717836,31.8347953 18.5748051,31.7685185 C18.8971735,31.7153996 19.1152534,31.4110624 19.0623782,31.088694 C19.0158382,30.7690058 18.7188109,30.5475146 18.3991228,30.5938109 C18.3935185,30.5947856 18.3881579,30.5955166 18.3825536,30.5964912 Z" id="Shape"></path>
                <path d="M21.6566764,29.6600877 C21.3057992,29.8060429 20.9466374,29.9393275 20.5916179,30.0562866 C20.2789961,30.1515595 20.1028265,30.4819688 20.1978558,30.7945906 C20.292885,31.1072125 20.623538,31.2836257 20.9359162,31.1883528 C20.9442008,31.1859162 20.9522417,31.1832359 20.9602826,31.1805555 C21.3460039,31.0538499 21.7336745,30.9100877 22.1123294,30.7534113 C22.41423,30.627924 22.5572612,30.2814328 22.4317739,29.9795322 C22.3062865,29.6776316 21.9597953,29.5346004 21.6578947,29.6600877 L21.6566764,29.6600877 Z" id="Shape"></path>
                <path d="M14.9792885,30.7604776 C14.6001462,30.7356238 14.2197856,30.6959064 13.8486842,30.6420565 C13.5246101,30.6008772 13.2283138,30.8301657 13.1871345,31.1542398 C13.1466861,31.4705166 13.3642788,31.7616959 13.6788499,31.8128655 C14.080653,31.872076 14.4919591,31.9147173 14.9013158,31.9412768 L14.9410332,31.9412768 C15.2677875,31.9519981 15.5411793,31.6956628 15.5519006,31.3689084 C15.5623782,31.042154 15.3060429,30.7687622 14.9792885,30.758041 L14.9792885,30.7604776 Z" id="Shape"></path>
                <path d="M11.629386,30.1464425 C11.36769,30.0674951 11.1069688,29.9797758 10.8479532,29.8835282 C3.1866472,27.0545809 -0.730750503,18.5506823 2.0981969,10.8893762 C2.57846007,9.58893761 3.23903507,8.3625731 4.0606725,7.24610133 C5.23343083,7.81700778 6.64692984,7.3289474 7.21783629,6.15618907 C7.65911304,5.24999997 7.47636454,4.16374269 6.76315789,3.45151071 C5.82724173,2.55677386 4.35307016,2.55677386 3.41691035,3.45151071 C2.60307019,4.26193959 2.49244638,5.54117932 3.15472711,6.47953216 C-2.10818713,13.5599415 -0.634990285,23.5665205 6.44566275,28.8296783 C7.66666667,29.7370858 9.0109649,30.4656433 10.4378655,30.9929337 C10.7171053,31.0960039 10.998538,31.1905458 11.2821638,31.2770468 C11.3382066,31.2945906 11.3966862,31.3033626 11.4556531,31.3028753 C11.7824074,31.3026315 12.0467836,31.0372807 12.0462963,30.7105263 C12.0460526,30.4510234 11.876462,30.2219786 11.6284113,30.1457115 L11.629386,30.1464425 Z M4.25292401,4.28801173 C4.70687133,3.81798244 5.4558967,3.80482458 5.92616958,4.25901561 C6.3961988,4.71296299 6.40911308,5.4619883 5.95516569,5.93201753 C5.94566275,5.94200777 5.93591616,5.95151071 5.92616958,5.96125729 C5.45784602,6.40838207 4.72100391,6.40838207 4.25292401,5.96125729 C3.7909357,5.49902534 3.7909357,4.75000003 4.25292401,4.28801173 Z" id="Shape"></path>
                <path d="M25.3910819,20.9473684 C27.0255848,17.8533139 27.0255848,14.1515595 25.3910819,11.0575049 C25.3845029,11.0416667 25.3762183,11.0272904 25.3691521,11.0119396 C22.6186647,5.81944446 16.1793372,3.84015595 10.9868421,6.59064327 C9.10355749,7.58845031 7.56335283,9.12865497 6.56554579,11.0119396 C6.55847953,11.0272904 6.5501949,11.0416667 6.54385965,11.0575049 C4.90911308,14.1515595 4.90911308,17.8535575 6.54385965,20.9473684 C6.5501949,20.9634503 6.55847953,20.9775828 6.56554579,20.9929337 C9.31627677,26.1854288 15.7553606,28.164961 20.9478557,25.41423 C22.8311404,24.4166667 24.3715887,22.876462 25.3691521,20.9929337 C25.3745127,20.9775828 25.3845029,20.9634503 25.3910819,20.9473684 Z M12.0092593,7.41471738 L11.626462,8.69273881 C11.4295809,9.34941517 11.2621832,10.0121832 11.1189084,10.6776316 L8.14717349,10.6776316 C9.11695906,9.26193959 10.4512671,8.13450292 12.0092593,7.41471738 Z M7.46856727,11.8611111 L10.8959552,11.8611111 C10.7007797,13.0348441 10.5889376,14.2212476 10.5609162,15.4108187 L6.53143273,15.4108187 C6.60672512,14.1773879 6.92519492,12.9710039 7.46856727,11.8611111 Z M6.53143273,16.5940546 L10.5609162,16.5940546 C10.5889376,17.7838694 10.7010234,18.9700292 10.8959552,20.1440059 L7.46856727,20.1440059 C6.92519492,19.0341131 6.60672512,17.827729 6.53143273,16.5940546 Z M8.14717349,21.3272417 L11.1189084,21.3272417 C11.2621832,21.9929337 11.4295809,22.6554581 11.626462,23.3123781 L12.0092593,24.590156 C10.4512671,23.870614 9.11695906,22.7431774 8.14717349,21.3272417 Z M15.375731,25.4385965 C14.707115,25.3983918 14.0445907,25.2867934 13.3996101,25.1055068 L12.7602339,22.9727096 C12.5962476,22.4276316 12.454922,21.878655 12.330653,21.3272417 L15.375731,21.3272417 L15.375731,25.4385965 Z M15.375731,20.1440059 L12.1069688,20.1440059 C11.9025341,18.9710039 11.784844,17.7846004 11.7556043,16.5940546 L15.375731,16.5940546 L15.375731,20.1440059 Z M15.375731,15.4108187 L11.7556043,15.4108187 C11.7850878,14.2205166 11.9025341,13.0341131 12.1069688,11.8611111 L15.375731,11.8611111 L15.375731,15.4108187 Z M15.375731,10.6776316 L12.330653,10.6776316 C12.454922,10.1262184 12.5962476,9.5772417 12.7602339,9.03240739 L13.3996101,6.89961014 C14.0445907,6.71832359 14.707115,6.60648147 15.375731,6.5662768 L15.375731,10.6776316 Z M25.4035088,15.4108187 L21.2846004,15.4108187 C21.2563353,14.2212476 21.1447368,13.0350877 20.9502924,11.8611111 L24.4663742,11.8611111 C25.0095029,12.9710039 25.3279727,14.1773879 25.4035088,15.4108187 Z M23.787768,10.6776316 L20.7266082,10.6776316 C20.5833333,10.0121832 20.4166667,9.34941517 20.2195419,8.69273881 L19.8206628,7.36452242 C21.4232456,8.08211499 22.7962963,9.22855747 23.787768,10.6776316 Z M16.5589669,6.56652045 C17.1944445,6.60526316 17.8240741,6.708577 18.4385965,6.87475637 L19.0860136,9.03240739 C19.249269,9.5772417 19.3905946,10.1262184 19.5148635,10.6776316 L16.5589669,10.6776316 L16.5589669,6.56652045 Z M16.5589669,11.8611111 L19.7385478,11.8611111 C19.9429825,13.0341131 20.0606725,14.2205166 20.0899123,15.4108187 L16.5589669,15.4108187 L16.5589669,11.8611111 Z M19.0860136,22.9727096 L18.4388401,25.1303606 C17.8243178,25.2962963 17.1944445,25.3996101 16.5592105,25.4385965 L16.5592105,21.3272417 L19.5173002,21.3272417 C19.3905946,21.878655 19.249269,22.4278752 19.0860136,22.9727096 Z M16.5589669,20.1440059 L16.5589669,16.5940546 L20.0899123,16.5940546 C20.0604288,17.7846004 19.9429825,18.9710039 19.7385478,20.1440059 L16.5589669,20.1440059 Z M19.8209064,24.6405945 L20.2195419,23.3123781 C20.4166667,22.6554581 20.5833333,21.9929337 20.7266082,21.3272417 L23.787768,21.3272417 C22.7962963,22.7763158 21.4232456,23.9230019 19.8209064,24.6405945 Z M20.9502924,20.1440059 C21.1447368,18.9700292 21.2563353,17.7838694 21.2846004,16.5940546 L25.4035088,16.5940546 C25.3279727,17.827729 25.0095029,19.0341131 24.4663742,20.1440059 L20.9502924,20.1440059 Z" id="Shape"></path>
            </g>
        </g>
    </g>
</svg>