<?xml version="1.0" encoding="UTF-8"?>
<svg width="24px" height="25px" viewBox="0 0 24 25" version="1.1" xmlns="http://www.w3.org/2000/svg" xmlns:xlink="http://www.w3.org/1999/xlink">
    <!-- Generator: Sketch 52.6 (67491) - http://www.bohemiancoding.com/sketch -->
    <title>Shape</title>
    <desc>Created with Sketch.</desc>
    <g id="Page-1" stroke="none" stroke-width="1" fill="none" fill-rule="evenodd">
        <g id="Tech_2560" transform="translate(-1993.000000, -567.000000)" fill="#FF7300" fill-rule="nonzero">
            <g id="Group-5" transform="translate(520.000000, 549.000000)">
                <path d="M1496.6351,40.6423362 L1490.71869,34.4889725 C1492.2399,32.6806228 1493.07338,30.4053488 1493.07338,28.03669 C1493.07338,22.5025464 1488.57083,18 1483.03669,18 C1477.50255,18 1473,22.5025464 1473,28.03669 C1473,33.5708335 1477.50255,38.0733799 1483.03669,38.0733799 C1485.11428,38.0733799 1487.09413,37.4467414 1488.78684,36.2571754 L1494.7482,42.4572316 C1494.99737,42.7160036 1495.33251,42.8586992 1495.69165,42.8586992 C1496.03159,42.8586992 1496.35407,42.7290949 1496.59888,42.4934509 C1497.11904,41.9929255 1497.13562,41.1629349 1496.6351,40.6423362 Z M1483.03669,20.6182669 C1487.1273,20.6182669 1490.45511,23.9460842 1490.45511,28.03669 C1490.45511,32.1272957 1487.1273,35.455113 1483.03669,35.455113 C1478.94608,35.455113 1475.61827,32.1272957 1475.61827,28.03669 C1475.61827,23.9460842 1478.94608,20.6182669 1483.03669,20.6182669 Z" id="Shape"></path>
            </g>
        </g>
    </g>
</svg>