<?xml version="1.0" encoding="UTF-8"?>
<svg width="32px" height="29px" viewBox="0 0 32 29" version="1.1" xmlns="http://www.w3.org/2000/svg" xmlns:xlink="http://www.w3.org/1999/xlink">
    <!-- Generator: Sketch 52.6 (67491) - http://www.bohemiancoding.com/sketch -->
    <title>layout</title>
    <desc>Created with Sketch.</desc>
    <g id="Page-1" stroke="none" stroke-width="1" fill="none" fill-rule="evenodd">
        <g id="Novator_2560" transform="translate(-525.000000, -327.000000)" fill="#FF7300" fill-rule="nonzero">
            <g id="layout" transform="translate(525.000000, 327.000000)">
                <path d="M4.80004881,16.5334472 L3.19995119,16.5334472 C2.90551756,16.5334472 2.66674806,16.7722168 2.66674806,17.0666504 C2.66674806,17.3613281 2.90551756,17.6000976 3.19995119,17.6000976 L4.80004881,17.6000976 C5.09448244,17.6000976 5.33325194,17.3613281 5.33325194,17.0666504 C5.33325194,16.7722168 5.09448244,16.5334472 4.80004881,16.5334472 Z" id="Shape"></path>
                <path d="M3.19995119,13.3332519 L9.06665038,13.3332519 C9.36132812,13.3332519 9.60009763,13.0944824 9.60009763,12.8000488 C9.60009763,12.5053711 9.36132812,12.2666016 9.06665038,12.2666016 L3.19995119,12.2666016 C2.90551756,12.2666016 2.66674806,12.5053711 2.66674806,12.8000488 C2.66674806,13.0944824 2.90551756,13.3332519 3.19995119,13.3332519 Z" id="Shape"></path>
                <path d="M11.1999512,13.3332519 L18.6667481,13.3332519 C18.9611816,13.3332519 19.1999512,13.0944824 19.1999512,12.8000488 C19.1999512,12.5053711 18.9611816,12.2666016 18.6667481,12.2666016 L11.1999512,12.2666016 C10.9055176,12.2666016 10.6667481,12.5053711 10.6667481,12.8000488 C10.6667481,13.0944824 10.9055176,13.3332519 11.1999512,13.3332519 Z" id="Shape"></path>
                <path d="M6.93334962,14.3999024 L3.19995119,14.3999024 C2.90551756,14.3999024 2.66674806,14.6386719 2.66674806,14.9333496 C2.66674806,15.2277832 2.90551756,15.4665527 3.19995119,15.4665527 L6.93334962,15.4665527 C7.22778319,15.4665527 7.46655275,15.2277832 7.46655275,14.9333496 C7.46655275,14.6386719 7.22778319,14.3999024 6.93334962,14.3999024 Z" id="Shape"></path>
                <path d="M17.0666504,14.3999024 L9.06665037,14.3999024 C8.77221681,14.3999024 8.53344725,14.6386719 8.53344725,14.9333496 C8.53344725,15.2277832 8.77221681,15.4665527 9.06665037,15.4665527 L17.0666504,15.4665527 C17.3613281,15.4665527 17.6000976,15.2277832 17.6000976,14.9333496 C17.6000976,14.6386719 17.3613281,14.3999024 17.0666504,14.3999024 Z" id="Shape"></path>
                <path d="M22.9333496,21.3332519 L26.6667481,21.3332519 C26.9611816,21.3332519 27.1999512,21.0944824 27.1999512,20.8000488 C27.1999512,20.5053711 26.9611816,20.2666016 26.6667481,20.2666016 L22.9333496,20.2666016 C22.6386719,20.2666016 22.3999024,20.5053711 22.3999024,20.8000488 C22.3999024,21.0944824 22.6386719,21.3332519 22.9333496,21.3332519 Z" id="Shape"></path>
                <path d="M29.3332519,20.2666016 L28.8000488,20.2666016 C28.5053711,20.2666016 28.2666016,20.5053711 28.2666016,20.8000488 C28.2666016,21.0944824 28.5053711,21.3332519 28.8000488,21.3332519 L29.3332519,21.3332519 C29.6279297,21.3332519 29.8666993,21.0944824 29.8666993,20.8000488 C29.8666993,20.5053711 29.6279297,20.2666016 29.3332519,20.2666016 Z" id="Shape"></path>
                <path d="M23.4665527,22.3999024 L22.9333496,22.3999024 C22.6386719,22.3999024 22.3999024,22.6386719 22.3999024,22.9333496 C22.3999024,23.2277832 22.6386719,23.4665528 22.9333496,23.4665528 L23.4665528,23.4665528 C23.7612305,23.4665528 24,23.2277832 24,22.9333496 C24,22.6386719 23.7612305,22.3999024 23.4665528,22.3999024 Z" id="Shape"></path>
                <path d="M29.3332519,22.3999024 L25.6000976,22.3999024 C25.3054199,22.3999024 25.0666504,22.6386719 25.0666504,22.9333496 C25.0666504,23.2277832 25.3054199,23.4665528 25.6000976,23.4665528 L29.3332519,23.4665528 C29.6279297,23.4665528 29.8666992,23.2277832 29.8666992,22.9333496 C29.8666992,22.6386719 29.6279297,22.3999024 29.3332519,22.3999024 Z" id="Shape"></path>
                <path d="M3.19995119,11.1999512 L8.53344725,11.1999512 C9.12255862,11.1999512 9.60009763,10.7224121 9.60009763,10.1333008 L9.60009763,3.73339844 C9.60009763,3.14428712 9.12255862,2.66674806 8.53344725,2.66674806 L3.19995119,2.66674806 C2.61083987,2.66674806 2.13330075,3.14428712 2.13330075,3.73339844 L2.13330075,10.1333008 C2.13330075,10.7224121 2.61083987,11.1999512 3.19995119,11.1999512 Z M3.19995119,3.73339844 L8.53344725,3.73339844 L8.53344725,10.1333008 L3.19995119,10.1333008 L3.19995119,3.73339844 Z" id="Shape"></path>
                <path d="M28.8000488,12.8000488 L23.4665528,12.8000488 C22.8774414,12.8000488 22.3999024,13.2775879 22.3999024,13.8666992 L22.3999024,18.1333007 C22.3999024,18.7224121 22.8774414,19.1999512 23.4665528,19.1999512 L28.8000488,19.1999512 C29.3891601,19.1999512 29.8666993,18.7224121 29.8666993,18.1333007 L29.8666993,13.8666992 C29.8666993,13.2775879 29.3891601,12.8000488 28.8000488,12.8000488 Z M23.4665528,18.1333007 L23.4665528,13.8666992 L28.8000488,13.8666992 L28.8000488,18.1333007 L23.4665528,18.1333007 Z" id="Shape"></path>
                <path d="M12.2666016,11.1999512 L17.6000976,11.1999512 C18.189209,11.1999512 18.6667481,10.7224121 18.6667481,10.1333008 L18.6667481,3.73339844 C18.6667481,3.14428712 18.189209,2.66674806 17.6000976,2.66674806 L12.2666016,2.66674806 C11.6774902,2.66674806 11.1999512,3.14428712 11.1999512,3.73339844 L11.1999512,10.1333008 C11.1999512,10.7224121 11.6774902,11.1999512 12.2666016,11.1999512 Z M12.2666016,3.73339844 L17.6000976,3.73339844 L17.6000976,10.1333008 L12.2666016,10.1333008 L12.2666016,3.73339844 Z" id="Shape"></path>
                <path d="M29.8666992,7.46655275 L29.8666992,2.66674806 C29.8649902,1.19458006 28.6721191,0.0017089875 27.1999512,0 L2.66674806,0 C1.19458006,0.0017089875 0.0017089875,1.19458006 -2.84217094e-14,2.66674806 L-2.84217094e-14,21.8666992 C0.0017089875,23.3386231 1.19458006,24.5314941 2.66674806,24.5334472 L11.1999512,24.5334472 L11.1999512,25.6000976 L9.06665037,25.6000976 C7.88842775,25.6000976 6.93334962,26.5551758 6.93334962,27.7333984 L6.93334962,28.2666016 C6.93334962,28.5612793 7.17211912,28.8000488 7.46655275,28.8000488 L29.8666992,28.8000488 C31.0449219,28.8000488 32,27.8449707 32,26.6667481 L32,9.60009762 C32,8.421875 31.0449219,7.46655275 29.8666992,7.46655275 Z M20.2666016,24.5334472 L20.2666016,25.6000976 L18.6667481,25.6000976 L18.6667481,24.5334472 L20.2666016,24.5334472 Z M26.6667481,7.46655275 L22.3999024,7.46655275 C22.0244141,7.46899413 21.65625,7.57128906 21.3332519,7.76318363 L21.3332519,3.73339844 L26.6667481,3.73339844 L26.6667481,7.46655275 Z M21.3332519,11.7333984 L30.9333496,11.7333984 L30.9333496,24.5334473 L21.3332519,24.5334473 L21.3332519,11.7333984 Z M30.9333496,9.60009763 L30.9333496,10.6667481 L21.3332519,10.6667481 L21.3332519,9.60009763 C21.3332519,9.01098631 21.810791,8.53344725 22.3999024,8.53344725 L29.8666992,8.53344725 C30.4558106,8.53344725 30.9333496,9.01098631 30.9333496,9.60009763 Z M2.66674806,1.06665038 L27.1999512,1.06665038 C28.0837402,1.06665038 28.8000488,1.782959 28.8000488,2.66674806 L28.8000488,7.46655275 L27.7333984,7.46655275 L27.7333984,3.73339844 C27.7333984,3.14428713 27.2558594,2.66674806 26.6667481,2.66674806 L21.3332519,2.66674806 C20.7441406,2.66674806 20.2666016,3.14428713 20.2666016,3.73339844 L20.2666016,14.3999024 L19.1999512,14.3999024 C18.9055176,14.3999024 18.6667481,14.6386719 18.6667481,14.9333496 C18.6667481,15.2277832 18.9055176,15.4665527 19.1999512,15.4665527 L20.2666016,15.4665527 L20.2666016,16.5334473 L6.93334962,16.5334473 C6.63867187,16.5334473 6.39990237,16.7722168 6.39990237,17.0666504 C6.39990237,17.3613281 6.63867187,17.6000976 6.93334962,17.6000976 L20.2666016,17.6000976 L20.2666016,19.1999512 L1.06665037,19.1999512 L1.06665037,2.66674806 C1.06665037,1.782959 1.782959,1.06665038 2.66674806,1.06665038 Z M1.06665037,21.8666992 L1.06665037,20.2666016 L20.2666016,20.2666016 L20.2666016,23.4665528 L2.66674806,23.4665528 C1.782959,23.4665528 1.06665037,22.7502441 1.06665037,21.8666992 Z M12.2666016,24.5334472 L17.6000976,24.5334472 L17.6000976,25.6000976 L12.2666016,25.6000976 L12.2666016,24.5334472 Z M9.06665037,26.6667481 L20.2666016,26.6667481 C20.2687988,27.0422363 20.3713379,27.4104004 20.5632324,27.7333984 L8,27.7333984 C8,27.1442871 8.47753906,26.6667481 9.06665037,26.6667481 Z M29.8666992,27.7333984 L26.6667481,27.7333984 L26.6667481,27.1999512 C26.6667481,26.9055176 26.4279785,26.6667481 26.1333007,26.6667481 C25.8388672,26.6667481 25.6000976,26.9055176 25.6000976,27.1999512 L25.6000976,27.7333984 L22.3999024,27.7333984 C21.810791,27.7333984 21.3332519,27.2558594 21.3332519,26.6667481 L21.3332519,25.6000976 L30.9333496,25.6000976 L30.9333496,26.6667481 C30.9333496,27.2558594 30.4558106,27.7333984 29.8666992,27.7333984 Z" id="Shape"></path>
            </g>
        </g>
    </g>
</svg>