<?xml version="1.0" encoding="UTF-8"?>
<svg width="64px" height="64px" viewBox="0 0 64 64" version="1.1" xmlns="http://www.w3.org/2000/svg" xmlns:xlink="http://www.w3.org/1999/xlink">
    <!-- Generator: Sketch 52.6 (67491) - http://www.bohemiancoding.com/sketch -->
    <title>Group 6</title>
    <desc>Created with Sketch.</desc>
    <g id="Page-1" stroke="none" stroke-width="1" fill="none" fill-rule="evenodd">
        <g id="How-we-work_2560" transform="translate(-520.000000, -1069.000000)" fill="#FF7300" fill-rule="nonzero">
            <g id="Group-6" transform="translate(520.000000, 1069.000000)">
                <path d="M51.8637419,55.4193548 L49.4740645,48.2492903 C48.6389677,45.7460645 46.5083871,43.8983226 43.9112258,43.4255484 L37.0126452,42.1703226 L37.0126452,41.6356129 C38.2131613,40.9388387 39.2578065,40.0067097 40.0898065,38.9032258 L42.1739355,38.9032258 C43.8812903,38.9032258 45.2707097,37.5138065 45.2707097,35.8064516 L45.2707097,23.4193548 C45.2707097,16.020129 39.2505806,10 31.8513548,10 C24.452129,10 18.432,16.020129 18.432,23.4193548 L18.432,30.6451613 C18.432,32.6353548 19.8472258,34.3003871 21.723871,34.6885161 C22.3029677,37.6552258 24.1569032,40.1656774 26.6900645,41.6356129 L26.6900645,42.1703226 L19.7904516,43.4255484 C17.1943226,43.8983226 15.0627097,45.7460645 14.2286452,48.2492903 L13.8157419,49.4890323 L10.299871,45.9731613 C9.89729032,45.5705806 9.89729032,44.9150968 10.299871,44.5125161 L14.3772903,40.436129 L6.72412903,32.7829677 L2.11612903,37.3909677 C0.751483871,38.7556129 -1.20792265e-13,40.5703226 -1.20792265e-13,42.5006452 C-1.20792265e-13,44.4309677 0.751483871,46.2446452 2.11612903,47.6092903 L16.0670968,61.5602581 C17.4317419,62.9249032 19.2464516,63.6774194 21.1767742,63.6774194 C23.1070968,63.6774194 24.9207742,62.9249032 26.2534194,61.5912258 L31.2815484,56.9842581 L29.7135484,55.4193548 L51.8637419,55.4193548 Z M43.2061935,35.8064516 C43.2061935,36.3762581 42.7427097,36.8387097 42.1739355,36.8387097 L41.3058065,36.8387097 C41.6051613,36.1563871 41.8322581,35.4369032 41.9788387,34.6885161 C42.4206452,34.5966452 42.8273548,34.4211613 43.2061935,34.2002581 L43.2061935,35.8064516 Z M42.1739355,32.4227097 L42.1739355,28.8676129 C42.788129,29.2258065 43.2061935,29.8843871 43.2061935,30.6451613 C43.2061935,31.4059355 42.788129,32.0645161 42.1739355,32.4227097 Z M21.5287742,32.4227097 C20.9145806,32.0645161 20.4965161,31.4059355 20.4965161,30.6451613 C20.4965161,29.8843871 20.9145806,29.2258065 21.5287742,28.8676129 L21.5287742,32.4227097 Z M21.5287742,25.483871 L21.5287742,26.6627097 C21.1612903,26.7587097 20.8165161,26.9032258 20.4965161,27.0900645 L20.4965161,23.4193548 C20.4965161,17.1587097 25.5907097,12.0645161 31.8513548,12.0645161 C38.112,12.0645161 43.2061935,17.1587097 43.2061935,23.4193548 L43.2061935,27.0900645 C42.8861935,26.9032258 42.5414194,26.7576774 42.1739355,26.6627097 L42.1739355,25.483871 L41.1416774,25.483871 C38.0892903,25.483871 35.2196129,24.2947097 33.060129,22.1362581 L31.8513548,20.9274839 L30.6425806,22.1362581 C28.4830968,24.2947097 25.6134194,25.483871 22.5610323,25.483871 L21.5287742,25.483871 Z M23.5932903,32.7096774 L23.5932903,27.5091613 C26.6931613,27.275871 29.5834839,25.9969032 31.8513548,23.8405161 C34.1192258,25.9969032 37.0095484,27.2769032 40.1094194,27.5091613 L40.1094194,32.7096774 C40.1094194,34.2147097 39.6985806,35.6227097 38.9925161,36.8387097 L31.8513548,36.8387097 L31.8513548,38.9032258 L37.2954839,38.9032258 C35.84,40.1842581 33.9375484,40.9677419 31.8513548,40.9677419 C27.2980645,40.9677419 23.5932903,37.2629677 23.5932903,32.7096774 Z M34.948129,42.5563871 L34.948129,42.6049032 L31.8513548,45.7016774 L28.7545806,42.6049032 L28.7545806,42.5563871 C29.7331613,42.864 30.7726452,43.0322581 31.8513548,43.0322581 C32.9300645,43.0322581 33.9695484,42.864 34.948129,42.5563871 Z M16.1858065,48.9016774 C16.7814194,47.1138065 18.304,45.7935484 20.1589677,45.4549677 L27.3744516,44.144 L31.8513548,48.6209032 L36.3272258,44.1450323 L43.5416774,45.456 C45.3966452,45.7945806 46.9192258,47.1138065 47.5148387,48.9027097 L49.0002581,53.3548387 L27.6490323,53.3548387 L23.6283871,49.3341935 L19.1607742,53.3754839 C18.7716129,53.7667097 18.0913548,53.7667097 17.7011613,53.3754839 L15.4467097,51.1210323 L16.1858065,48.9016774 Z M6.72309677,35.7021935 L11.4570323,40.436129 L10.336,41.5571613 L5.60206452,36.8232258 L6.72309677,35.7021935 Z M24.8237419,60.1027097 C23.8492903,61.0750968 22.5527742,61.6129032 21.1747097,61.6129032 C19.7966452,61.6129032 18.500129,61.0750968 17.5246452,60.1006452 L3.57367742,46.1507097 C2.59922581,45.1762581 2.06245161,43.8797419 2.06245161,42.5016774 C2.06245161,41.1225806 2.59922581,39.8260645 3.57367742,38.8516129 L4.14141935,38.283871 L8.87535484,43.0178065 L8.83819355,43.0549677 C7.63148387,44.2627097 7.63148387,46.2270968 8.83819355,47.4348387 L16.2405161,54.8371613 C16.8258065,55.4214194 17.6030968,55.7445161 18.4309677,55.7445161 C19.2588387,55.7445161 20.036129,55.4224516 20.5832258,54.8732903 L20.6606452,54.804129 L25.4162581,59.5597419 L24.8237419,60.1027097 Z M26.939871,58.1620645 L22.1945806,53.4167742 L23.5581935,52.1842581 L28.2952258,56.9212903 L26.939871,58.1620645 Z" id="Shape"></path>
                <path d="M60.5483871,1.0658141e-14 L46.0967742,1.0658141e-14 C44.3894194,1.0658141e-14 43,1.38941935 43,3.09677419 L43,11.3548387 C43,13.0621935 44.3894194,14.4516129 46.0967742,14.4516129 L48.8539355,14.4516129 L47.7865806,20.6771613 L57.747871,14.4516129 L60.5483871,14.4516129 C62.2557419,14.4516129 63.6451613,13.0621935 63.6451613,11.3548387 L63.6451613,3.09677419 C63.6451613,1.38941935 62.2557419,1.0658141e-14 60.5483871,1.0658141e-14 Z M61.5806452,11.3548387 C61.5806452,11.9236129 61.1171613,12.3870968 60.5483871,12.3870968 L57.1553548,12.3870968 L50.5994839,16.484129 L51.3024516,12.3870968 L46.0967742,12.3870968 C45.528,12.3870968 45.0645161,11.9236129 45.0645161,11.3548387 L45.0645161,3.09677419 C45.0645161,2.528 45.528,2.06451613 46.0967742,2.06451613 L60.5483871,2.06451613 C61.1171613,2.06451613 61.5806452,2.528 61.5806452,3.09677419 L61.5806452,11.3548387 Z" id="Shape"></path>
                <rect id="Rectangle-path" x="47" y="4" width="12.3870968" height="2.06451613"></rect>
                <rect id="Rectangle-path" x="47" y="8" width="8.25806452" height="2.06451613"></rect>
                <rect id="Rectangle-path" x="58" y="8" width="2.06451613" height="2.06451613"></rect>
                <path d="M31.8523871,3 C18.3649032,3 6.74683871,12.3295484 3.72645161,25.3432258 L1.77032258,22.0823226 L8.52651283e-14,23.1445161 L3.6283871,29.1904516 L9.67432258,25.5620645 L8.61212903,23.7917419 L5.81470968,25.4701935 C8.74012903,13.5651613 19.4456774,5.06451613 31.8523871,5.06451613 C34.564129,5.06451613 37.2397419,5.46709677 39.8049032,6.26193548 L40.416,4.29032258 C37.6526452,3.43354839 34.7716129,3 31.8523871,3 Z" id="Shape"></path>
                <path d="M63.6456774,22.6283871 L57.5997419,19 L53.9723871,25.0469677 L55.7427097,26.1091613 L57.5491613,23.0980645 C58.499871,25.88 58.9860645,28.7899355 58.9860645,31.772129 C58.9860645,37.9109677 56.8596129,43.9125161 53,48.6701935 L54.6030968,49.9708387 C58.7610323,44.8467097 61.0505806,38.3827097 61.0505806,31.772129 C61.0505806,28.6144516 60.5416774,25.5310968 59.5496774,22.5788387 L62.5834839,24.3987097 L63.6456774,22.6283871 Z" id="Shape"></path>
            </g>
        </g>
    </g>
</svg>