<?xml version="1.0" encoding="UTF-8"?>
<svg width="32px" height="30px" viewBox="0 0 32 30" version="1.1" xmlns="http://www.w3.org/2000/svg" xmlns:xlink="http://www.w3.org/1999/xlink">
    <!-- Generator: Sketch 52.6 (67491) - http://www.bohemiancoding.com/sketch -->
    <title>laptop</title>
    <desc>Created with Sketch.</desc>
    <g id="Page-1" stroke="none" stroke-width="1" fill="none" fill-rule="evenodd">
        <g id="Novator_2560" transform="translate(-525.000000, -755.000000)" fill="#FF7300" fill-rule="nonzero">
            <g id="laptop" transform="translate(525.000000, 755.000000)">
                <path d="M30.125,19.4023438 C29.9599609,19.4023438 29.7993164,19.4692383 29.6831055,19.5854492 C29.5668945,19.7019043 29.5,19.8630371 29.5,20.0273438 C29.5,20.1918945 29.5668945,20.3530274 29.6831055,20.4692383 C29.7993164,20.5854492 29.9606934,20.6523438 30.125,20.6523438 C30.2893066,20.6523438 30.4506836,20.5854492 30.5668945,20.4692383 C30.6831055,20.3530274 30.75,20.1918945 30.75,20.0273438 C30.75,19.8630371 30.6831055,19.7019043 30.5668945,19.5854492 C30.4506836,19.4692383 30.2893066,19.4023438 30.125,19.4023438 Z" id="Shape"></path>
                <path d="M31.375,24.2773438 L30.75,24.2773438 L30.75,22.4960938 C30.75,22.1508789 30.4702149,21.8710938 30.125,21.8710938 C29.7797851,21.8710938 29.5,22.1508789 29.5,22.4960938 L29.5,24.2773438 L2.5,24.2773438 L2.5,22.5292969 L8.43432619,22.5292969 C8.779541,22.5292969 9.05932619,22.2495117 9.05932619,21.9042969 C9.05932619,21.559082 8.779541,21.2792969 8.43432619,21.2792969 L2.5,21.2792969 L2.5,8.40234375 C2.5,7.64428712 3.11669925,7.02734375 3.875,7.02734375 L7.45410156,7.02734375 C7.40258788,7.39648438 7.37524413,7.77319337 7.37524413,8.15625 C7.37524413,12.6364746 11.0200195,16.28125 15.5002441,16.28125 C16.9726563,16.28125 18.3544922,15.8876953 19.5466309,15.2001953 L24.5070801,20.1606445 C24.9074707,20.5610351 25.4396973,20.7814941 26.0058594,20.7814941 C26.5717774,20.7814941 27.1040039,20.5610351 27.5043945,20.1606445 C27.904541,19.7602539 28.1252441,19.2280274 28.1252441,18.6621094 C28.1252441,18.0959473 27.9047851,17.5637207 27.5043945,17.1633301 L22.5439453,12.203125 C23.2316894,11.0107422 23.6254883,9.62866213 23.6254883,8.15625 C23.6254883,7.77319338 23.5981445,7.39648438 23.5466309,7.02734375 L28.125,7.02734375 C28.8833008,7.02734375 29.5,7.64428713 29.5,8.40234375 L29.5,17.4023438 C29.5,17.7475586 29.7797851,18.0273438 30.125,18.0273438 C30.4702149,18.0273438 30.75,17.7475586 30.75,17.4023438 L30.75,8.40234375 C30.75,6.954834 29.5725098,5.77734375 28.125,5.77734375 L23.2697754,5.77734375 C22.2502441,2.45434569 19.1530762,0.03125 15.5002441,0.03125 C11.8476563,0.03125 8.75048825,2.45434569 7.730957,5.77734375 L3.875,5.77734375 C2.42749025,5.77734375 1.25,6.954834 1.25,8.40234375 L1.25,24.2773438 L0.625,24.2773438 C0.279785125,24.2773438 1.13686838e-13,24.5571289 1.13686838e-13,24.9023438 L1.13686838e-13,26.2773438 C1.13686838e-13,28.0693359 1.45800781,29.5273438 3.25,29.5273438 L28.75,29.5273438 C30.5419922,29.5273438 32,28.0693359 32,26.2773438 L32,24.9023438 C32,24.5571289 31.7202149,24.2773438 31.375,24.2773438 Z M26.6203613,18.0473632 C26.784668,18.2114257 26.875,18.4296875 26.875,18.6618652 C26.875,18.894043 26.784668,19.1125488 26.6203613,19.2766113 C26.4562988,19.440918 26.2380371,19.53125 26.0056153,19.53125 C25.7734375,19.53125 25.5551758,19.440918 25.3911133,19.2766113 L20.5949707,14.4804688 C21.0471191,14.1157226 21.4594726,13.7033691 21.8242188,13.2512207 L26.6203613,18.0473632 Z M15.5002441,1.28125 C19.2912598,1.28125 22.3752441,4.3654785 22.3752441,8.15625 C22.3752441,11.9470215 19.2912598,15.03125 15.5002441,15.03125 C11.7094726,15.03125 8.62524413,11.9470215 8.62524413,8.15625 C8.62524413,4.3654785 11.7094726,1.28125 15.5002441,1.28125 Z M30.75,26.2773438 C30.75,27.3801269 29.8527832,28.2773438 28.75,28.2773438 L3.25,28.2773438 C2.14721681,28.2773438 1.25,27.3801269 1.25,26.2773438 L1.25,25.5273438 L30.75,25.5273438 L30.75,26.2773438 Z" id="Shape"></path>
                <path d="M18.1042481,26.2773438 L13.8959961,26.2773438 C13.5507812,26.2773438 13.2709961,26.5571289 13.2709961,26.9023438 C13.2709961,27.2475586 13.5507812,27.5273438 13.8959961,27.5273438 L18.1042481,27.5273438 C18.4492187,27.5273438 18.7292481,27.2475586 18.7292481,26.9023438 C18.7292481,26.5571289 18.4492187,26.2773438 18.1042481,26.2773438 Z" id="Shape"></path>
                <path d="M15.5002441,13.65625 C18.532959,13.65625 21.0002441,11.1889649 21.0002441,8.15625 C21.0002441,5.12353513 18.532959,2.65625 15.5002441,2.65625 C12.4675293,2.65625 10.0002441,5.12353513 10.0002441,8.15625 C10.0002441,11.1889649 12.4675293,13.65625 15.5002441,13.65625 Z M15.5002441,3.90625 C17.84375,3.90625 19.7502441,5.81274413 19.7502441,8.15625 C19.7502441,10.4997559 17.84375,12.40625 15.5002441,12.40625 C13.1569824,12.40625 11.2502441,10.4997559 11.2502441,8.15625 C11.2502441,5.81274413 13.1569824,3.90625 15.5002441,3.90625 Z" id="Shape"></path>
                <path d="M15.5002441,6.59399413 C16.3615723,6.59399413 17.0625,7.29492188 17.0625,8.15625 C17.0625,8.50146487 17.3422851,8.78125 17.6875,8.78125 C18.0327149,8.78125 18.3125,8.50146487 18.3125,8.15625 C18.3125,6.60571288 17.0510254,5.34399413 15.5002441,5.34399413 C15.1552734,5.34399413 14.8752441,5.62377931 14.8752441,5.96899413 C14.8752441,6.314209 15.1550293,6.59399413 15.5002441,6.59399413 Z" id="Shape"></path>
                <path d="M11.0593262,21.2792969 C10.7143555,21.2792969 10.4343262,21.559082 10.4343262,21.9042969 C10.4343262,22.2495117 10.7143555,22.5292969 11.0593262,22.5292969 L11.0734863,22.5292969 C11.418457,22.5292969 11.6984863,22.2495117 11.6984863,21.9042969 C11.6984863,21.559082 11.418457,21.2792969 11.0734863,21.2792969 L11.0593262,21.2792969 Z" id="Shape"></path>
            </g>
        </g>
    </g>
</svg>