<svg width="80" height="78" xmlns="http://www.w3.org/2000/svg"><g fill="#FF7300" fill-rule="evenodd"><path d="M38.667 64h2.667v2.667h-2.667z"/><path d="M78.667 66.667h-1.334v-48A5.333 5.333 0 0 0 72 13.333h-5.333v-8A5.333 5.333 0 0 0 61.333 0h-32A5.333 5.333 0 0 0 24 5.333v1.334h-2.667A5.333 5.333 0 0 0 16 12v1.333H8a5.333 5.333 0 0 0-5.333 5.334v48H1.333C.597 66.667 0 67.264 0 68v4a5.333 5.333 0 0 0 5.333 5.333h69.334A5.333 5.333 0 0 0 80 72v-4c0-.736-.597-1.333-1.333-1.333zm-52-61.334a2.667 2.667 0 0 1 2.666-2.666h32A2.667 2.667 0 0 1 64 5.333v21.334a2.667 2.667 0 0 1-2.667 2.666h-2.666c-.42 0-.815.198-1.067.534l-2.933 3.91-2.934-3.91a1.334 1.334 0 0 0-1.066-.534H29.333a2.667 2.667 0 0 1-2.666-2.666V5.333zm-8 6.667a2.667 2.667 0 0 1 2.666-2.667H24v17.334A5.333 5.333 0 0 0 29.333 32h17.334v1.333A2.667 2.667 0 0 1 44 36h-9.333c-.42 0-.815.198-1.067.533l-2.933 3.911-2.934-3.91A1.334 1.334 0 0 0 26.667 36h-5.334a2.667 2.667 0 0 1-2.666-2.667V12zm2.666 26.667H26l3.6 4.8a1.333 1.333 0 0 0 2.133 0l3.6-4.8H44a5.333 5.333 0 0 0 5.333-5.334V32H50l3.6 4.8a1.333 1.333 0 0 0 2.133 0l3.6-4.8h2a5.333 5.333 0 0 0 5.334-5.333v-5.334h2.666v37.334H64v-1.334a6.666 6.666 0 0 0-2.941-5.526 5.334 5.334 0 1 0-7.451 0 6.666 6.666 0 0 0-2.941 5.526v1.334H29.333v-1.334a6.666 6.666 0 0 0-2.941-5.526 5.334 5.334 0 1 0-7.45 0A6.666 6.666 0 0 0 16 57.333v1.334h-5.333V21.333H16v12a5.333 5.333 0 0 0 5.333 5.334zm36 14.666a4 4 0 0 1 4 4v1.334h-8v-1.334a4 4 0 0 1 4-4zM54.667 48A2.667 2.667 0 1 1 60 48a2.667 2.667 0 0 1-5.333 0zm-32 5.333a4 4 0 0 1 4 4v1.334h-8v-1.334a4 4 0 0 1 4-4zM20 48a2.667 2.667 0 1 1 5.333 0A2.667 2.667 0 0 1 20 48zM5.333 18.667A2.667 2.667 0 0 1 8 16h8v2.667H9.333C8.597 18.667 8 19.264 8 20v40c0 .736.597 1.333 1.333 1.333h61.334c.736 0 1.333-.597 1.333-1.333V20c0-.736-.597-1.333-1.333-1.333h-4V16H72a2.667 2.667 0 0 1 2.667 2.667v48H52c-.354 0-.693.14-.943.39l-2.276 2.276H31.22l-2.276-2.276c-.25-.25-.59-.39-.943-.39H5.333v-48zm72 53.333a2.667 2.667 0 0 1-2.666 2.667H5.333A2.667 2.667 0 0 1 2.667 72v-2.667h24.781l2.276 2.276c.25.25.589.391.943.391h18.666c.354 0 .693-.14.943-.39l2.276-2.277h24.781V72z" fill-rule="nonzero"/><path d="M38.667 6.667H60v2.667H38.667zm-8 5.333H60v2.667H30.667zm0 5.333H60V20H30.667zm0 5.334h24v2.667h-24zm2.666-16H36v2.667h-2.667z"/></g></svg>