<svg width="62" height="62" xmlns="http://www.w3.org/2000/svg"><g fill="#FF7300"><path d="M25.655 4C13.695 4 4 13.695 4 25.655S13.695 47.31 25.655 47.31 47.31 37.615 47.31 25.655C47.297 13.7 37.61 4.013 25.655 4zm0 2.062a19.572 19.572 0 0 1 16 8.322l-2.578 2.578a4.07 4.07 0 0 0-2.08-.588 4.125 4.125 0 0 0-4.124 4.125 4.07 4.07 0 0 0 .585 2.082l-6.752 6.752a4 4 0 0 0-4.164 0l-4.69-4.69a4.07 4.07 0 0 0 .585-2.082 4.116 4.116 0 0 0-8.103-1.03H6.508a19.62 19.62 0 0 1 19.147-15.47zM39.06 20.5a2.062 2.062 0 1 1-4.124 0 2.062 2.062 0 0 1 4.124 0zM26.686 32.873a2.062 2.062 0 1 1-4.125 0 2.062 2.062 0 0 1 4.125 0zM16.374 22.561a2.062 2.062 0 1 1-4.124 0 2.062 2.062 0 0 1 4.124 0zm18.8 20.225a19.575 19.575 0 0 1-9.52 2.461c-10.812.008-19.584-8.752-19.592-19.565 0-.698.037-1.396.11-2.09h4.162a4.125 4.125 0 0 0 3.978 3.094 4.07 4.07 0 0 0 2.082-.585l4.69 4.69a4.07 4.07 0 0 0-.585 2.082 4.125 4.125 0 0 0 8.25 0 4.07 4.07 0 0 0-.585-2.082l6.752-6.752a4.07 4.07 0 0 0 2.082.585 4.125 4.125 0 0 0 4.125-4.125 4.07 4.07 0 0 0-.585-2.082l2.248-2.247c5.248 9.452 1.84 21.368-7.611 26.616z"/><path d="M51.583 10.315a4.125 4.125 0 0 0 3.978-3.093h6.334V5.159H55.56a4.125 4.125 0 0 0-3.978-3.093 4.125 4.125 0 0 0-4.125 4.124 4.07 4.07 0 0 0 .585 2.082l-1.812 1.812C37.56-1.21 21.378-3.338 10.084 5.331S-3.338 30.184 5.331 41.478c8.183 10.66 23.183 13.247 34.463 5.941l3.112 3.112 1.458 1.458 8.301 8.302a5.406 5.406 0 1 0 7.646-7.646l-8.301-8.3-1.459-1.459-3.112-3.112a25.694 25.694 0 0 0 0-27.982l2.063-2.063a4.07 4.07 0 0 0 2.08.586zm0-6.187a2.062 2.062 0 1 1 0 4.125 2.062 2.062 0 0 1 0-4.125zm7.27 49.975a3.344 3.344 0 1 1-4.73 4.73l-8.3-8.302 4.728-4.729 8.302 8.301zm-9.76-9.759l-4.729 4.73-2.854-2.855c.145-.111.282-.234.425-.349a25.98 25.98 0 0 0 1.13-.959c.112-.103.22-.206.33-.309.423-.396.832-.805 1.228-1.228l.31-.33a25.53 25.53 0 0 0 .959-1.13c.113-.143.236-.279.347-.424l2.854 2.854zm-3.999-4.79c-.324.454-.66.899-1.013 1.327-.103.124-.214.245-.32.368a23.231 23.231 0 0 1-2.492 2.492c-.123.103-.244.216-.368.32a24.07 24.07 0 0 1-1.326 1.013C28.9 52.701 14.064 50.23 6.437 39.554c-7.626-10.674-5.155-25.51 5.52-33.137 10.675-7.626 25.511-5.155 33.137 5.52a23.754 23.754 0 0 1 0 27.617z"/></g></svg>