<svg width="62" height="62" xmlns="http://www.w3.org/2000/svg"><g fill="#FF7300"><path d="M30 52h2.067v2.067H30z"/><path d="M60.967 53.733h-1.034v-37.2A4.133 4.133 0 0 0 55.8 12.4h-6.2V4.133A4.133 4.133 0 0 0 45.467 0H16.533A4.133 4.133 0 0 0 12.4 4.133V12.4H6.2a4.133 4.133 0 0 0-4.133 4.133v37.2H1.033c-.57 0-1.033.463-1.033 1.034v3.1A4.133 4.133 0 0 0 4.133 62h53.734A4.133 4.133 0 0 0 62 57.867v-3.1c0-.571-.463-1.034-1.033-1.034zm-46.5-49.6c0-1.141.925-2.066 2.066-2.066h28.934c1.141 0 2.066.925 2.066 2.066v4.134H14.467V4.133zm0 6.2h33.066V40.3a2.067 2.067 0 0 1-2.066 2.067H16.533a2.067 2.067 0 0 1-2.066-2.067V10.333zm2.066 34.1h28.934A4.133 4.133 0 0 0 49.6 40.3V18.6h4.133v28.933H8.267V18.6H12.4v21.7a4.133 4.133 0 0 0 4.133 4.133zm-12.4-27.9c0-1.141.926-2.066 2.067-2.066h6.2v2.066H7.233c-.57 0-1.033.463-1.033 1.034v31c0 .57.463 1.033 1.033 1.033h47.534c.57 0 1.033-.463 1.033-1.033v-31c0-.571-.463-1.034-1.033-1.034H49.6v-2.066h6.2c1.141 0 2.067.925 2.067 2.066v37.2H40.3c-.274 0-.537.109-.73.302L37.805 55.8H24.194l-1.763-1.765a1.033 1.033 0 0 0-.731-.302H4.133v-37.2zm55.8 41.334a2.067 2.067 0 0 1-2.066 2.066H4.133a2.067 2.067 0 0 1-2.066-2.066V55.8h19.205l1.764 1.764c.194.194.457.303.73.303h14.467c.274 0 .537-.11.73-.303l1.765-1.764h19.205v2.067z"/><path d="M18 33h26.867v2.067H18zm0 4h24.8v2.067H18zm6-8h20.667v2.067H24zM17 4h2.067v2.067H17zm4 0h2.067v2.067H21zm4 0h2.067v2.067H25zm-5 25h2.067v2.067H20zm7.787-11.347L26.547 16l-4.134 3.1a1.033 1.033 0 0 0 0 1.653l4.134 3.1 1.24-1.653-3.031-2.273 3.03-2.274zm12.793 1.654a1.037 1.037 0 0 0-.207-.207L36.24 16 35 17.653l3.03 2.274L35 22.2l1.24 1.653 4.133-3.1c.457-.342.55-.99.207-1.446zM28 24.333L32.135 14l1.919.768L29.919 25.1z"/></g></svg>