<svg width="34" height="34" xmlns="http://www.w3.org/2000/svg"><g fill="#FF7300"><path d="M10.35 23.686l-.019-.02a.664.664 0 0 0-.937.942l.022.022a.662.662 0 0 0 .94-.005.664.664 0 0 0-.005-.939z"/><path d="M24.607 9.393c-4.194-4.194-11.02-4.194-15.214 0a10.773 10.773 0 0 0-1.721 12.971.664.664 0 0 0 1.151-.663 9.442 9.442 0 0 1 1.51-11.369c3.676-3.676 9.658-3.676 13.335 0 3.677 3.677 3.677 9.66 0 13.336A9.432 9.432 0 0 1 12.25 25.15a.664.664 0 1 0-.67 1.147 10.761 10.761 0 0 0 13.025-1.69c4.195-4.195 4.195-11.02.001-15.214z"/><path d="M33.998 14.082a.664.664 0 0 0-.56-.655l-2.452-.389-1.3-3.136 1.457-2.009a.664.664 0 0 0-.068-.86l-4.119-4.115a.664.664 0 0 0-.86-.068L24.09 4.308 20.951 3.01l-.39-2.45a.664.664 0 0 0-.656-.56l-5.823.002a.664.664 0 0 0-.655.56l-.389 2.452-3.136 1.3-2.009-1.457a.664.664 0 0 0-.86.068L2.918 7.044a.664.664 0 0 0-.068.86L4.308 9.91 3.01 13.049l-2.45.39a.664.664 0 0 0-.56.656l.002 5.823c0 .326.238.604.56.655l2.452.389 1.3 3.136-1.457 2.009a.664.664 0 0 0 .068.86l4.119 4.115c.23.231.595.26.86.068l2.007-1.458 3.138 1.298.39 2.45c.051.323.33.56.656.56l5.823-.002a.664.664 0 0 0 .655-.56l.389-2.452 3.136-1.3 2.009 1.457a.664.664 0 0 0 .86-.068l4.115-4.119a.664.664 0 0 0 .068-.86l-1.458-2.007 1.298-3.138 2.45-.39a.664.664 0 0 0 .56-.656l-.002-5.823zm-3.583 5.616a.664.664 0 0 0-.51.402l-1.582 3.825a.664.664 0 0 0 .076.644l1.343 1.85-3.314 3.316-1.851-1.343a.664.664 0 0 0-.644-.076l-3.823 1.586a.664.664 0 0 0-.402.51l-.358 2.258-4.688.002-.36-2.258a.664.664 0 0 0-.402-.509l-3.825-1.583a.663.663 0 0 0-.644.077l-1.85 1.343-3.316-3.314 1.343-1.851a.664.664 0 0 0 .076-.645L4.098 20.11a.664.664 0 0 0-.51-.402L1.33 19.35l-.002-4.688 2.258-.36a.664.664 0 0 0 .509-.402l1.583-3.825a.664.664 0 0 0-.077-.644L4.258 7.58l3.314-3.316 1.851 1.343a.665.665 0 0 0 .645.075l3.822-1.585a.664.664 0 0 0 .402-.51l.358-2.258 4.689-.002.359 2.257a.663.663 0 0 0 .402.51l3.825 1.582c.213.089.457.06.644-.076l1.85-1.343 3.316 3.314-1.342 1.851a.664.664 0 0 0-.076.644l1.585 3.823a.664.664 0 0 0 .51.402l2.258.358.002 4.688-2.257.36z"/><path d="M23.05 17.827a3.678 3.678 0 0 0-3.049-.91L17.085 14a3.71 3.71 0 0 0-1.039-3.179 3.692 3.692 0 0 0-3.988-.817.664.664 0 0 0-.222 1.086l.962.963a.523.523 0 0 1-.739.74l-.966-.967a.664.664 0 0 0-1.085.22 3.713 3.713 0 0 0 .943 4.127 3.677 3.677 0 0 0 3.051.91l2.914 2.914a3.71 3.71 0 0 0 1.038 3.182 3.689 3.689 0 0 0 3.999.813.664.664 0 0 0 .22-1.086l-.958-.958a.523.523 0 0 1 .74-.74l.956.957a.664.664 0 0 0 1.086-.222 3.715 3.715 0 0 0-.947-4.116zm-.157 2.443a1.853 1.853 0 0 0-2.617 0 1.853 1.853 0 0 0 0 2.617l.032.033a2.363 2.363 0 0 1-1.415-.68 2.377 2.377 0 0 1-.613-2.288.664.664 0 0 0-.172-.64l-3.42-3.422a.664.664 0 0 0-.64-.172 2.361 2.361 0 0 1-2.966-2.025l.038.038a1.853 1.853 0 0 0 2.618 0 1.853 1.853 0 0 0 0-2.617l-.032-.032c.52.06 1.015.292 1.401.678.595.595.83 1.471.613 2.286a.664.664 0 0 0 .173.64l3.422 3.423c.168.167.41.233.64.172a2.363 2.363 0 0 1 2.202.53c.432.392.694.924.76 1.482l-.024-.023zm.173-8.012a7.719 7.719 0 0 0-4.37-2.77.664.664 0 1 0-.29 1.296 6.386 6.386 0 0 1 3.614 2.293.663.663 0 1 0 1.046-.82zm1.268 2.394l-.01-.03a.664.664 0 0 0-1.263.409l.008.026a.664.664 0 0 0 1.265-.405z"/></g></svg>