<svg width="64" height="55" xmlns="http://www.w3.org/2000/svg"><g fill="#FF7300"><path d="M55.25 23a1.25 1.25 0 1 0 .001 2.501A1.25 1.25 0 0 0 55.25 23zm-21-12.5a1.25 1.25 0 1 0-.001-2.501 1.25 1.25 0 0 0 .001 2.501z"/><path d="M60.25 15h-17V3.75A3.754 3.754 0 0 0 39.5 0H3.75A3.754 3.754 0 0 0 0 3.75v25a3.754 3.754 0 0 0 3.75 3.75H7.5v6.25c0 1.12 1.353 1.665 2.134.884l7.134-7.134h3.982v11.25a3.754 3.754 0 0 0 3.75 3.75h22.732l7.134 7.134c.782.782 2.134.233 2.134-.884V47.5h3.75A3.754 3.754 0 0 0 64 43.75v-25A3.754 3.754 0 0 0 60.25 15zm-51.5 2.499h12.215a3.737 3.737 0 0 0-.215 1.25V22.5h-12a1.25 1.25 0 1 0 0 2.5h12v5h-4.5c-.332 0-.65.132-.884.366L10 35.732V31.25c0-.69-.56-1.25-1.25-1.25h-5c-.69 0-1.25-.56-1.25-1.25v-25c0-.69.56-1.25 1.25-1.25H39.5c.69 0 1.25.56 1.25 1.25V15h-32a1.25 1.25 0 1 0 0 2.499zM61.5 43.75c0 .69-.56 1.25-1.25 1.25h-5c-.69 0-1.25.56-1.25 1.25v4.482l-5.366-5.366A1.25 1.25 0 0 0 47.75 45H24.5c-.69 0-1.25-.561-1.25-1.25v-25c0-.69.56-1.25 1.25-1.25h35.75c.69 0 1.25.56 1.25 1.25v25z"/><path d="M9.25 10.5H30A1.25 1.25 0 1 0 30 8H9.25a1.25 1.25 0 1 0 0 2.5zm20 15H50a1.25 1.25 0 1 0 0-2.5H29.25a1.25 1.25 0 1 0 0 2.5zM55 30H29.25a1.25 1.25 0 1 0 0 2.5H55a1.25 1.25 0 1 0 0-2.5zm0 8H29.25a1.25 1.25 0 1 0 0 2.5H55a1.25 1.25 0 1 0 0-2.5z"/></g></svg>