<svg width="80" height="82" xmlns="http://www.w3.org/2000/svg"><g fill="#FF7300" fill-rule="evenodd"><path d="M74.401 28.108a9.304 9.304 0 0 0 2.932-6.775C77.333 16.187 73.147 12 68 12s-9.333 4.187-9.333 9.333c0 3.275 1.698 6.156 4.257 7.822A6.664 6.664 0 0 0 60 34.667V44h-5.333v-6.667c0-4.77-3.6-8.712-8.227-9.261a9.298 9.298 0 0 0 2.893-6.739C49.333 16.187 45.147 12 40 12s-9.333 4.187-9.333 9.333a9.298 9.298 0 0 0 2.893 6.739c-4.627.55-8.227 4.49-8.227 9.261V44H20v-9.333a6.662 6.662 0 0 0-2.924-5.512c2.559-1.666 4.257-4.547 4.257-7.822C21.333 16.187 17.147 12 12 12s-9.333 4.187-9.333 9.333a9.304 9.304 0 0 0 2.932 6.775C2.432 28.623 0 31.356 0 34.667v20c0 3.218 2.295 5.912 5.333 6.532v20.134H8v-20h12V80c0 .736.597 1.333 1.333 1.333h8c.736 0 1.334-.597 1.334-1.333V58.667h8v20h-5.334v2.666h13.334v-2.666h-5.334v-20h8V80c0 .736.598 1.333 1.334 1.333h8c.736 0 1.333-.597 1.333-1.333V61.333h12v20h2.667V61.2C77.705 60.58 80 57.888 80 54.668v-20c0-3.311-2.432-6.044-5.599-6.559zm-13.068-6.775A6.674 6.674 0 0 1 68 14.667a6.674 6.674 0 0 1 6.667 6.666A6.674 6.674 0 0 1 68 28a6.674 6.674 0 0 1-6.667-6.667zm-28 0A6.674 6.674 0 0 1 40 14.667a6.674 6.674 0 0 1 6.667 6.666A6.674 6.674 0 0 1 40 28a6.674 6.674 0 0 1-6.667-6.667zm8.743 9.334L40 36.203l-2.076-5.536h4.152zM28 37.333a6.674 6.674 0 0 1 6.667-6.666h.409l3.676 9.801a1.333 1.333 0 0 0 2.497 0l3.675-9.801h.41A6.674 6.674 0 0 1 52 37.333V44h-5.333c-.736 0-1.334.597-1.334 1.333v5.334H34.667v-5.334c0-.736-.598-1.333-1.334-1.333H28v-6.667zm-22.667-16A6.674 6.674 0 0 1 12 14.667a6.674 6.674 0 0 1 6.667 6.666A6.674 6.674 0 0 1 12 28a6.674 6.674 0 0 1-6.667-6.667zM28 78.667h-5.333V60c0-.736-.598-1.333-1.334-1.333H6.667c-2.206 0-4-1.795-4-4v-20c0-2.206 1.794-4 4-4h6.666c2.206 0 4 1.794 4 4v10.666c0 .736.598 1.334 1.334 1.334H32v4H13.333v-12h-2.666V52c0 .736.597 1.333 1.333 1.333h12c2.205 0 4 1.795 4 4v21.334zM49.483 56H30.517a6.658 6.658 0 0 0-1.186-2.667h21.338A6.658 6.658 0 0 0 49.483 56zm27.85-1.333c0 2.205-1.794 4-4 4H58.667c-.736 0-1.334.597-1.334 1.333v18.667H52V57.333c0-2.205 1.795-4 4-4h12c.736 0 1.333-.597 1.333-1.333V38.667h-2.666v12H48v-4h13.333c.736 0 1.334-.598 1.334-1.334V34.667c0-2.206 1.794-4 4-4h6.666c2.206 0 4 1.794 4 4v20z" fill-rule="nonzero"/><path d="M38.667 44h2.667v2.667h-2.667z"/><path d="M33.333 0H14.667c-.736 0-1.334.597-1.334 1.333V8c0 .736.598 1.333 1.334 1.333H20V12a1.335 1.335 0 0 0 2.133 1.067l4.978-3.734h6.222c.736 0 1.334-.597 1.334-1.333V1.333C34.667.597 34.069 0 33.333 0zM32 6.667h-5.333c-.288 0-.57.093-.8.266l-3.2 2.4V8c0-.736-.598-1.333-1.334-1.333H16v-4h16v4z" fill-rule="nonzero"/><path d="M46.667 4h2.667v2.667h-2.667zM52 4h2.667v2.667H52zm5.333 0H60v2.667h-2.667z"/></g></svg>