<svg width="75" height="92" xmlns="http://www.w3.org/2000/svg"><g fill="#FF7300" fill-rule="evenodd"><path d="M75 46c0-8.09-2.61-15.576-7.022-21.68l6.65-6.648-8.395-8.395-6.65 6.65a36.879 36.879 0 0 0-17.228-6.748V2.968h2.968V0h-14.84v2.968h2.969v6.211a36.88 36.88 0 0 0-17.228 6.746l-6.65-6.65L1.18 17.67l6.65 6.65A36.88 36.88 0 0 0 .805 46c0 14.337 8.325 27.413 21.254 33.533C23.8 86.675 30.233 92 37.903 92c3.756 0 7.424-1.31 10.33-3.687l-1.882-2.296a13.373 13.373 0 0 1-8.448 3.015c-7.364 0-13.355-5.99-13.355-13.355 0-3.07 1.072-6.073 3.016-8.447l-2.296-1.882a16.31 16.31 0 0 0-2.555 4.403 28.14 28.14 0 0 1-3.66-2.803l3.11-3.11-2.097-2.099-3.118 3.118A28.21 28.21 0 0 1 9.76 47.484h4.401v-2.968H9.785a28.046 28.046 0 0 1 7.193-17.343l3.09 3.09 2.097-2.1-3.09-3.089a28.038 28.038 0 0 1 17.344-7.192v4.376h2.968v-4.376a28.046 28.046 0 0 1 17.344 7.192l-3.09 3.09 2.098 2.098 3.09-3.09a28.038 28.038 0 0 1 7.192 17.344h-4.376v2.968h4.401a28.21 28.21 0 0 1-7.187 17.373l-3.118-3.118-2.098 2.099 3.11 3.11a28.126 28.126 0 0 1-3.658 2.803c-2.379-6.075-8.285-10.396-15.192-10.396-3.755 0-7.423 1.31-10.329 3.687l1.882 2.296a13.373 13.373 0 0 1 8.447-3.015c7.365 0 13.355 5.99 13.355 13.354 0 3.072-1.072 6.074-3.015 8.448l2.296 1.882a16.324 16.324 0 0 0 3.214-6.479C66.679 73.406 75 60.338 75 46zm-8.767-32.528l4.198 4.198-4.3 4.3a37.652 37.652 0 0 0-4.198-4.198l4.3-4.3zM36.419 2.968h2.968V8.94a38.778 38.778 0 0 0-1.484-.037c-.497 0-.991.018-1.484.037V2.968zM5.375 17.67l4.198-4.198 4.3 4.3a37.652 37.652 0 0 0-4.197 4.198l-4.3-4.3zm48.838 58.315c.001-.103.013-.205.013-.308a16.18 16.18 0 0 0-.285-2.973c9.35-5.628 15.124-15.75 15.124-26.704 0-17.182-13.98-31.161-31.162-31.161S6.742 28.819 6.742 46c0 10.955 5.772 21.074 15.122 26.7a16.242 16.242 0 0 0-.283 2.977c0 .104.013.205.014.31C10.692 70.046 3.775 58.541 3.775 46c0-18.82 15.308-34.129 34.128-34.129S72.033 27.18 72.033 46c0 12.545-6.917 24.043-17.82 29.985z" fill-rule="nonzero"/><path d="M36.42 25.226v16.596c-1.724.614-2.968 2.246-2.968 4.178a4.457 4.457 0 0 0 4.451 4.452c1.932 0 3.564-1.245 4.179-2.968h10.66v-2.968h-10.66a4.444 4.444 0 0 0-2.695-2.694V25.226H36.42zm1.483 22.258a1.485 1.485 0 0 1 0-2.968 1.485 1.485 0 0 1 0 2.968z" fill-rule="nonzero"/><path d="M34.935 69.742h5.936c.819 0 1.484.665 1.484 1.484h2.968a4.457 4.457 0 0 0-4.452-4.452h-1.484V65.29H36.42v1.484h-1.484a4.457 4.457 0 0 0-4.451 4.452v1.484a4.457 4.457 0 0 0 4.451 4.451h5.936c.819 0 1.484.665 1.484 1.484v1.484c0 .819-.665 1.484-1.484 1.484h-5.936a1.485 1.485 0 0 1-1.483-1.484h-2.968a4.457 4.457 0 0 0 4.451 4.452h1.484v1.484h2.968V84.58h1.484a4.457 4.457 0 0 0 4.452-4.452v-1.484a4.457 4.457 0 0 0-4.452-4.451h-5.936a1.485 1.485 0 0 1-1.483-1.484v-1.484c0-.819.665-1.484 1.483-1.484z"/></g></svg>