<svg width="197" height="32" xmlns="http://www.w3.org/2000/svg"><path d="M112.754 3.225a.899.899 0 1 1 0-1.798h10.152a2.728 2.728 0 0 1 2.729 2.728V29.81a.899.899 0 1 1-1.798 0V4.155a.93.93 0 0 0-.93-.93h-10.153zM99.62 30.71a.899.899 0 1 1 0-1.799h16.666a.899.899 0 1 1 0 1.798H99.62z"/><path d="M136.719 1.427a.899.899 0 1 1 0 1.798h-10.153a.931.931 0 0 0-.931.93V29.81a.899.899 0 1 1-1.798 0V4.155a2.729 2.729 0 0 1 2.729-2.728h10.153zm16.461 27.986a.899.899 0 1 1 0 1.798c-8.911 0-14.64-5.301-14.64-15.17 0-9.868 5.729-15.17 14.64-15.17a.899.899 0 1 1 0 1.798c-7.948 0-12.842 4.53-12.842 13.373 0 8.842 4.894 13.371 12.842 13.371z"/><path d="M153.175 31.211a.899.899 0 1 1 0-1.798c7.948 0 12.843-4.529 12.843-13.371 0-8.844-4.895-13.373-12.843-13.373a.899.899 0 1 1 0-1.798c8.911 0 14.64 5.302 14.64 15.17 0 9.869-5.729 15.17-14.64 15.17zm41.489-19.951a.899.899 0 0 1 1.798 0c0 5.893-3.542 9.72-10.061 9.72h-12.817a.899.899 0 1 1 0-1.797H186.4c5.493 0 8.263-2.993 8.263-7.923z"/><path d="M174.483 3.34v26.47a.899.899 0 1 1-1.798 0V2.442a.9.9 0 0 1 .899-.9H186.4c6.52 0 10.06 3.828 10.06 9.722a.899.899 0 1 1-1.797 0c0-4.931-2.77-7.923-8.263-7.923h-11.918zM49.532 29.413a.899.899 0 1 1 0 1.798c-8.912 0-14.641-5.301-14.641-15.17 0-9.868 5.73-15.17 14.64-15.17a.899.899 0 1 1 0 1.798c-7.948 0-12.842 4.53-12.842 13.373 0 8.842 4.895 13.371 12.843 13.371z"/><path d="M49.526 31.211a.899.899 0 1 1 0-1.798c7.948 0 12.843-4.529 12.843-13.371 0-8.844-4.895-13.373-12.843-13.373a.899.899 0 1 1 0-1.798c8.912 0 14.64 5.302 14.64 15.17 0 9.869-5.729 15.17-14.64 15.17zm56.148-27.878a.899.899 0 1 1-1.657.697.93.93 0 0 0-.858-.568.899.899 0 1 1 0-1.798c1.107 0 2.093.666 2.515 1.669z"/><path d="M102.301 4.031a.899.899 0 1 1-1.656-.7 2.729 2.729 0 0 1 2.514-1.667.899.899 0 1 1 0 1.798.931.931 0 0 0-.858.57zm1.721.011a.899.899 0 0 1 1.647-.721l11.44 26.128a.899.899 0 0 1-1.647.721l-11.44-26.128z"/><path d="M100.65 3.32a.899.899 0 0 1 1.646.722L90.856 30.17a.899.899 0 0 1-1.647-.72l11.44-26.13zM76.634 29.04a.899.899 0 1 1 1.657-.698.93.93 0 0 0 .857.57.899.899 0 0 1 0 1.797 2.728 2.728 0 0 1-2.514-1.669z"/><path d="M80.007 28.342a.899.899 0 0 1 1.656.698 2.728 2.728 0 0 1-2.514 1.67.899.899 0 1 1 0-1.799.93.93 0 0 0 .858-.57zm-1.721-.012a.899.899 0 0 1-1.647.722L65.199 2.924a.899.899 0 1 1 1.647-.721l11.44 26.127z"/><path d="M81.658 29.052a.899.899 0 0 1-1.647-.722l11.44-26.127a.899.899 0 0 1 1.648.721l-11.44 26.128zM2.67 29.81a.899.899 0 1 1-1.798 0V4.392a.899.899 0 0 1 1.798 0V29.81z"/><path d="M2.67 4.393a.899.899 0 1 1-1.798 0A2.728 2.728 0 0 1 3.6 1.664a.899.899 0 1 1 0 1.798.93.93 0 0 0-.93.93z"/><path d="M3.6 3.462a.899.899 0 0 1 0-1.798c.824 0 1.59.369 2.105.991a.899.899 0 1 1-1.386 1.146.928.928 0 0 0-.719-.339zm24.817-.899a.899.899 0 1 1 1.798 0V27.98a.899.899 0 1 1-1.798 0V2.563z"/><path d="M28.417 27.98a.899.899 0 1 1 1.798 0 2.73 2.73 0 0 1-2.729 2.73.899.899 0 1 1 0-1.799.931.931 0 0 0 .931-.93z"/><path d="M27.487 28.911a.899.899 0 1 1 0 1.798 2.73 2.73 0 0 1-2.105-.992.899.899 0 1 1 1.386-1.146c.177.215.437.34.719.34z"/><path d="M4.314 3.796A.899.899 0 0 1 5.71 2.662l21.064 25.914a.899.899 0 1 1-1.396 1.135L4.314 3.796zm190.09 25.537a.899.899 0 1 1-1.523.955l-6.04-9.636a.899.899 0 0 1 1.523-.955l6.04 9.636z"/></svg>