<svg width="30" height="31" xmlns="http://www.w3.org/2000/svg"><g fill="#FF7300"><path d="M29.95 29.937V11.046c0-.195-.245-.44-.483-.621l-4.94-3.584v-3.96a.656.656 0 0 0-.653-.653h-5.63L15.378.138a.708.708 0 0 0-.722 0l-2.868 2.09h-5.63a.656.656 0 0 0-.653.653v3.916L.502 10.431c-.295.182-.483.42-.483.621V30.07c0 .37.295.628.602.653h28.67c.42-.007.659-.333.659-.785zM28.707 12.22v16.544l-10.801-8.649 10.801-7.895zm-.483-1.149l-3.697 2.693v-5.41l3.697 2.717zM14.987 1.374l1.149.848h-2.303l1.154-.848zm8.235 2.16v11.184l-8.235 6-8.234-6V3.533h16.469zM1.268 12.22l10.801 7.895-10.801 8.699V12.22zm4.242 1.594l-3.79-2.762 3.79-2.755v5.517zM2.441 29.473l10.676-8.592 1.475 1.08c.282.213.496.213.785 0l1.474-1.08 10.739 8.592H2.441z"/><path d="M10.613 6.734h8.818v1.243h-8.818zm0 3.986h8.818v1.243h-8.818zm0 3.985h8.818v1.243h-8.818z"/></g></svg>