<svg width="81" height="80" xmlns="http://www.w3.org/2000/svg"><g fill="#FF7300" fill-rule="evenodd"><path d="M76.806 34.667H50.14a4 4 0 0 0-4 4V76a4 4 0 0 0 4 4h26.666a4 4 0 0 0 4-4V38.667a4 4 0 0 0-4-4zM62.14 77.333h-12A1.333 1.333 0 0 1 48.806 76v-9.333H62.14v10.666zm0-13.333H48.806V53.333H62.14V64zm16 12c0 .736-.597 1.333-1.334 1.333h-12V66.667H78.14V76zm0-12H64.806V53.333H78.14V64zm0-13.333H48.806v-12c0-.737.597-1.334 1.334-1.334h26.666c.737 0 1.334.597 1.334 1.334v12z" fill-rule="nonzero"/><path d="M74.14 40H52.806c-.736 0-1.333.597-1.333 1.333v5.334c0 .736.597 1.333 1.333 1.333H74.14c.736 0 1.333-.597 1.333-1.333v-5.334c0-.736-.597-1.333-1.333-1.333zm-1.334 5.333H54.14v-2.666h18.666v2.666z" fill-rule="nonzero"/><path d="M56.806 57.333v-2.666H54.14v2.666h-2.667V60h2.667v2.667h2.666V60h2.667v-2.667zm10.667 0h8V60h-8zm-8.229 12.943l-1.886-1.885-1.885 1.885-1.885-1.885-1.886 1.885 1.886 1.885-1.886 1.886 1.886 1.885 1.885-1.885 1.885 1.885 1.886-1.885-1.886-1.886zm8.229.391h8v2.667h-8zM70.14 74h2.666v1.333H70.14zm0-5.333h2.666V70H70.14z"/><path d="M54.14 0H15.473v.012a1.324 1.324 0 0 0-.943.379L1.197 13.724a1.32 1.32 0 0 0-.379.943H.806v62.666A2.667 2.667 0 0 0 3.473 80h40v-2.667h-8v-4h2.667c.736 0 1.333-.597 1.333-1.333v-6.667c0-.736-.597-1.333-1.333-1.333h-2.667v-4h2.667c.736 0 1.333-.597 1.333-1.333V52c0-.736-.597-1.333-1.333-1.333h-.035A13.307 13.307 0 0 0 43.473 40c.014-7.364-5.944-13.345-13.307-13.36-7.364-.014-13.345 5.944-13.36 13.308a13.333 13.333 0 0 0 5.368 10.719h-10.7c-.737 0-1.334.597-1.334 1.333v5.333H7.473c-.736 0-1.333.597-1.333 1.334v6.666c0 .737.597 1.334 1.333 1.334h2.667v4H7.473c-.736 0-1.333.597-1.333 1.333v5.333H3.473V16H14.14a2.667 2.667 0 0 0 2.666-2.667V2.667H54.14V32h2.666V2.667A2.667 2.667 0 0 0 54.14 0zM36.806 66.667v4h-24v-4h24zM19.473 40c0-5.891 4.776-10.667 10.667-10.667 5.89 0 10.666 4.776 10.666 10.667S36.031 50.667 30.14 50.667C24.25 50.66 19.48 45.888 19.473 40zm-6.667 13.333h24v4h-24v-4zM8.806 64v-4h24v4h-24zm0 9.333h24v4h-24v-4zm5.334-60H5.358l8.782-8.781v8.781z" fill-rule="nonzero"/><path d="M30.14 36h4v-2.667h-2.667V32h-2.667v1.579a3.99 3.99 0 0 0 1.334 7.754 1.333 1.333 0 0 1 0 2.667h-4v2.667h2.666V48h2.667v-1.579a3.99 3.99 0 0 0-1.333-7.754 1.333 1.333 0 0 1 0-2.667z"/><path d="M75.473 6.667h-2.667c0-.737-.597-1.334-1.333-1.334H70.14v-4C70.14.597 69.543 0 68.806 0h-5.333c-.736 0-1.333.597-1.333 1.333v4h-1.334c-.736 0-1.333.597-1.333 1.334V32h2.667V8h8v24h2.666V9.333h2.667v17.334h2.667V9.333a2.667 2.667 0 0 0-2.667-2.666zm-8-1.334h-2.667V2.667h2.667v2.666z" fill-rule="nonzero"/><path d="M20.806 10.667h22.667v2.667H20.806zm-14.666 8h45.332v2.667H6.14zm0 5.333h16v2.667h-16zm33.333 0h12v2.667h-12z"/></g></svg>