<svg width="64" height="64" xmlns="http://www.w3.org/2000/svg"><g fill="#FF7300"><path d="M33.134 30.367a1.25 1.25 0 1 0-1.768 1.767 1.25 1.25 0 0 0 1.768-1.767zm16.532-15.535a6.247 6.247 0 0 0-8.839 0 6.258 6.258 0 0 0 0 8.84 6.258 6.258 0 0 0 8.84-.001 6.247 6.247 0 0 0 0-8.84zm-1.768 7.071a3.755 3.755 0 0 1-5.303 0 3.755 3.755 0 0 1 0-5.303 3.748 3.748 0 0 1 5.303 0 3.748 3.748 0 0 1 0 5.303z"/><path d="M63.632.366a1.246 1.246 0 0 0-.93-.365c-.282.01-7.011.28-15.01 3.108-6.41 2.263-11.754 5.504-15.88 9.631a47.567 47.567 0 0 0-2.687 2.925c-4.08-2.403-7.351-1.65-9.419-.543C14.946 17.669 12 24.586 12 29.534a1.25 1.25 0 0 0 2.134.884c2.51-2.51 5.607-2.354 6.619-2.22l.437.437a43.966 43.966 0 0 0-2.064 6.071 3.538 3.538 0 0 0 .151 2.172 11.837 11.837 0 0 0-3.376 2.38c-3.217 3.217-3.87 11.059-3.897 11.391a1.25 1.25 0 0 0 1.345 1.345c.332-.026 8.174-.68 11.392-3.897a11.838 11.838 0 0 0 2.379-3.375 3.53 3.53 0 0 0 2.172.15 43.971 43.971 0 0 0 6.07-2.064l.438.438c.133 1.011.29 4.108-2.22 6.618a1.25 1.25 0 0 0 .884 2.134c4.947 0 11.864-2.947 14.412-7.707 1.106-2.067 1.86-5.337-.543-9.418 1.019-.861 2-1.761 2.925-2.686 4.127-4.128 7.367-9.47 9.63-15.88 2.828-8 3.099-14.73 3.109-15.012a1.25 1.25 0 0 0-.365-.929zm-48.837 26.48c.776-3.759 3.032-7.882 6.092-9.52 2.044-1.094 4.28-.987 6.656.314a50.541 50.541 0 0 0-5.252 8.56c-.018-.01-.243-.294-.661-.388-.172-.039-3.48-.75-6.835 1.033zm8.178 19.483c-1.719 1.719-5.75 2.625-8.3 2.995.371-2.548 1.278-6.58 2.996-8.299.963-.962 2.079-1.692 3.2-2.103l4.207 4.207c-.411 1.121-1.14 2.237-2.103 3.2zm5.699-3.879c-.362.093-.781-.043-1.093-.354a23214.959 23214.959 0 0 0-5.676-5.676c-.312-.313-.448-.732-.356-1.093.4-1.56.924-3.159 1.561-4.774L33.445 40.89a40.56 40.56 0 0 1-4.773 1.56zm18 .661c-1.638 3.06-5.761 5.316-9.519 6.092 1.198-2.254 1.462-5.125 1.025-6.865-.102-.404-.366-.607-.38-.631a50.56 50.56 0 0 0 8.56-5.252c1.301 2.377 1.408 4.612.314 6.656zM49.49 30.42a45.37 45.37 0 0 1-3.605 3.234 48.025 48.025 0 0 1-9.965 6.177L24.168 28.078a48.017 48.017 0 0 1 6.177-9.965 45.362 45.362 0 0 1 3.234-3.605c3.703-3.703 8.483-6.65 14.21-8.772L58.261 16.21c-2.121 5.726-5.068 10.505-8.772 14.209zm9.672-16.846l-8.737-8.737c4.76-1.478 8.9-2.032 10.968-2.23-.2 2.067-.753 6.208-2.231 10.967z"/><path d="M29.669 51.366a1.25 1.25 0 0 0-1.768 0l-3.535 3.536a1.25 1.25 0 0 0 1.768 1.768l3.535-3.536a1.25 1.25 0 0 0 0-1.768zm-16.999-17a1.25 1.25 0 0 0-1.767 0l-3.537 3.535a1.25 1.25 0 0 0 1.768 1.768l3.536-3.535a1.25 1.25 0 0 0 0-1.768zm8.931 19a1.25 1.25 0 0 0-1.767 0l-8.468 8.466a1.25 1.25 0 1 0 1.768 1.768l8.467-8.466a1.25 1.25 0 0 0 0-1.768zm-10 0a1.25 1.25 0 0 0-1.767 0l-8.468 8.466A1.25 1.25 0 1 0 3.134 63.6l8.467-8.466a1.25 1.25 0 0 0 0-1.768zm-1.001-11a1.25 1.25 0 0 0-1.768 0L.366 50.834A1.25 1.25 0 0 0 2.134 52.6l8.466-8.467a1.25 1.25 0 0 0 0-1.768zm28.301-17a1.25 1.25 0 0 0-1.767 0l-1.768 1.768a1.25 1.25 0 0 0 1.768 1.767l1.767-1.767a1.25 1.25 0 0 0 0-1.768z"/></g></svg>