<svg width="32" height="32" xmlns="http://www.w3.org/2000/svg"><g fill="#FF7300"><path d="M2.074 2.06h1.03v1.03h-1.03zm2.061 0h1.03v1.03h-1.03zm2.06 0h1.03v1.03h-1.03zm10.059 9.784l-.272-.17-.272.17a17.233 17.233 0 0 1-7 2.459l-.455.054v4.2c0 4.936 2.958 9.312 7.534 11.148l.193.077.192-.077a11.955 11.955 0 0 0 7.534-11.148v-4.2l-.454-.054a17.235 17.235 0 0 1-7-2.46zm6.424 6.713c0 4.443-2.621 8.39-6.696 10.113a10.928 10.928 0 0 1-6.697-10.113v-3.292a18.29 18.29 0 0 0 6.697-2.38 18.292 18.292 0 0 0 6.696 2.38v3.292z"/><path d="M31.95 0H.013v28.845h10.66a14.05 14.05 0 0 0 5.145 3.064l.163.055.162-.055a14.047 14.047 0 0 0 5.145-3.064h10.66V0zm-1.03 1.03v3.09H1.043V1.03h29.875zM15.981 30.877a13.027 13.027 0 0 1-8.757-12.32v-5.173a16.08 16.08 0 0 0 8.757-2.96 16.086 16.086 0 0 0 8.756 2.96v5.173a13.027 13.027 0 0 1-8.756 12.32zm6.309-3.062a14.048 14.048 0 0 0 3.477-9.258v-6.195h-.515c-3.21 0-6.394-1.06-8.962-2.987l-.31-.232-.308.232a15.033 15.033 0 0 1-8.963 2.987h-.515v6.195c0 3.495 1.289 6.753 3.477 9.258H1.044V5.15h29.875v22.664h-8.628z"/><path d="M13.406 17.513v1.64c-.598.213-1.03.78-1.03 1.45v4.121c0 .852.693 1.546 1.545 1.546h4.121c.852 0 1.545-.694 1.545-1.546v-4.12c0-.67-.432-1.238-1.03-1.45v-1.64a2.578 2.578 0 0 0-2.575-2.576 2.578 2.578 0 0 0-2.576 2.575zm5.151 7.211a.516.516 0 0 1-.515.515h-4.12a.516.516 0 0 1-.516-.515v-4.12c0-.284.232-.515.515-.515h4.121c.284 0 .515.23.515.515v4.12zm-1.03-7.21v1.544h-3.09v-1.545c0-.852.693-1.545 1.545-1.545s1.545.693 1.545 1.545z"/><path d="M15.982 20.604c-.852 0-1.546.693-1.546 1.545 0 .67.433 1.237 1.03 1.45v1.125h1.03V23.6a1.543 1.543 0 0 0 1.03-1.45c0-.852-.692-1.545-1.544-1.545zm0 2.06a.516.516 0 0 1 0-1.03.516.516 0 0 1 0 1.03zM2.074 6.181h14.423v1.03H2.074zm0 2.06h10.302v1.03H2.074zm0 2.061h6.181v1.03h-6.18z"/></g></svg>