<svg width="32" height="32" xmlns="http://www.w3.org/2000/svg"><g fill="#FF7300"><path d="M27.263 4.707a15.81 15.81 0 0 0-6.38-3.91L20.64.723a.592.592 0 1 0-.344 1.133l.22.069c7.77 2.514 12.029 10.85 9.514 18.62a14.785 14.785 0 0 1-2.166 4.22 2.426 2.426 0 0 0-2.695.44 2.37 2.37 0 1 0 3.609.318 15.96 15.96 0 0 0-1.516-20.816zm.419 23.01a1.211 1.211 0 0 1-1.673 0 1.183 1.183 0 1 1 1.673 0zM10.04 2.395a.582.582 0 0 0 .228-.046c.35-.145.71-.279 1.065-.396a.592.592 0 1 0-.37-1.124c-.387.127-.774.271-1.15.428a.592.592 0 0 0 .228 1.138zm6.904-1.151c.375.025.756.064 1.133.118A.592.592 0 1 0 18.243.19c-.405-.059-.817-.1-1.22-.126a.593.593 0 0 0-.079 1.183v-.003zm-3.499.176a.537.537 0 0 0 .097-.01 16.6 16.6 0 0 1 1.13-.141.593.593 0 1 0-.105-1.182c-.408.037-.818.088-1.217.154a.592.592 0 0 0 .095 1.176v.002zm4.938 29.176c-.374.06-.754.11-1.13.142a.592.592 0 1 0 .05 1.183h.053c.406-.035.816-.086 1.219-.152a.592.592 0 0 0 .487-.68.585.585 0 0 0-.663-.495l-.016.002zm3.274-.936c-.351.146-.71.28-1.065.396a.592.592 0 1 0 .368 1.125c.386-.127.774-.27 1.152-.428a.592.592 0 0 0-.454-1.093h-.001zm-6.677 1.1c-.38-.024-.76-.064-1.131-.118a.592.592 0 0 0-.17 1.17c.402.06.813.103 1.222.13h.04a.592.592 0 1 0 .038-1.184v.002zm-3.35-.614a13.137 13.137 0 0 1-.782-.262C3.187 27.054-.731 18.55 2.098 10.889a14.79 14.79 0 0 1 1.963-3.643 2.362 2.362 0 0 0 2.702-3.794 2.421 2.421 0 0 0-3.346 0 2.356 2.356 0 0 0-.262 3.028c-5.263 7.08-3.79 17.087 3.29 22.35a15.979 15.979 0 0 0 4.837 2.447.591.591 0 0 0 .346-1.131h.001zM4.252 4.288a1.183 1.183 0 1 1 1.702 1.644l-.029.03a1.211 1.211 0 0 1-1.673 0 1.183 1.183 0 0 1 0-1.674z"/><path d="M25.391 20.947a10.586 10.586 0 0 0 0-9.89c-.006-.015-.015-.03-.022-.045-2.75-5.193-9.19-7.172-14.382-4.421a10.642 10.642 0 0 0-4.421 4.42c-.008.016-.016.03-.022.047a10.585 10.585 0 0 0 0 9.89c.006.015.014.03.022.045 2.75 5.192 9.19 7.172 14.382 4.421a10.637 10.637 0 0 0 4.421-4.421c.006-.015.016-.03.022-.046zM12.01 7.415l-.383 1.278c-.196.656-.364 1.32-.507 1.985H8.147a9.522 9.522 0 0 1 3.862-3.263zM7.47 11.86h3.427a25.27 25.27 0 0 0-.335 3.55H6.53a9.372 9.372 0 0 1 .938-3.55zm-.938 4.733h4.03c.028 1.19.14 2.376.335 3.55H7.469a9.372 9.372 0 0 1-.938-3.55zm1.616 4.733h2.972c.143.666.31 1.328.507 1.985l.383 1.278a9.518 9.518 0 0 1-3.862-3.263zm7.229 4.112a9.385 9.385 0 0 1-1.976-.333l-.64-2.133a24.09 24.09 0 0 1-.43-1.646h3.046v4.112zm0-5.295h-3.269a24.125 24.125 0 0 1-.351-3.55h3.62v3.55zm0-4.733h-3.62c.03-1.19.147-2.377.351-3.55h3.269v3.55zm0-4.733H12.33c.124-.552.265-1.1.43-1.646L13.4 6.9a9.385 9.385 0 0 1 1.976-.334v4.112zm10.028 4.733h-4.12a25.419 25.419 0 0 0-.334-3.55h3.516a9.38 9.38 0 0 1 .938 3.55zm-1.616-4.733h-3.061a25.752 25.752 0 0 0-.507-1.985l-.4-1.328a9.521 9.521 0 0 1 3.968 3.313zM16.56 6.566a9.388 9.388 0 0 1 1.88.308l.647 2.157c.163.545.305 1.094.429 1.646H16.56v-4.11zm0 5.294h3.18c.204 1.173.322 2.36.35 3.55h-3.53v-3.55zm2.527 11.112l-.647 2.157a9.426 9.426 0 0 1-1.88.309v-4.112h2.958a25.87 25.87 0 0 1-.431 1.646zm-2.527-2.829v-3.55h3.53a24.158 24.158 0 0 1-.35 3.55h-3.18zm3.262 4.497l.399-1.329c.197-.657.363-1.32.507-1.985h3.06a9.523 9.523 0 0 1-3.966 3.314zm1.13-4.497c.194-1.174.305-2.36.334-3.55h4.119a9.38 9.38 0 0 1-.938 3.55H20.95z"/></g></svg>