<svg width="32" height="29" xmlns="http://www.w3.org/2000/svg"><g fill="#FF7300"><path d="M4.8 16.533H3.2a.533.533 0 0 0 0 1.067h1.6a.533.533 0 0 0 0-1.067zm-1.6-3.2h5.867a.533.533 0 1 0 0-1.066H3.2a.533.533 0 0 0 0 1.066zm8 0h7.467a.533.533 0 0 0 0-1.066H11.2a.533.533 0 0 0 0 1.066zM6.933 14.4H3.2a.533.533 0 0 0 0 1.067h3.733a.533.533 0 0 0 0-1.067zm10.134 0h-8a.533.533 0 0 0 0 1.067h8a.533.533 0 1 0 0-1.067zm5.866 6.933h3.734a.533.533 0 0 0 0-1.066h-3.734a.533.533 0 1 0 0 1.066zm6.4-1.066H28.8a.533.533 0 1 0 0 1.066h.533a.533.533 0 1 0 0-1.066zM23.467 22.4h-.534a.533.533 0 1 0 0 1.067h.534a.533.533 0 1 0 0-1.067zm5.866 0H25.6a.533.533 0 1 0 0 1.067h3.733a.533.533 0 1 0 0-1.067zM3.2 11.2h5.333c.59 0 1.067-.478 1.067-1.067v-6.4c0-.589-.477-1.066-1.067-1.066H3.2c-.59 0-1.067.477-1.067 1.066v6.4c0 .59.478 1.067 1.067 1.067zm0-7.467h5.333v6.4H3.2v-6.4zM28.8 12.8h-5.333c-.59 0-1.067.478-1.067 1.067v4.266c0 .59.477 1.067 1.067 1.067H28.8c.59 0 1.067-.478 1.067-1.067v-4.266c0-.59-.478-1.067-1.067-1.067zm-5.333 5.333v-4.266H28.8v4.266h-5.333zm-11.2-6.933H17.6c.59 0 1.067-.478 1.067-1.067v-6.4c0-.589-.478-1.066-1.067-1.066h-5.333c-.59 0-1.067.477-1.067 1.066v6.4c0 .59.477 1.067 1.067 1.067zm0-7.467H17.6v6.4h-5.333v-6.4z"/><path d="M29.867 7.467v-4.8A2.67 2.67 0 0 0 27.2 0H2.667A2.67 2.67 0 0 0 0 2.667v19.2a2.67 2.67 0 0 0 2.667 2.666H11.2V25.6H9.067a2.133 2.133 0 0 0-2.134 2.133v.534c0 .294.24.533.534.533h22.4A2.133 2.133 0 0 0 32 26.667V9.6a2.133 2.133 0 0 0-2.133-2.133zm-9.6 17.066V25.6h-1.6v-1.067h1.6zm6.4-17.066H22.4a2.115 2.115 0 0 0-1.067.296v-4.03h5.334v3.734zm-5.334 4.266h9.6v12.8h-9.6v-12.8zm9.6-2.133v1.067h-9.6V9.6c0-.589.478-1.067 1.067-1.067h7.467c.589 0 1.066.478 1.066 1.067zM2.667 1.067H27.2a1.6 1.6 0 0 1 1.6 1.6v4.8h-1.067V3.733c0-.589-.477-1.066-1.066-1.066h-5.334c-.589 0-1.066.477-1.066 1.066V14.4H19.2a.533.533 0 0 0 0 1.067h1.067v1.066H6.933a.533.533 0 1 0 0 1.067h13.334v1.6h-19.2V2.667a1.6 1.6 0 0 1 1.6-1.6zm-1.6 20.8v-1.6h19.2v3.2h-17.6a1.6 1.6 0 0 1-1.6-1.6zm11.2 2.666H17.6V25.6h-5.333v-1.067zm-3.2 2.134h11.2c.002.375.104.743.296 1.066H8c0-.589.478-1.066 1.067-1.066zm20.8 1.066h-3.2V27.2a.533.533 0 0 0-1.067 0v.533h-3.2c-.59 0-1.067-.477-1.067-1.066V25.6h9.6v1.067c0 .589-.477 1.066-1.066 1.066z"/></g></svg>