<svg width="64" height="64" xmlns="http://www.w3.org/2000/svg"><g fill="#FF7300"><path d="M51.864 55.42l-2.39-7.17a7.226 7.226 0 0 0-5.563-4.824l-6.898-1.256v-.534a10.389 10.389 0 0 0 3.077-2.733h2.084a3.1 3.1 0 0 0 3.097-3.097V23.42C45.27 16.02 39.25 10 31.85 10c-7.399 0-13.419 6.02-13.419 13.42v7.225a4.136 4.136 0 0 0 3.292 4.044 10.342 10.342 0 0 0 4.966 6.947v.534l-6.9 1.256a7.225 7.225 0 0 0-5.561 4.823l-.413 1.24-3.516-3.516a1.034 1.034 0 0 1 0-1.46l4.077-4.077-7.653-7.653-4.608 4.608A7.179 7.179 0 0 0 0 42.501c0 1.93.751 3.744 2.116 5.108L16.067 61.56a7.18 7.18 0 0 0 5.11 2.117c1.93 0 3.744-.752 5.076-2.086l5.029-4.607-1.568-1.565h22.15zm-8.658-19.614c0 .57-.463 1.033-1.032 1.033h-.868c.3-.683.526-1.402.673-2.15a4.089 4.089 0 0 0 1.227-.489v1.606zm-1.032-3.383v-3.555a2.058 2.058 0 0 1 1.032 1.777c0 .76-.418 1.42-1.032 1.778zm-20.645 0a2.058 2.058 0 0 1-1.032-1.778c0-.76.418-1.42 1.032-1.777v3.555zm0-6.94v1.18c-.368.096-.712.24-1.032.427v-3.67c0-6.261 5.094-11.355 11.354-11.355 6.261 0 11.355 5.094 11.355 11.354v3.671a4.057 4.057 0 0 0-1.032-.427v-1.18h-1.032a11.355 11.355 0 0 1-8.082-3.347l-1.209-1.209-1.208 1.21a11.357 11.357 0 0 1-8.082 3.347h-1.032zm2.064 7.227v-5.2c3.1-.234 5.99-1.513 8.258-3.67a13.378 13.378 0 0 0 8.258 3.67v5.2c0 1.505-.41 2.913-1.116 4.129H31.85v2.064h5.444a8.214 8.214 0 0 1-5.444 2.065c-4.553 0-8.258-3.705-8.258-8.258zm11.355 9.846v.049l-3.097 3.097-3.096-3.097v-.049a10.308 10.308 0 0 0 6.193 0zm-18.762 6.346a5.163 5.163 0 0 1 3.973-3.447l7.215-1.311 4.477 4.477 4.476-4.476 7.215 1.311a5.161 5.161 0 0 1 3.973 3.447L49 53.355H27.65l-4.02-4.02-4.468 4.04c-.39.392-1.07.392-1.46 0l-2.254-2.254.739-2.22zm-9.463-13.2l4.734 4.734-1.121 1.121-4.734-4.734 1.121-1.12zm18.1 24.4a5.135 5.135 0 0 1-3.648 1.51 5.133 5.133 0 0 1-3.65-1.511L3.574 46.15a5.128 5.128 0 0 1-1.512-3.65 5.13 5.13 0 0 1 1.512-3.65l.567-.567 4.734 4.734-.037.037a3.102 3.102 0 0 0 0 4.38l7.403 7.402a3.08 3.08 0 0 0 2.19.908 3.04 3.04 0 0 0 2.152-.872l.078-.069 4.755 4.756-.592.543zm2.117-1.94l-4.745-4.745 1.363-1.233 4.737 4.737-1.355 1.241zM60.548 0H46.097A3.1 3.1 0 0 0 43 3.097v8.258a3.1 3.1 0 0 0 3.097 3.097h2.757l-1.067 6.225 9.96-6.225h2.801a3.1 3.1 0 0 0 3.097-3.097V3.097A3.1 3.1 0 0 0 60.548 0zm1.033 11.355c0 .569-.464 1.032-1.033 1.032h-3.393L50.6 16.484l.703-4.097h-5.205a1.034 1.034 0 0 1-1.032-1.032V3.097c0-.569.463-1.032 1.032-1.032h14.451c.57 0 1.033.463 1.033 1.032v8.258z"/><path d="M47 4h12.387v2.065H47zm0 4h8.258v2.065H47zm11 0h2.065v2.065H58zM31.852 3C18.365 3 6.747 12.33 3.726 25.343l-1.956-3.26L0 23.144l3.628 6.045 6.046-3.628-1.062-1.77-2.797 1.678C8.74 13.565 19.445 5.065 31.852 5.065c2.712 0 5.388.402 7.953 1.197l.611-1.972A28.884 28.884 0 0 0 31.852 3zm31.794 19.628L57.6 19l-3.628 6.047 1.77 1.062 1.807-3.01a26.729 26.729 0 0 1 1.437 8.673A26.9 26.9 0 0 1 53 48.67l1.603 1.3a28.968 28.968 0 0 0 6.448-18.198c0-3.158-.51-6.24-1.501-9.193l3.033 1.82 1.063-1.77z"/></g></svg>