<svg width="32" height="30" xmlns="http://www.w3.org/2000/svg"><g fill="#FF7300"><path d="M30.125 19.402a.629.629 0 0 0-.625.625.63.63 0 0 0 .183.442.63.63 0 0 0 .442.183.63.63 0 0 0 .442-.183.63.63 0 0 0 .183-.442.63.63 0 0 0-.183-.442.63.63 0 0 0-.442-.183z"/><path d="M31.375 24.277h-.625v-1.78a.625.625 0 1 0-1.25 0v1.78h-27V22.53h5.934a.625.625 0 1 0 0-1.25H2.5V8.402c0-.758.617-1.375 1.375-1.375h3.58c-.052.37-.08.746-.08 1.13 0 4.48 3.645 8.124 8.125 8.124a8.075 8.075 0 0 0 4.047-1.08l4.96 4.96c.4.4.933.62 1.499.62.566 0 1.098-.22 1.498-.62.4-.4.621-.933.621-1.499 0-.566-.22-1.098-.62-1.499l-4.961-4.96a8.075 8.075 0 0 0 1.003-5.176h4.578c.758 0 1.375.617 1.375 1.375v9a.625.625 0 1 0 1.25 0v-9a2.628 2.628 0 0 0-2.625-2.625H23.27C22.25 2.454 19.153.031 15.5.031c-3.652 0-6.75 2.423-7.769 5.746H3.875A2.628 2.628 0 0 0 1.25 8.402v15.875H.625a.625.625 0 0 0-.625.625v1.375a3.254 3.254 0 0 0 3.25 3.25h25.5a3.254 3.254 0 0 0 3.25-3.25v-1.375a.625.625 0 0 0-.625-.625zm-4.755-6.23a.863.863 0 0 1 .255.615c0 .232-.09.45-.255.615a.863.863 0 0 1-.614.254.863.863 0 0 1-.615-.254l-4.796-4.797a8.173 8.173 0 0 0 1.23-1.229l4.795 4.796zM15.5 1.281a6.883 6.883 0 0 1 6.875 6.875 6.883 6.883 0 0 1-6.875 6.875 6.883 6.883 0 0 1-6.875-6.875A6.883 6.883 0 0 1 15.5 1.281zm15.25 24.996c0 1.103-.897 2-2 2H3.25c-1.103 0-2-.897-2-2v-.75h29.5v.75z"/><path d="M18.104 26.277h-4.208a.625.625 0 1 0 0 1.25h4.208a.625.625 0 0 0 0-1.25zM15.5 13.656c3.033 0 5.5-2.467 5.5-5.5 0-3.032-2.467-5.5-5.5-5.5a5.506 5.506 0 0 0-5.5 5.5c0 3.033 2.468 5.5 5.5 5.5zm0-9.75a4.255 4.255 0 0 1 4.25 4.25 4.255 4.255 0 0 1-4.25 4.25 4.255 4.255 0 0 1-4.25-4.25 4.255 4.255 0 0 1 4.25-4.25z"/><path d="M15.5 6.594c.862 0 1.563.7 1.563 1.562a.625.625 0 1 0 1.25 0A2.815 2.815 0 0 0 15.5 5.344a.625.625 0 0 0 0 1.25zM11.06 21.28a.625.625 0 0 0 0 1.25h.013a.625.625 0 0 0 0-1.25h-.014z"/></g></svg>